<mxfile host="app.diagrams.net" modified="2023-10-05T22:38:45.849Z" agent="Mozilla/5.0 (Windows NT 10.0; Win64; x64) AppleWebKit/537.36 (KHTML, like Gecko) Chrome/117.0.0.0 Safari/537.36 Edg/117.0.2045.47" etag="BHEIpT5WuQ_4kdLUdLQZ" version="22.0.0" type="google">
  <diagram name="Página-1" id="yftCuLdTaAZt75K3nP3Q">
    <mxGraphModel grid="1" page="1" gridSize="10" guides="1" tooltips="1" connect="1" arrows="1" fold="1" pageScale="1" pageWidth="827" pageHeight="1169" math="0" shadow="0">
      <root>
        <mxCell id="0" />
        <mxCell id="1" parent="0" />
        <mxCell id="GPZW-LEuCJG_7yV0mtUQ-40" value="REST" style="text;html=1;align=center;verticalAlign=middle;resizable=0;points=[];autosize=1;strokeColor=none;fillColor=none;" vertex="1" parent="1">
          <mxGeometry x="1055" y="768.94" width="60" height="30" as="geometry" />
        </mxCell>
        <mxCell id="GPZW-LEuCJG_7yV0mtUQ-43" value="&lt;b&gt;&lt;br&gt;&lt;/b&gt;" style="html=1;dropTarget=0;whiteSpace=wrap;" vertex="1" parent="1">
          <mxGeometry x="1196.25" y="517" width="293.75" height="573" as="geometry" />
        </mxCell>
        <mxCell id="GPZW-LEuCJG_7yV0mtUQ-44" value="" style="shape=module;jettyWidth=8;jettyHeight=4;" vertex="1" parent="GPZW-LEuCJG_7yV0mtUQ-43">
          <mxGeometry x="1" width="20" height="20" relative="1" as="geometry">
            <mxPoint x="-27" y="7" as="offset" />
          </mxGeometry>
        </mxCell>
        <mxCell id="4Rx-it21br4PG3s0Q3KG-167" style="edgeStyle=orthogonalEdgeStyle;rounded=0;orthogonalLoop=1;jettySize=auto;html=1;startArrow=classic;startFill=1;" edge="1" parent="1" source="GPZW-LEuCJG_7yV0mtUQ-66">
          <mxGeometry relative="1" as="geometry">
            <mxPoint x="1335" y="730" as="targetPoint" />
          </mxGeometry>
        </mxCell>
        <mxCell id="4Rx-it21br4PG3s0Q3KG-168" style="edgeStyle=orthogonalEdgeStyle;rounded=0;orthogonalLoop=1;jettySize=auto;html=1;entryX=0.5;entryY=0;entryDx=0;entryDy=0;startArrow=classic;startFill=1;" edge="1" parent="1" source="GPZW-LEuCJG_7yV0mtUQ-66" target="GPZW-LEuCJG_7yV0mtUQ-57">
          <mxGeometry relative="1" as="geometry" />
        </mxCell>
        <mxCell id="GPZW-LEuCJG_7yV0mtUQ-66" value="«Message Broker»&lt;br&gt;&lt;b&gt;Message Broker&lt;/b&gt;" style="html=1;dropTarget=0;whiteSpace=wrap;" vertex="1" parent="1">
          <mxGeometry x="1250" y="782.98" width="170" height="50" as="geometry" />
        </mxCell>
        <mxCell id="GPZW-LEuCJG_7yV0mtUQ-67" value="" style="shape=module;jettyWidth=8;jettyHeight=4;" vertex="1" parent="GPZW-LEuCJG_7yV0mtUQ-66">
          <mxGeometry x="1" width="20" height="20" relative="1" as="geometry">
            <mxPoint x="-27" y="7" as="offset" />
          </mxGeometry>
        </mxCell>
        <mxCell id="GPZW-LEuCJG_7yV0mtUQ-72" value="No SQL" style="shape=cylinder3;whiteSpace=wrap;html=1;boundedLbl=1;backgroundOutline=1;size=15;" vertex="1" parent="1">
          <mxGeometry x="1040" y="939.27" width="60" height="80" as="geometry" />
        </mxCell>
        <mxCell id="GPZW-LEuCJG_7yV0mtUQ-73" value="SQL" style="shape=cylinder3;whiteSpace=wrap;html=1;boundedLbl=1;backgroundOutline=1;size=15;" vertex="1" parent="1">
          <mxGeometry x="1040" y="610.42" width="60" height="80" as="geometry" />
        </mxCell>
        <mxCell id="GPZW-LEuCJG_7yV0mtUQ-78" value="«APM»&lt;br&gt;&lt;b&gt;Instrumentación, monitoreo y trazabilidad&lt;/b&gt;" style="html=1;dropTarget=0;whiteSpace=wrap;" vertex="1" parent="1">
          <mxGeometry x="1261" y="279.99999999999994" width="170" height="99.45833333333334" as="geometry" />
        </mxCell>
        <mxCell id="GPZW-LEuCJG_7yV0mtUQ-79" value="" style="shape=module;jettyWidth=8;jettyHeight=4;" vertex="1" parent="GPZW-LEuCJG_7yV0mtUQ-78">
          <mxGeometry x="1" width="20" height="20" relative="1" as="geometry">
            <mxPoint x="-27" y="7" as="offset" />
          </mxGeometry>
        </mxCell>
        <mxCell id="4Rx-it21br4PG3s0Q3KG-54" value="" style="group" connectable="0" vertex="1" parent="1">
          <mxGeometry x="1241" y="608.3599999999999" width="212.5" height="160.58000000000004" as="geometry" />
        </mxCell>
        <mxCell id="4Rx-it21br4PG3s0Q3KG-105" value="" style="group" connectable="0" vertex="1" parent="4Rx-it21br4PG3s0Q3KG-54">
          <mxGeometry y="-42.42" width="212.5" height="160.58" as="geometry" />
        </mxCell>
        <mxCell id="GPZW-LEuCJG_7yV0mtUQ-46" value="" style="html=1;dropTarget=0;whiteSpace=wrap;" vertex="1" parent="4Rx-it21br4PG3s0Q3KG-105">
          <mxGeometry width="212.5" height="160.58" as="geometry" />
        </mxCell>
        <mxCell id="GPZW-LEuCJG_7yV0mtUQ-47" value="" style="shape=module;jettyWidth=8;jettyHeight=4;" vertex="1" parent="GPZW-LEuCJG_7yV0mtUQ-46">
          <mxGeometry x="1" width="20" height="20" relative="1" as="geometry">
            <mxPoint x="-27" y="7" as="offset" />
          </mxGeometry>
        </mxCell>
        <mxCell id="GPZW-LEuCJG_7yV0mtUQ-55" value="«Microserevices»&lt;br&gt;&lt;b&gt;Back End RoomUx&lt;/b&gt;" style="html=1;dropTarget=0;whiteSpace=wrap;" vertex="1" parent="4Rx-it21br4PG3s0Q3KG-105">
          <mxGeometry x="20" y="34.75166666666678" width="170" height="99.45833333333334" as="geometry" />
        </mxCell>
        <mxCell id="GPZW-LEuCJG_7yV0mtUQ-56" value="" style="shape=module;jettyWidth=8;jettyHeight=4;" vertex="1" parent="GPZW-LEuCJG_7yV0mtUQ-55">
          <mxGeometry x="1" width="20" height="20" relative="1" as="geometry">
            <mxPoint x="-27" y="7" as="offset" />
          </mxGeometry>
        </mxCell>
        <mxCell id="4Rx-it21br4PG3s0Q3KG-178" value="«Container»" style="text;html=1;align=center;verticalAlign=middle;resizable=0;points=[];autosize=1;strokeColor=none;fillColor=none;" vertex="1" parent="4Rx-it21br4PG3s0Q3KG-105">
          <mxGeometry x="60" y="4.750000000000114" width="90" height="30" as="geometry" />
        </mxCell>
        <mxCell id="4Rx-it21br4PG3s0Q3KG-55" value="" style="group" connectable="0" vertex="1" parent="1">
          <mxGeometry x="1236.88" y="1021.02" width="212.5" height="160.58" as="geometry" />
        </mxCell>
        <mxCell id="4Rx-it21br4PG3s0Q3KG-56" value="" style="group" connectable="0" vertex="1" parent="4Rx-it21br4PG3s0Q3KG-55">
          <mxGeometry x="-8.75" y="-132.04" width="212.5" height="160.58" as="geometry" />
        </mxCell>
        <mxCell id="GPZW-LEuCJG_7yV0mtUQ-57" value="" style="html=1;dropTarget=0;whiteSpace=wrap;" vertex="1" parent="4Rx-it21br4PG3s0Q3KG-56">
          <mxGeometry width="212.5" height="160.58" as="geometry" />
        </mxCell>
        <mxCell id="GPZW-LEuCJG_7yV0mtUQ-58" value="" style="shape=module;jettyWidth=8;jettyHeight=4;" vertex="1" parent="GPZW-LEuCJG_7yV0mtUQ-57">
          <mxGeometry x="1" width="20" height="20" relative="1" as="geometry">
            <mxPoint x="-27" y="7" as="offset" />
          </mxGeometry>
        </mxCell>
        <mxCell id="GPZW-LEuCJG_7yV0mtUQ-64" value="«Microserevices»&lt;br&gt;&lt;b&gt;Back End RoomUx&lt;/b&gt;" style="html=1;dropTarget=0;whiteSpace=wrap;" vertex="1" parent="4Rx-it21br4PG3s0Q3KG-56">
          <mxGeometry x="21.25" y="40.561666666666724" width="170" height="99.45833333333334" as="geometry" />
        </mxCell>
        <mxCell id="GPZW-LEuCJG_7yV0mtUQ-65" value="" style="shape=module;jettyWidth=8;jettyHeight=4;" vertex="1" parent="GPZW-LEuCJG_7yV0mtUQ-64">
          <mxGeometry x="1" width="20" height="20" relative="1" as="geometry">
            <mxPoint x="-27" y="7" as="offset" />
          </mxGeometry>
        </mxCell>
        <mxCell id="4Rx-it21br4PG3s0Q3KG-177" value="«Container»" style="text;html=1;align=center;verticalAlign=middle;resizable=0;points=[];autosize=1;strokeColor=none;fillColor=none;" vertex="1" parent="4Rx-it21br4PG3s0Q3KG-56">
          <mxGeometry x="61.25" y="10.559999999999945" width="90" height="30" as="geometry" />
        </mxCell>
        <mxCell id="4Rx-it21br4PG3s0Q3KG-57" value="" style="ellipse;whiteSpace=wrap;html=1;aspect=fixed;" vertex="1" parent="1">
          <mxGeometry x="1070" y="792.98" width="30" height="30" as="geometry" />
        </mxCell>
        <mxCell id="4Rx-it21br4PG3s0Q3KG-58" style="edgeStyle=orthogonalEdgeStyle;rounded=0;orthogonalLoop=1;jettySize=auto;html=1;exitX=1;exitY=0.5;exitDx=0;exitDy=0;entryX=0;entryY=0.5;entryDx=0;entryDy=0;dashed=1;startArrow=none;startFill=0;endArrow=open;endFill=0;" edge="1" parent="1" source="4Rx-it21br4PG3s0Q3KG-60" target="4Rx-it21br4PG3s0Q3KG-71">
          <mxGeometry relative="1" as="geometry" />
        </mxCell>
        <mxCell id="4Rx-it21br4PG3s0Q3KG-59" style="edgeStyle=orthogonalEdgeStyle;rounded=0;orthogonalLoop=1;jettySize=auto;html=1;entryX=0.5;entryY=0;entryDx=0;entryDy=0;endArrow=none;endFill=0;dashed=1;dashPattern=8 8;" edge="1" parent="1" source="4Rx-it21br4PG3s0Q3KG-84" target="4Rx-it21br4PG3s0Q3KG-65">
          <mxGeometry relative="1" as="geometry" />
        </mxCell>
        <mxCell id="4Rx-it21br4PG3s0Q3KG-60" value="«WAF»&lt;br&gt;&lt;b&gt;Web Application Firewall&lt;br&gt;&lt;/b&gt;" style="html=1;dropTarget=0;whiteSpace=wrap;" vertex="1" parent="1">
          <mxGeometry x="430" y="762.98" width="180" height="90" as="geometry" />
        </mxCell>
        <mxCell id="4Rx-it21br4PG3s0Q3KG-61" value="" style="shape=module;jettyWidth=8;jettyHeight=4;" vertex="1" parent="4Rx-it21br4PG3s0Q3KG-60">
          <mxGeometry x="1" width="20" height="20" relative="1" as="geometry">
            <mxPoint x="-27" y="7" as="offset" />
          </mxGeometry>
        </mxCell>
        <mxCell id="4Rx-it21br4PG3s0Q3KG-62" value="https" style="text;html=1;align=center;verticalAlign=middle;resizable=0;points=[];autosize=1;strokeColor=none;fillColor=none;" vertex="1" parent="1">
          <mxGeometry x="130" y="778.9200000000001" width="50" height="30" as="geometry" />
        </mxCell>
        <mxCell id="4Rx-it21br4PG3s0Q3KG-63" value="https" style="text;html=1;align=center;verticalAlign=middle;resizable=0;points=[];autosize=1;strokeColor=none;fillColor=none;" vertex="1" parent="1">
          <mxGeometry x="340" y="778.9200000000001" width="50" height="30" as="geometry" />
        </mxCell>
        <mxCell id="4Rx-it21br4PG3s0Q3KG-64" style="edgeStyle=orthogonalEdgeStyle;rounded=0;orthogonalLoop=1;jettySize=auto;html=1;endArrow=none;endFill=0;dashed=1;" edge="1" parent="1" source="4Rx-it21br4PG3s0Q3KG-89" target="4Rx-it21br4PG3s0Q3KG-86">
          <mxGeometry relative="1" as="geometry" />
        </mxCell>
        <mxCell id="4Rx-it21br4PG3s0Q3KG-65" value="" style="strokeColor=#dddddd;shadow=1;strokeWidth=1;rounded=1;absoluteArcSize=1;arcSize=2;" vertex="1" parent="1">
          <mxGeometry x="460" y="925.94" width="120" height="44" as="geometry" />
        </mxCell>
        <mxCell id="4Rx-it21br4PG3s0Q3KG-66" value="CDN&#xa;Interconnect" style="sketch=0;dashed=0;connectable=0;html=1;fillColor=#757575;strokeColor=none;shape=mxgraph.gcp2.google_network_edge_cache;part=1;labelPosition=right;verticalLabelPosition=middle;align=left;verticalAlign=middle;spacingLeft=5;fontSize=12;" vertex="1" parent="4Rx-it21br4PG3s0Q3KG-65">
          <mxGeometry y="0.5" width="32" height="32" relative="1" as="geometry">
            <mxPoint x="5" y="-16" as="offset" />
          </mxGeometry>
        </mxCell>
        <mxCell id="4Rx-it21br4PG3s0Q3KG-67" style="edgeStyle=orthogonalEdgeStyle;rounded=0;orthogonalLoop=1;jettySize=auto;html=1;entryX=0.5;entryY=0;entryDx=0;entryDy=0;dashed=1;" edge="1" parent="1" source="4Rx-it21br4PG3s0Q3KG-97" target="4Rx-it21br4PG3s0Q3KG-74">
          <mxGeometry relative="1" as="geometry" />
        </mxCell>
        <mxCell id="4Rx-it21br4PG3s0Q3KG-101" style="edgeStyle=orthogonalEdgeStyle;rounded=0;orthogonalLoop=1;jettySize=auto;html=1;entryX=0;entryY=0.5;entryDx=0;entryDy=0;dashed=1;" edge="1" parent="1" source="4Rx-it21br4PG3s0Q3KG-68" target="4Rx-it21br4PG3s0Q3KG-57">
          <mxGeometry relative="1" as="geometry" />
        </mxCell>
        <mxCell id="4Rx-it21br4PG3s0Q3KG-68" value="«Api Gateway»&lt;br&gt;&lt;b&gt;Api Gateway&lt;br&gt;&lt;/b&gt;" style="html=1;dropTarget=0;whiteSpace=wrap;" vertex="1" parent="1">
          <mxGeometry x="784.8499999999999" y="762.98" width="180" height="90" as="geometry" />
        </mxCell>
        <mxCell id="4Rx-it21br4PG3s0Q3KG-69" value="" style="shape=module;jettyWidth=8;jettyHeight=4;" vertex="1" parent="4Rx-it21br4PG3s0Q3KG-68">
          <mxGeometry x="1" width="20" height="20" relative="1" as="geometry">
            <mxPoint x="-27" y="7" as="offset" />
          </mxGeometry>
        </mxCell>
        <mxCell id="4Rx-it21br4PG3s0Q3KG-70" style="edgeStyle=orthogonalEdgeStyle;rounded=0;orthogonalLoop=1;jettySize=auto;html=1;entryX=0;entryY=0.5;entryDx=0;entryDy=0;endArrow=none;endFill=0;" edge="1" parent="1" source="4Rx-it21br4PG3s0Q3KG-71" target="4Rx-it21br4PG3s0Q3KG-68">
          <mxGeometry relative="1" as="geometry" />
        </mxCell>
        <mxCell id="4Rx-it21br4PG3s0Q3KG-71" value="" style="ellipse;whiteSpace=wrap;html=1;aspect=fixed;" vertex="1" parent="1">
          <mxGeometry x="704" y="792.98" width="30" height="30" as="geometry" />
        </mxCell>
        <mxCell id="4Rx-it21br4PG3s0Q3KG-72" value="https" style="text;html=1;align=center;verticalAlign=middle;resizable=0;points=[];autosize=1;strokeColor=none;fillColor=none;" vertex="1" parent="1">
          <mxGeometry x="630" y="778.9200000000001" width="50" height="30" as="geometry" />
        </mxCell>
        <mxCell id="4Rx-it21br4PG3s0Q3KG-73" value="REST" style="text;html=1;align=center;verticalAlign=middle;resizable=0;points=[];autosize=1;strokeColor=none;fillColor=none;" vertex="1" parent="1">
          <mxGeometry x="689" y="768.94" width="60" height="30" as="geometry" />
        </mxCell>
        <mxCell id="4Rx-it21br4PG3s0Q3KG-74" value="«Segurity»&lt;br&gt;&lt;b&gt;Identity Provider&lt;br&gt;&lt;/b&gt;" style="html=1;dropTarget=0;whiteSpace=wrap;" vertex="1" parent="1">
          <mxGeometry x="784.8499999999999" y="1013.98" width="180" height="90" as="geometry" />
        </mxCell>
        <mxCell id="4Rx-it21br4PG3s0Q3KG-75" value="" style="shape=module;jettyWidth=8;jettyHeight=4;" vertex="1" parent="4Rx-it21br4PG3s0Q3KG-74">
          <mxGeometry x="1" width="20" height="20" relative="1" as="geometry">
            <mxPoint x="-27" y="7" as="offset" />
          </mxGeometry>
        </mxCell>
        <mxCell id="4Rx-it21br4PG3s0Q3KG-76" style="edgeStyle=orthogonalEdgeStyle;rounded=0;orthogonalLoop=1;jettySize=auto;html=1;entryX=0;entryY=0.5;entryDx=0;entryDy=0;endArrow=none;endFill=0;dashed=1;" edge="1" parent="1" source="4Rx-it21br4PG3s0Q3KG-78" target="4Rx-it21br4PG3s0Q3KG-81">
          <mxGeometry relative="1" as="geometry" />
        </mxCell>
        <mxCell id="4Rx-it21br4PG3s0Q3KG-77" style="edgeStyle=orthogonalEdgeStyle;rounded=0;orthogonalLoop=1;jettySize=auto;html=1;dashed=1;" edge="1" parent="1" source="4Rx-it21br4PG3s0Q3KG-78" target="4Rx-it21br4PG3s0Q3KG-74">
          <mxGeometry relative="1" as="geometry">
            <Array as="points">
              <mxPoint x="71" y="1185.94" />
              <mxPoint x="875" y="1185.94" />
            </Array>
          </mxGeometry>
        </mxCell>
        <mxCell id="4Rx-it21br4PG3s0Q3KG-78" value="" style="shape=mxgraph.aws3.users;verticalLabelPosition=bottom;labelBackgroundColor=default;verticalAlign=top;aspect=fixed;imageAspect=0;image=data:image/png,iVBORw0KGgoAAAANSUhEUgAAAVEAAAFgCAYAAAACUEpKAAAAAXNSR0IArs4c6QAAAARnQU1BAACxjwv8YQUAAAAJcEhZcwAADsMAAA7DAcdvqGQAADPgSURBVHhe7Z13mFXFmu5XE5pgk5puoOmGJkOTJDUgIFGSJEmSJCkGwEBSAUlKUlCiJCUIJsCA89/MH3Nm7tw595l7dO7MHGfmHOMIiqPiOepRUEBZt95ttYNUQ+/eu2qtWrXe3/O8z/etPh723rVr1a5V9dX3eYQQQgghhBBCCCGEEEIIIYQQQgghhBBCCCGEEEIIIYQQQgghhBBCCCGEEEIIIYQQQgghhBBCCCGEEEIIIYQQQgghhBBCCCGEEEIIIYQQQgghhBBCCCGEEEIIIYQERIa0hBjl5WPH/C8+/8I7c+aM0Bdewv/yjHfu7Fnv/Pnz3oULF4QVuiB8cY2/QRkZGV6VKlW8zMxMr0rVql5mZWGrQFUSui4ry8vNyfVy6wnl1hPK9XJyc7ypkyezb5NAYEcjabN9x07/7bd/77399tveyZMnvYsXL3oXxaAI+9NPPyV06dIlz/d9+f8wCwZeqFKlSl7FihUTA3ClypUTA3DTZk29Dh06eB07Xu/NnzeX/Z+kDTsRSYqjx4/7H7z/gffBB+8LCSv8Tz89nRgcowwG2kaNGnktWrb0mjdv7rVo0dJbsngR7wtCSHqsXbfe79KlC6aOsVXlypX9mwYP9nfv2YtrQkqFv7jE27V7j/+//+EfErPMjz/5xDvzxReJR3DyP2BJoEGDPK+gUYFXVFTk9e3Xz5s5fTrvH0LiyuIlS/wWLVoosy8qeWVkZPidOnXyV695FNeEEJfB47mYQfm1atXyK1WqpAwIVHoSM1W/Tp06fnH37nz8J8QVFi1e7Hfu3NmvUKGCctNTZlWlShW/d58+/iMrVuCaEBIVHl66NDEjEi5lkfLyGvqbNj8JnxBiG3ffc4/fsWNHv3r16srNS9mlmjVrJh758WMnrgkhYXHkhRf8/gMG+BUrVlRuVCoawjrqyJGj/Fdffx3XhJAgmDBhYuJxnYOnO8JGX92cHH/OnXfimhCim23bd/h9+/VLzFzEJeWwsCRz84gR/r5nnsU1ISQd1m/YmNjlFS4VQ1133XX+zqd3wSeElIdJkyb7DfLylJuKiqcaNWrs337HHfAJIddi/PgJDISnrqpq1ar5d8yZA58QcjnFxcWJx3YcIxSXFHVVoY9gMO15ww24JiTeYKedu+xUqkKWqanTboNPSLwYNWo0j2JS2oS+NGXqNPiEuM24ceMTCUCES1HalV23rj9lylT4hLgFzkxnZ2crnZ6iTAh97aktW+ETEm1wNLNe/frcMKICF/ockp7wSKl5mJnbEEOGDvV/87d/6/3444/yL+RKxI3uVatWzasqVK2qULWqiesKFSrI/+LXoJ7T999/7507972w54Q9l6gISq4OMvIPH36z91d/9QbvdUOwYTWDOL4D+/fLq3iBQRGF33DjQpWFsq67zmvStGmiCFzz5i285i2aexPHjzfS71546SX//fdQSO/nYnofn/rY++H8D4nKoyjJDMX1Rw1VT++97z5v+7ZtvOeJnRw6fNhv1apVrB7dEZ6FEiPYMEPyYSxfiL9bzcFDh/yHHn7YHz16jF9YWBirKAn0zZYtW/rPHTmCa0LsYfqMGU7He+Kz4RgqsuSPGDHSX/7II/i7M7zy2mv+gw895A8bPty//vrrE+vYLg+uOBXHk0/ECvbue8bpXXfMrFesXAU/lmBgbdKkidIurignN9fHEojwCQmeMWNucWr2iYzrqLGOWebxV1/F38hlvHzsWCIbPVISIruS+JMTwqz01lsnwSckOFyYfeLmSVSnLC729x84gL+RcoBa/VjeqF27thNJY+QhEELMMmPmzMR5ZeFGVniEW7BwIXyikfn33hv5AoH4McD6vvAJ0U+zZs2UThcFYYMEu9BYfsAjqfgbMQgiFFA3CTlAo7o5hR18YQnRAzYXkHosaqFLuIFRyE74JET63Hhj5PoO3i/WfdeuW49rQlIH8Y9R2jxC52/btm2sd9RtBRt2+G6iNKDi8R7pGoVPSPlp2rSp0qlsFYqbFRUVwScRoEOHDpHa4S8oaARLSHLs2bsvMhsEVatW9RcvWQKfRJAlDz6YWCoSrvVCFAIrkJIyufe++5TOY5vwONi4caE/b/58XBMHQLQENi6jsBGFgV9YQlTwOGx7J8Yj4OYnn4JPHATxughBE661wh5Bt27d4BPyP3Ts2FHpLDYJST6e2LQZPokBW7ZuK1njtlbIMSAsIZ6HTRlhrBMe27EOxcen+IIQI8xMbd3Rl+u5JK5s3bY9MUgJ1zplZmYm0rUJnxDv8Sc2+TVq1FD6iQ3CcdFt23fAJ3Fi/YaNiYFKuFYJu+3jx0+AT4jCtNum+1lZWUq/CVvot1iCED6JAzgbbOMGUvPmzWEJKZNOnTop/Sds4Z6S0S3EZZDyy7b1pdx69fyNjz8Bn5CkQS5becbdGuHeYv17h0E5CGGsUZUqVRJJQYRPSMrcfc89icdp4Voj5KUVlriE/FKtETLGC0uINmTIkTVi8huH6NW7t/IFhyXMGGbffjt8cg1eP/GGD8lLkiSLFi9OVCgQrhVCBithSZTp0qWL8sWGpfz8AtjYg9Ay5NtEeyAGEnkKcOMjXhcREyWbflhfu1L435AUG/GJCPlBhQGsKSNBxtBhw7hDLLFpVionMSSKyKNpoQs3PNathB87Nm1+0kdYTnH37oHG5GJw7t2nT6KiZVyPySLO2JZwqBt69YIlUQI3kDChCjMnDBxxK/qGrFI2ZsHKrlvXuVLPyWDLiSf8kApLooAtm0hx+vVFlAGyEEWh/hSiIlq3bp041BCXddexY8cp7RCGuEYaAWwIY8JNet/998N3Ghz1i1qm9iuF944Eybv37MW102zY+HhJRc9QdfOIEbDERiZOvFX5woKWLKXsNKi7jk0d29MGlkf4LBhgRo0ajWunadgwX/n8QYsVRS1k5qxZoc6I8NoYXITvJHjsHTZ8eKTqTaUq1BVyfbaESIYwfwTx2vc/8AB8YgM4Mhlmh8DAMuimm+A7SY+ePZXPHAfhhxGDjfCdBEegw1zDxn3z1Jat8EmYYF0Oa5DCDU2rVq+BdY7BQ4ZYmTEoaCHSAAOO8J0Da8FhTkBw73IgDZkw84HWzcnxDz33HHyneGTFikjssgctl+uwh7lOKk9YkTAIMyN9vfr1YZ2jQV5eqDMT24VH0MLCQvjOkZfXUPm8QUneyyRI2rdvr3wRQaldu3awToGQLD66Jy9EYaxctRq+U4R5yk8e0SZBEGYBLxdPXWD2KQyVguSPuVNgkzSsSJfi4mJYYhJkzg7rcXP4zTfDOgOCr22tMRUlYVaKpCrCd4Y5d94ZykCK5ZIHFiyAT0ywZ+8+pdGDEDqTDOR3hrvuvlv5nFR6Qs4AYZ0BsddhTVi279gJS3QTRlILDKCuHeHEuXFuHukXZlE9b7gBvjNgVhjGjFRWNiU6adKkidLQpoXOc/sdd8B3BlkMjzIk9Bl5OMEZ5s2fn/iBEG6gkmFXRAe33DJWaWDTws0wa/Zs+M5gU8Zz14X0c8I6A45ohvH0wvLhGnh46dLAfwUxgCKZr/Cd4KWjR0sej6gAJZefnGHZ8uWBD6TIY+DqicDACDqgHgPopEmT4TsDd+DDU/0GDWCd4bbpiexLgYqB+GmAJL8Y1IQbmKZMmQrrDGGe6qJ+lvwRcwb5iB2YMAY0buzmKTGjyHyDgcqlTPSHn3+ej/AWybVNkjDK79i8PpohrVUgAcbFixfllXnatWvn/cd//IeVbZEKWI/76quv5JWdVKxY0atatapXpUoVr3JmppffsKHXoWNHr2XLVtgE82rUyPKyatTwJo4fn4F13c/++zPv888/8z777DPv3Xff9T788EPvwvnz3nmpn376Sf7LdlKvfn3vi88/d6aPde7c2f+Xf/kXeWWeChUqeEePH/dunTDBmTY0RtDxoChgJqwz2JC5/GpC6jPEUi5dtgzXWsHGB0oF2xwD61rykqCPDDPjUxIEXSPJtWxM/QcMUD5jmMJ6FrIDITdpkKdQ8Fp4TdSkD3pdvSzJPu4MaGNhAhPDnq4BjnWGENTrDKhyatOA0apVK9jQ2fn0Lr+goJHy/sISZsozZs6E7wQvvvyy8hlNCmPEs/sPwCdXIou8BSLEnz2xaTN8J1jz6GOJzyTcUIV0eggRs7EU8auvv55IIhPG6ZsrlZmZ6e8/4M5AsG79hkD7n2sxuFqYdtt0paFMCbM1B2vnKJ8zSGGtM0rHHdu0aZMYyIQbmuSg4wwo7hfkk5CrJVtS4sDBg4HODm7s2xfWGWSS6NAU5RyQYecSwEaYsM6AJSVhAhGWRbBUI3zSokULpYFMybUzzffMnat8xiCEGQdO46DSqriONMhRKyM0QhFqWgnrDKg9JkwgwoEcYeMNguqDegRAoTFhnQGxk2GF8yCdnrBOIT9T4JJPYU5RtWpV5XOaEMYOZJkSfqxRGsaUTMQmhgnW9YQJVDgEsWLlSvhOIm/IwCVPADnDgoULlc9oSnIiEU8QxyeMceHXql///vCdIYz0gDJ6wnmeO3IklCOzK1augnWGPjfeGNhTpoMbxWWDjhpUSEStWrVgnaJatWrK5zQpW2I+g0SeLgpMstqqUwR1+hBjiUshY0kR1CkHrM08/+KL8J0h6FlonCswyo2LwCRTzTnDK6+95gf1g+/a8e1rgiqTQU3z5e61M6BTBrmZ5FJmq1QJcsPJtdhRIEvsGBfGFORPEL77BJUkWNZlcgo5KwxEnTp1giWCoqIipX1MybXS3ECGFhqXi0siCkElGJGPEM4R1Axe7vyTywgqO5arfReRHcIY14QJE2HdRW7yGBdqZgvrFEHdxK4dSNBJUJUCirt3h3WKoNbyXask8CtGjBipfGATatq0KaxTILBeGOPCGXgk6hA+KQVElQR15t7GJC7pImtOGZcca9wjiEdR+cjgHEH9ii9esgSWXIPZt9+utJsJTZ12G6xTIG1eEHky5FjjFuPGjVc+qAmNHTsO1jnkkVWjcvbX2wDde/RQ2k+3XA3ZGTBwoPJZTWjkyFGw7hDEr49rWepLCKK6onxEJeUgiI2SlatWwzpHELv1Ts1Gu3TponxAE0L8qbDOYXozDnGnu/fshU/KwVNbthqPd87PL4B1jief2qJ8VhNCMT1how82K4QxKtcKgJUQRKYmBtSnTseOHZX21CmXnxBkLXmjktmkos3Eibca/7V2uaMFtJZMUuTQ4cOltac24d5BukjhO4np/BlovylTp8GPLkGsGzm3gHwZpuMSXTurHQZDhg5V2lWnXEygU4LMrmZUkY7YQcEyYYzK5VmoLH1gTK6ejAkD00tWyJkgrJMEsekc2VNMpgNrMVV3Oa7R9Axn4KBBsEQD7du3V9pXp1x+pJefzahk1rhosXbdeuWD6FbNmjVhncVkrXTOQvVjckblejKYIOKgH3r4YdjoEMSO/J133QXrLCZvymHDh8MSjXTt2lVpZ11yfcIg1+aNKlJLf1u3bVc+gG65Gj9XgqyiaUwsNasf09/ZwUOHYJ3F5JNXiXbt3gNrP/0HDFDevG65XCwNyCw+RuRi4l9bMBnON+imm2CdZfWaR5XPrFuyLr79mH6Uj8MRRZPxc5MnT4ElBmjbtq3S3roUh3Vs03GjcmyyGwTXC2NM+KV3fRYqUT67Dsl1VmKIZ/cfSPRR4ZqS08hoG6OyPtzJdHU/GTblNDiTLYwRycTOxCCytLQRxSHXa92cHOVz65SJpM0VpE2bIy+84P/lL3+RV2YYNOgm6bnLyZMfSU8/hU0KpUdM0ahRI+np59133pWeu/S9sa/0zIAx6sDBg1oHUm2D6P5nn/V++ukneaWfSpUqeS+9+EKGvHSW05+clp5+unbtKj1iisLCJtLTz3vvuT+InjjxekaFCtqGJYVLly55hw4dkleWYfr4louZvkvDcMJfYphNm58srd216Ma+fWGdx/RpPSsjVObNn6+8UZ2KxK6aJmQMrHbJDQ8SDEr765CsgR8LTCcvWrhoEaw9XH/99cqb1Kk4bYiYmtHHYVPOFmQYnnZF8gx4ipjOvWFdwmbTKdu279gJGxeUz69DkQk0dgBZt1+7XC3EWBqy2oIxyTHLDpYuW6a8QZ2K0wzq2CuvKJ9flxYtXgxLAmDUqNFK+2tUbJAVK4xpwcKFsGmT9jbYvr17pWeGMWPGSM99vvn6G+npp6DAXOgN+TXNWzSXHkmH4TffLD0zHNi/X3rpkfYg+tVXX0nPDM/s2+d8WFMJX3/9tfT0UzenrvSIaRo3NhePe+i557TMnqLA3j17jN773377rff6iTfSbs+0BlHTO1yNGjWWXjz4+mszP0gZGRnezOnTY/NjFDbVq1eXnn7OnPlSevGgZs2a0jPDb3/7j9JLnbQG0f/1938vPTMsW75cevHgm2/MPM5XrFhReiQIqlarKj39mAxEt5ElDz4kPTP84z+mP4imhckAe3kGOVbIAwXaFYfMVzZhcoNwy9ZtsLGiRo0aSjvoko6Ih5R/1tZv2OibPOZZ1Lat9OKDf+mS9PSCo24kOCZNnJiBJRQTxG0mCtq1by89/Vy8eLEkoXbKpPyNvPjC89Izw803j5BefKhZy8z6j++n/WNLysFLR4+KJjfT5nFcmhkxYqT0zHDk8HPSS42UB9HTp80lykBHeWT5sththNSpU0d6euEgGixf/dlcxEocZ6IrVzySgQREpvj000+llxopfyNnz56Vnn5M//LYSs2ataSnFzzOy3U6EgAmw/5MDiY2M3bsOOnp57vvvpNeaqQ0iCK06ccff5RXesFa0oRbJ8qreFG7dm3p6efjUx9Lj5jmq6/+LD393H3XnbEMVZs8dYqxWTj2dmRW/eBo3rw5XtCIsrKyYGMJ1tKEMaJ75s6FJQEwadJkpf01KraY3KXv2LEjbKAob0KXGjdOnJeNM0qb6BATkASHqYJ1MqQwtsixwYjELBc2Jco9P96zd1/KL5YMt4y9RXpEJ++/9570iGneeecd6emltqGNx6gwcpS5vRLsG+guG3JVpkyZ+svorVtx/6UFMmekdrFtA0Vpfx2KU1LmqyGTixtRqtUzyj0TNVnnpVWrVtKLLwX5+dLTCxbPjx4/nlInIclj8kmtbk6O9OJL48bm8mm8+84fpVc+yj2IfmIwPrRHz57Siy8mU9aZznVAPO/vfvMb6eknr0Ge9OJLjx7mxoiTp05Jr3yUexD94vPPpaefzp27SC++5BeYmYmCt99+W3rEFO+kOJtJhtZtWksvvpicaH155oz0DLLm0cd+WT8wpNiDnATCGJHc3SQGqV27ttLuunT4+edhSSlto0tPbNoMa44uXbooL6pL1apVgyU/o7SPDnFzySyvnTihtLlmEYHM8GZEAwcNgjWK8qK6NHLkKFgiMLkDOXr0GFhigF69eyvtrUv8Afwf7pgzR2kfXQqiGKDyorr0/IsvwhKBDGUxojhVjAwakz9+vfv0gSWCV157TWkfzTKDDI8xIqvKl1qA6QqqgQUVx4jH1q5T2lmnNmx8HJZIqlSporSRLhkLBVy3foPyYrrUtGlTWPJrlHbSpWHDh8MSjXTv0UNpZ13i04OK3CQ1okcfWwubNEmHOH3wwfvS00/9Bg2kR0rIrVdPevoxGcsYV/7fP/+z9PQjJhnSIyXUb1Bfevp5993yHSgqxyD6gfT004g10RVMnt46f/68N2DgwHL92pKrgzVsU6khQZs2RdIjJRTkF0hPPydPfiS95Eh6EH3/PXMz0eLu3aVHShg8eIj0zPDm734nPZIu//Vf/yU9M4weM1p6pIRuxcXS08/HKZ5cKhOZKsqUSCnItTBjmjV7NixJg8FDhijtqlOMn74mSnvpkMk1aOXFdKhSpUqwpBT69e+vtJdOMfYwPV4+dqwkD6UxjRgxEpaUguy/pqSXbdt3lPYiWtSuXTtYUgp79z3jm4w9hPrceCMsSYE2bdoo7alTGCR41PPqdOrUSWkzXdr59C5Yfcy+/XblRXRpwoSJsOQqyHIpxoQb9fUTb8An5WDe/PlKW+qWPN5IrsLd99yjtJkuzZg5EzYpktpY+v2//Zv09NOmqI30SGl06txZemZAntFZM2fIK5IM+NHZu2ePvDLHiJHxrHqbLK1bmxs7/vmtt6SnifoNGigjtQ7hUfXICy/AJ9fA9AYTdPOIEbAkCUwm4ikRT/GVDY5/mlruqle/Pqw+suvWVV5Eh3gSIzn69uuntJ1uYYNk5arV8Mk1uG36DOPr1NCoUaNhSRmYmmDIMU8fpkqVXnfddbCkDHbt3qO0nQkxnObaYLMhMzNTaTcTOvTcc7CkDOSMXbtq1aoFqw95c2lXnTp1YEkSVK1aVWk/E4pz3f+yCGIGCvG+SB452GlXeSZ4SW0smTrSVrFSJemRsli3foP0zPLdd9+V1E0nl4E1MoG8MkfFihW9r776KkNekjKoVLmy9PSifcwzFVCcl9cQliRJq1atlDY0pR49e8ISQU5urtI+piSzQZEkaZCXp7ShDmk9iIJkyaYeYzp37gxLkmTL1m1KG5pUcXExbKxp37690i4mdeyVV2BJksgxRLsw5iV70KHMx/kvz3zpmXqMadasufRIMixauCAjyGQtb775ZsmpkFhSWFjo//u//7u8Ms/QYcO8SRMn8lG+HLQpais9vWDM+/T0p/Lq2pQ5iH7xhbkSyS1atpAeSZY3f/e7jMqG1oFK41//9V+95s2bx24gReb0kydPyivziNfz/uav/5oDaDkpKjKXJvBPf/pSetcmiUH0C+npp3lzDqKp0KVrV+kFA3LJNmyYH4tHTeSJwI4vcq4GydChw6RHykPzFuaeZv/yl79IL01kdUhTIikS5GbH5Vq1eg2skyx58EHl8wahZs2awZLUUdpUhyZPngKbPrLKoCmRFNn85FOltadxYdfSxQ2ngoJGxtPaXU3M1JQ2SpvqkLaj0N26dVP+cY0iaTBw0KDS2jQQIZ+CCxUoH1iwoOSkViiadtt0WJIeSrvqkLYy1R06dFD+cY0iaWIqTi5ZRXnTSaaaC01x3LAzhNK2OtSxY0fY9GnZsqXyj+uQfHQiaRLUufprCbkVolL4DptjmGGYOnNdHiEzvrAkfZS21SGEuAmbPo0N1Xdmsgt9TJ12W2jreVdqyNChsFZyQ69eyvsNQ1hXlptYRAOm+r62TE4yr552aU81FXPko6EVQqYjPMFs3bYd16Gydt36xIxC1vKyQnIwJ5owtaZdu3Zt2PSR/5B21c3JgSUaQf1zYawSfiwnTrzV33/gAK4DAUscCM2rWbOm8n7CVnH37rBEIzLrlXZpG0RNpWDjIGoGnLQRxkrhMfamwYONVDM4cPBgYq0zqHR1qYj5c81ganNV/giXSZnHzLDecOnSJXmlDzGIen/68ksec9PM8Vdf9WdOn+59//338i92gmOO9erV9xo0qO/VrFXLy66T7eUX5Hv5+QUJO3Xy5F/1DSTCOf3Jae/06U882K+/+dr75uuvvc8++zxxNPnixYvyv7QTMavxvv76a/Z3A2C5xsQRXTGI4tRS+t+ZqZkNZ6LmuP7665X2psIVS1ObQ+6ia5es6FEmZZ6dx4yBRIPFS5YkHkF+//vfy78QW/g/v/1tYu1u3foNSd2YJHl+CDjPQbmRM0bt4kxUH5s2P+k3adJEaWPKTqFywNO7dsMnGjC1+a2tVE5+foHyj+sQ68joIewTS1Tqkj98JE1MbX4nW6yuzMf5zEwzuSvPnTsnPZIKg4cMSex2f/bf/y3/QqLGRx99JO6vTH/MmFuSullJ6Vy4cEF6eqlRo6b00qRNmza/Gp01i5STx9au820OY6JSE46hyvIvpPwo7alDRUVFsOljeKeXlAMcwbU5DpJKTwgnbNGiBXxSPpS21KFkD0aU/TjP3fnQmTV7dmLwPHXqpLF6VyR8EI/9/vvvo2yyP//ee/lFh0yNGjWklyZDhw37ZWQ2IFIGNh5dpIJRbr16sKRslLbToWTXqsuciebm1pMeCZLZt9+eOCaorc4LiRxnvvjCww7x/Q88kNTNTPRSo2ZyG0tJDKI50tMPY+VKBxmQDh086J09e1b+hcSVb775xtuxfXtJhQlyBSbyMJRQo0aW9K5NmYNoTk6u9PTz4YcfSI8A1E3CLu17770n/0LIz7z11luJpR3kEJB/IoL333tfevpJ9ik8iZmowUH0gw+lR7B5tGzpw4yfJVcFSzu3z5qVqAsl/xR7/vCf/yk9/TRs2FB6afLaiRPGwmq01TCJOIZjcSkHxbykP9OuXTulbXRIjnn6MJUVPC+vIWxsQalcU5UDKPfV+OfSPbEGVWeF0a7KlSvD6sPUCZmc3FzYWILs66bO/FLxEdZJXzp6FH4skWWGtEt7DTiZkVu74pqEZOGiRYlz78K1Xnis6dKli49kz48/samkNpaTQjKXnU/v8l946aVEpqWonA7D+fuNjz8BP3aYiqPWlsGpBFM1TOJYLmHy5ClKO9gmHD/s0KGDv3TZMlwrIKxk3LjxJR0t0kLfnjJlqo9SyuJaYdHixT5qV9lSTfVqwoB/z9y58GOF9UXqSpAnJ7RL+7qD5bRv315pA1uEmxA/ajf27YvrpLn7nnsSuWHxXUZh5ob3iJkb1qIffOgh/C1piouLEyFoNn/OAQMHwsYGU/s12vMdmyrHi8743JEj8J1HBktbKQwqyIov/LRYsXJlYgZr46wN7wnfAbJgieu0wIzP5uWYuAykL778srEftEaNGsPqY9So0cqL6NLyRx6BdRqZmccqofOhNs3cefNwrZ0NGx/3B910k9+0adPEIC3+FJjw2bBph3YfNny4sRRziO1t2DDfyplp165dYZ1m/YaNyufWJfQbYfXxyIoVyovo0tix42CdBdnLbbvJcB77qS1b4QcKHp9v6NXLSFQCHrP79uvny74aKCtXrU68vnCtEfqc63HYU6fdpnxuXSpPP0qqHOjLx475UyZNkld6adOmjffHP/7RyVKy2OH9T4MnKspLdna2d8ecOd7mTZusae89e/f5OB+Ok1pnz36XyBcAnTsrrs/9nDsg67osr/p11RElIpWVsOLHwLv7rjut+Szz5s/3nz9yxPv222/lX8KnuLjYe/PNN528v/CkgdSBJnjtxAlv/NixetvN1GxKri05h6zPYoXwOB23DYcwwQaUqQ2PVIQlB2FdRPmsOiTHOv0YzmvpFIirFMYKMftPeJg6kpiKyht1YTuvn3hD+Yy6lGyBunLTuXNn5cV0SS4QO4EtAyjC0tauWw+fhMjDS5f62dnZyvcThlx6GkG7CmNE8sdPPxMmTFReTJdc2Vy6afBgKzaRevTsCUsswoZZKfrmpEmT4UceuXtuRCNGjITVjzy9YkQuZKTBqRdhQhUChNet3wCfWAjC+WxYK8cBCWEjjckCmjiWLax+nt1/QHkxXYp6NhqEuAgTmrA5h3hM4ZMIgOxlYR5IwIwUCXCEH1lMZW+CEDEirDGUF9QhGTcYSfbueybUGwKvHYcDC64hq3mGJhzTxYkf4UcSwyfGjFLaC2rR/gOJmW7kCHPTABmV4nJs1kW279iZSGUn3FAU1Xy+u/fsVT6LLhkLbypBNroR4YigsJEizITKMp8BcQCk4BMmFBUUNIKNFHLjx4i0n5m/krvuvlt5UV2KWkanfv37h7ITj8f3ZOthk+iA8KMw+hNec/ToMfAjg6kk8RBKlQtrFsNfdCSYPmNGae/duPBDE8eckXEB4UdhZYeKWPE75f3rEMa2QKoEyGSlRrRp85OwVoPCfWEkm8DRTVPZiIg9INIjjCOjNWrUgLUek5EwgSWJNxk0PGXqNFirMZVJ+1pCbCEH0PiAaIswfqi1JyI2wNBhw5T3rUuoYCCseUyeFLB9s2TgoEHKew5CUQ5FIamBWk/CBC55MtFaTJUqggLb3F7z6GPKi+uSXG+1EpxiCHrhX+7+k5hy8NChkmKOgQlrsk9s2gzfVpT3rEsrVq6CDQzlDehSILtjKRB0eeOorFERsxw9ftxIEutrKbC1wXIio1JMKjhM/jraGAAcdIE5uR5GSILnX3zRNxnWc6XwxIUQPuFbhcm4bDmmBYfMBGNEtg0g9z/wgPIeTQonWA4dPgyfkF9Azf+gNzVtS2ZjcrMt8Nhr1B03tT6Ifxfn0YVvBfKxOjDJDQVCFFaveVTpLyaVk5sLawVIgGRyTyKUMUeumxiRLUdAg8wBicc1prEjZbFg4cJA40j7DxgAGzoocCiMEckZfvAEcN43VExGIVwp/MK6kOORBMPEibcanZVdqad37YYNG+V96VJoUTAzZs5U3oxOLVu+HDY0TOYrvFLjxo2HJSRpZM2kQISqmsKGxtx585T3pFOTJ0+BDQeTv4aomChsKMhBLRChLr2whJSbILOIyQ3WUDAZHSPHsPDIzy9Q3pQuhRmrFlRcXlZWFiwhKSOznxlXmHHLJj+jHMPSooK0KdG7d2/p6efs2bMl65KBgk2tH374QV6Z5fEnNkmPkNRYtXqN9Mzy3XffedNumx74/YjXvHjxorzST69evaQXEjIswJhk1u/AMFlH6nIhJ+is2bPhE5I2yGcR4EZT0JT2HrRp2/YdsKGjvDGdOv7qq7CBYLKC4OWStekJ0UabNm2UfmZCckMrEAKa1ITPkKFDS3tj2iRLERvn9RNvBJIQ19ZzySTaYLKBnLPCNSp5/DQQTG/wythTOzD5KBHU5guKvgljVGinDRsfh0+IdhYvWaL0ORNq1aoVrHECOC1oD7JuvDEZK6YvMVk98HLJE1CEGMP0vVgi02U05OETY9KxK6+Vm0eMUN6kTpnOuN2tWzflNXWLj/EkKIJ4rDd9NNt0HlW5DGkPsva5MeGsMGobCV87yJiE3XLhGtWq1WtgCTHO/HvvVfqfbpmszrtr9x7j96TctLIL08ckB/5cmkM78sSQUVn36ECcJ4iM+J06dYLVTsuWLZXX0ilZbNM+5EzLmOQvk3ZMP/rIjDuEBArqcpmOHTWR/Qix56bf93333w9rJ6YrFOpexzCZXLpEAwYOhCUkcEyv9WOw012vvkfPnsrr6JQ80m0vMvTBmHRvzpj+xeMslITJK6+9Zjz2WfegZPrJsLAwEb1gLzLswahGjRoNmzayIJ5RyRRehIQGco8KY1RLly2DTZu+/fop/7Zu2VQ146o0a9ZMeeMGlDbyF8mYatWqBUtI6JheZtMY/6z82zpVUNAIVjtpZXEqjTG33CI9c9wxZ07ajfHxxx9Lzwy3TpokPULCZeDAQdIzwzvvvCO91Jk+Y4aRAe5yxtwyRnrR4JfR34TSze4kEz4bk00FvggBpo9QTpgwETZlTM+WpaKDrFltVD1vuAE2VZR/T6e4FkpsY8rUaUo/NaCUKCoqKu3f0qoOHTrARgvTNbJTzSbz6GNrlX/LgAixkdL6qjbhpJGw5QLZ00xn55c7/tGjV+/eyofRraHDhsGWCzmDNabRo8fAEmIdxd27K/1Vp0aOHAVbLoLI4SvjZaPHwUOHlA+jWzjF9PKxY/CTxmTcHJOMENsxOesr7wmmtevWGz+dBG3fsRM2mgSx1lGeX5l58+cr/3+dkmvBhFiL6VNMTz61BTYpggiHlK8RXTAbDSJDkpz1lonpJCmprAkREiSmc1wkm7B55arVyv9XtzDLdeKezM7OVj6cbiVbzlU+bhuR6ZynhOhCbsoaUbLhh0GUJQ8qW5P2YPsrWbBwEc6oyyszfPvttyXHOK/KM8/u98+dOyev9ILPN2PGDHlFiN2MGz9BevpBqXOc2ZeXpYLA+iDKks+cNUt6DhBEJcKyksSirKwwRmR9ZhhCrkAmxzGiGTNnwl4Vk69dIlkmxR3kYrNxtW7dGrZUTD4+OPeFEeeRp+qMSC7hlUqDvDzlvzchGQ/uFjIhh1FhE+vpXbvh/wrT5UseW7sOlpDIIPNPmJSC6eiYEplIFm0FqIsdxE59admTZHIDI+KjPIkqJu/HJQ8+CPsLyLRv+mQShB35AwcPwncTWZPFuORpqV8weVLjhl69YAmJHCb3Kq6MmZZLbcbVtm1b2EAxvjt/OXPnzZeeWf7vP/2Tt2Xrtl8a89SpU9LTT+/evaVHSLTo3aeP9PTzyWWpJmfNnu2/++678sost98xR3oO03/AgF/9cpjS5bv1Jo96mirlTIhpTB7NLlnmevX115X/zZQie0Y+FYIItIUwYC9esqTU/02H5OBMSGQxeXZ9x86nS1LQGVdkMzWlShB1XyAsnMsTFEZ084gRsIREls6dOyv9WpfkiaFApLsScCTIy2uoNESUhF9w5EIUPiGRRZ4tj7RiW0li/YaNSmNESVlZWbCERJ4gThCZ1IqVK2HjSUCVQY2oZcuWsIREHlkFM5Jq2DAfNlQCDXG6kg8//DAjMzNTXkWLhvn50iMk2uQ1zJNetBAzaO/TT0+bzW6UBKEOomDMGPMllk3Qrl076RESbZoUNpFetBg6dJj0iCen5JESjrEJS0jkCSpBkE7l1qsHS0o4evy4H8HFbUJcorQ+bqUQn334+efhk8sZPGSI0li2qmnTprCEOIPJqg+6dWPfvrCkNOrVr680mI1ikD1xjSBKF+tQdt26sFYR+sbS5axYsVJ6dtOyZUvpEeIGLVu2kp7dLF/+iPTIVcF5d5PneXWotMTPhESZZcuXK/3cNl2Z4pJcg8LCRLkNKyUT2RLiFDKRsbWSBwJIsrx87FggWbBTkSw3S4hzmEwZmY4QuXPkhRfgk/Kw/JFHrHysT7bGPSFRQ9YmskoYA64sNULKQbt27ZRGDVvXqmRISJQxmTYyVckSJiQd6jdooDRsmIpt2i3iPHXq1FH6e5iKyqkkq0KcSmPNmkelZwcVKljfZISkRIZlfdu2ez/S3DN3biDllpNRg7w8WEKcQz5lhS7c63fdfTd8opPeffoojR2GZA5UQpzDlhODjAc1iA1JnIuLi2EJcQ4bSvY0adIENlJEaoEPSZxr1Kghr8KhTna29Ahxi+rVq0kvHLKysryPPvoo9CTL5SVyuyS79+5FmVd5FTx1s+tKjxC3yK4bbt/euWuX9IhxFixcqDwGBCUE27909Ch8Qpxhz959ftWqVZX+HpTuu/9+WBIk2GgK80TT1m3bYQmJPCtWrlL6d1DCPXxDr17wSRjIxg9FOEM/7bbp8AmJLLfcMtbPzMxU+ndQ6tGzJywJk/bt24c6Ix0ydCgsIZEjzLBB3LNt27aFT2ygVq1aypcUlNAZGIBPokbYgfXyniU2kZ9foHxRQapuTo7/7P4D8Amxlh07ny4ZwEKTjEcltvHaiROhru1AyMe4avUa+IRYxwMLFoS69AXhHj32yivwiY0cf/XVknyfoQolToQlxBp63nCD0k+DVlZWFsMDo8Cu3XsSX5ZwQxXSimF2LHxCQuP5F1+0YmKBksxYShA+iQIvvvyyFeVFEAZ1x5w58AkJnFtvnRT6EheEe5HlPSLI3n3PWPELjDWobt26wSckEPAEZEtVCDwV7t6zFz6JIvjybCl4hxyJj6xYAZ8QY8ydN0/pe2EJ9x6W14RPosyhw4f96tWrK19wGMJA2rVrV/iEaAcHT2xJXo57Dvee8IkLPPrYWmsGUgiPOJs2PwmfkLRBWJ1NlTpxr+GeEz5xiaPHj5fUjLdCWCtllnySLgUFjUKP/bxcuMdwrwmfuEphYaHyxYcprBtNnzEDPiFJg533SpUqKf0pTMl7i8QBlGK16dcbwiP+vmeehU/IVXlqy1arHt0h3EtRKW9MNCKLYVmnDh06+AcOHoRPyC/sfHqX36ZNG6W/2CAWlosxyKWI8+7CtUrYYR08ZAh8Qrw+N95o3ZMThHsH95DwSZyR9a2tFMo13DR4MHwSQ3De3abN0CvF2vDkFzZsfNzKGWmJsuvWZYeNETNnzQo9Xd21hHsF94zwCfk1NWvWVDqMbRo/fgIscRBZJcFqyXuEkKvTsGG+0nFsEzryqFGj4RMHGDpsWCLLkXCtlrw3CCkbLOTb/HhfImxA9evf30ceVXFNIsQLL72UKNJmyzHNawn3Au4J4ROSPA8vXap0JluFoGuUJ1mxciWuicUsWrzYz87OjsSPdInkvUBI+UEW7kaNGiudymZhEwobEzx6Zw9IjIzy2rVr11a+L5uFvs9M9EQL3Xv0iMRj15VCeMyDDz0En4TAvffdZ93RzGSEvo4+L3xC9PHkU1sisfhfmpBVB4mhly5bhmtikAULF/qdO3e2Or7zWkIfR18XPiFmQMbwKM5KLxc2NHCMUPhEAxh0MHAKN7JCn5bZ8AkxD9a3hIm0cIwQM9QmTZr4Cxctwt9IOZg3f35izRDJQGw8klleyT5NSHAcPHTIr9+ggdIZoyoMBMhNibPQj61dh7+Ry0Di4xEjRjr1nUP4POjLwickHHr36ROpcJXyCJsiiA/ctn0HrmMFKg9gc8XV7xafC31X+ISEDwKn8/IaKh3VJSF5NB5fkRQDIVRbt23H350Aa5q3TZ+RWCvOzy+I5I56eYSTRygrLnxC7ALrSrYlzA1CeCQcOGiQf9/99/t79u7D36wElSexlolTXjm5ucrncF1YA2cVBf1kSEs00rp1a/+dd96RV/EiIyPDE4+Knpi5epmZmV5loeuqV/fatW+P0iyemOl5+QX53uyZM7X2PazrffLJae+TTz72PvroI++Pf/ijd/bcWe/Hixe9CxcuJHTp0iXP9+M5hhQVFXl/+MMfeL8bgI1qiI2PP+E/vXOnd/r0J/IvpDQw6FatWjUx4FbCwFtZDLzCVq5cKfE3DHoXxUB48eKP3oWLF372xYAI+8MPP8R2UEyWgoJGnnhC8B5+6EHe6ySaTJ48JZaP+FS4Qp+bOu02+IS4gcxQT1HGxdIyxFmeeXa/X1RUpHR6itIh9K1n9x+AT4jbIAYxqmerKfuEvoQ+JXxC4sXadev9Vq1aOXFskApW6DPoO+hD4pqQePPUlq1+br16kU9sQpkX+gj6CvqMuCaEXA6S97Zv3165cSgKQt9AHxE+IeRaHDp8OHGumaFRFPoA+gL6hLgmhJQXWSCMiqH69usHSwjRwR1z5iTqJwmXclgoOHjnXXfBJ4SYYMvWbX5hYWEimYS4pBwQvkt8py5lxiIkEqzfsNFv1qyZclNS0RC+uw0bH4dPCAmbcePGJ25KxpzaK3w3+I7wXYlrQoitjBw5ioOpRcJ3ge9E+ISQKLHvmWf9CRMm+tnZ2cqNTZkV2hxtj+9AXBNCXGDSpMl+g7w8Pysri6ejNAptiTZF26KNxd8IIa7z+ok3EuU8cP6aA2r5hTZD26EN0ZbibySmMNs1SbBj59P+3//d33kffviBd+rjj72v/vxnZo2XZGRkeHWys73GjRp5zZo19/oPGODdf9+9vHcIIddm7rx5fr369X81A4uT8NnRBsIn5Krw15QkDZJfnDp5yjt16qR38uRJ7xR06pT33Xffyf8iWmRlZXmNGzf2GhcWJoroNW4sVNjYmz5tGu8LkjTsLEQLSJDx1ptvem+99VZigL1w/nyiwiYKyv30008JBbU8gMdvVBy9vOpoZpUqiYGyW7duXrfiYu3VRkl8YUcigfDaiRP+n778k3fmzBnvyy/PCPul0BfeN998453/4QfvvBh0Ub3z/PkL3g/nhRU+rgGqgVYRqlpF2CqZP1+LQRF/q1WrlpebW08ox8vJyRU216ubU9cbP3Ys+zYhhBBCCCGEEEIIIYQQohXP+//SRXyL5KHV/AAAAABJRU5ErkJggg==;outlineConnect=0;dashed=0;html=1;fillColor=#D2D3D3;gradientColor=none;" vertex="1" parent="1">
          <mxGeometry x="40" y="770" width="67.04" height="70.02" as="geometry" />
        </mxCell>
        <mxCell id="4Rx-it21br4PG3s0Q3KG-79" value="" style="group" connectable="0" vertex="1" parent="1">
          <mxGeometry x="220" y="770.7700000000001" width="81.82" height="98.16999999999996" as="geometry" />
        </mxCell>
        <mxCell id="4Rx-it21br4PG3s0Q3KG-80" value="Internet&lt;br&gt;" style="text;html=1;align=center;verticalAlign=middle;resizable=0;points=[];autosize=1;strokeColor=none;fillColor=none;" vertex="1" parent="4Rx-it21br4PG3s0Q3KG-79">
          <mxGeometry x="10.909999999999968" y="68.16999999999996" width="60" height="30" as="geometry" />
        </mxCell>
        <mxCell id="4Rx-it21br4PG3s0Q3KG-81" value="" style="shape=image;verticalLabelPosition=bottom;labelBackgroundColor=default;verticalAlign=top;aspect=fixed;imageAspect=0;image=data:image/png,iVBORw0KGgoAAAANSUhEUgAAAXgAAAFWCAYAAABjO4bgAAAAAXNSR0IArs4c6QAAAARnQU1BAACxjwv8YQUAAAAJcEhZcwAADsMAAA7DAcdvqGQAADbFSURBVHhe7d0HnBTl3QfwZ3b3Gr0cTZqCKJYYAxFFETR5E01MXt/ESBRRIDbsSqwoMRYQS1AhKiooKKKCJqYYY6IxHB3EGiMISlWQ2zv69dt553/7rLe3bJl5nmdmp/y+H9d75jiO3Znn+c8zT2UAAAAAAAAAAAAAAAAAAAAAAAAAAAAAAAAAAAAAALbQ+FcAV7h1TaVe36izBp01veoaGas3vt/QGGP1xjEpMHJtJBxiBUa6MGyk6dh4FYQ1NnVwJ+RpAA6FAWwz8b1d+s6aRtaoa6wxphtfdRYzslyMvvJg7ZSQkdNDmsZCTGdh42vY+EZY01nX4jCbMqgjygH4EjI2KDF+WYW+qz7meOBWjW4EHQtCbObJnVE2wPOQicG0iWsq9Q37Go06cDBRYTm8rVHjRzMQeAQyKmR065pdekVNjO1t8H7NXDWq6beLhFjn4hCbOhhNPOBOyJjwjWtXVujbq2P8CET0KAmx6SeieQfcARkxwK5fVaFX1uqs1qieo4auFtXwi4z/dSrS2CNDEPAhP5DxAuamdyv1zfuD246eL1TQ+rYJswe/i/Z7cA4yWwCMWRzVqxoR0t2kVVhjc08tRfkDWyGD+dSEVZX61zUxVoe2F1crDGmsW3GITRuCmj2oh0zlI7evqdTXB3gYo9dRYRzQNswmYxgmKIKM5ANjl1To1Y3UUYrQ7gc047YkrLE5w9A5C3KQgTzusqXl+i5arAV8KWIEe5pcdQ+WUwAByDQ+cd6/y/VG4ystukWLdIH/REIae3E4OmbBPGQWH5j0blRfu19nbSKM9W8dYh/uwWQlP2tXGGKzsVYOmIBM4jM3rozqm6tRhQ8CKrwLTuuCMgwZIXP4zC//Xa6j/h4cVIDDxv8OKQmz32GoJaRAhvCRixaX69XUEA+BtRA1ekiCzOAjVHsvChs1OiO9H4E+0BDogSAT+NS5RrDnSQio4rDGnsdyCIGGi+9D5y0q17H0DCQg0AcXLroPofYO6bSO0OxYBPogwcX2sdtWR/UNBxDroRkV+AHtImwyZsYGAi6yz6E2D5mgI9b/QvwrAAQM3fyvWF6BCoCPIcD7XNsITwCkEa2NsZGL8JTnV3hECwA004AZtETxcxht4yuowQcATWUHyIX2FBiJyoCvIMAHQI8iRHgwh6I7PfFduDiKQO8DKPkBgWYasIqCA1ar9DbU4AVdvNRbNZwiXGmwKFGb91peh2Yo9gJGlUX1vfXeyvPzhnfRClEXAwGU1ynP80PwEAR4i0Yuiur1sXhen7Ayql+/wjsZvwRDJkEQ5XnK+/wQPAJ1OpMuWVah76lLv5WGV2YEji4r12uxGwhIal8YYrOwZaAnoAZvwujF0YzB3e25/JbVUf3SpfEO1gwfAcASKgtUJvghuBjuwjnkGn0SMc7giyPcXYM/f1G53oDiCDbAejbuhouTwfhlFXplfYzpOQJj9yKNzRjq/tl/GCYJdtCMnN+pIMRmosnGldBEk8Y1Kyr0CuMxNFdwLy30RnAnVNOirfwAVKIyQmWFygz/FrgI7ropaDhYYpRMLl59PEVtHuxQENLY/OFYy8ZNUINPQtOzzQZ3L8MKk2AHKjtY4sBdEOC5Xy4q12tMbmRKJ83LnUu9S+Jvvb0R6OlzJF4lyA0gicoQlSV+CHmGIm2gJgsrFXevjza8a3D8MZo6yJI9NxwjIkAelSU0A7pD4AO8aEa8c423O5WObquxp09BQAf7IMjnX2AL+KT3dulr9zbwI2vopHl5lb0bVkT1h086uDPs9nej+mf7USZBrYHtIuwebPKdF4E86RON4L5eMLgnUPv1rGH+qgGPXVyuH2jkBwAKDTCC/BQEeccFrolmwqpK6eBeEvZfcCfFigfKozRDApU5Knv8EBwSqAB/7coKfWuVfBX1uVP92XY982R1n8uosLGBbdGHD82o7FEZ5IfggMCUQMpY26vlx78cjaCV0YDWoW+GXc42nnCqTA47heCgMogg75xARCt6NFQR3Mldg7HmRjq06NqUE1qemy1VKMdwMCqLaK5xhu8DPHWoqmiWCQqrW/tRRKcae7oVNVGCIRMqk1Q2+SHYxNcBnoZCynaoJgvCYl20tR9PmtKTz4pNhTHQkAuVTSqj/BBs4OsALzrOPZPCQDRoMdbKwp3s4ROxuBSIU11GoSXfhiw7apDhgAT4uad20ToWiMftC8pQewfz8LRnH1+GLNUZJhHq+mRojvCjp04p1eiJhT4xTeqiphiznx5bA4JVCPL28F3EopXsVK74SxXZ+SO6aCONDOjl5QlUSS2IhxRr7FG+7MFNq6J6RZ3O9uGpGwSEjFz0ssu3v/QaX9XgaS1q1cu592sdz28I7i1R7Z5GzySCO9lUheAO4qjsYj15tXwT4GknJrPruVuBPqBmd6yp0MM8nDegGQZsQGWYyjI/BEm+qJXSfpA7auyJOIe20tiDQzBS5NoVUX16mhUoE8YtKdf342YIinQvDrEZJ2FSoSzPn8Dxy+IbZNuFmiF4ErKgPoo2kfjkJgR6UKFzYYjNPBlBXobnm2gq69FW4AbUR/HMsC7asz5cZRPyA2VbnqcDPI3o0NFa5yrUVMOT32gTZqx1EKYBg1JUtjF8Uo5nA/xo9La7UmrzDC0b/OypXbQ5Pl1iGeyHsi7Ok4XukmUV+h6bZ9PQicHQSPOopkUjbFIHMqX2YaBGBiLaF4bYLLTHW+bJGrzdwZ1QzRPMoQ5W+krjmKkphoI6vdKdww4FPAFggRNl3o88d0ccuSiqO9HwjtEz5p1nBPiXTJ6vUYvK9XrU4UGApmlswQgMWbbCUzV4mgBhd3Bva9Q6EdytMRvcCYI7iKKyj0lQ1ngmwF+yNKrXq16HIEX/1hqjoX78EGxgdUMRgGQUAygW8EPIwTPFbY+NVT86CVRrn3oCHv/sdMWycr0WTakgyc5Y4DeeCGjUiWfXJaXg/jKaZITlWsKAnLeoXMf+26ASZTiMcsvN9TV4Wl3OztiA4C6n2kTkRnAH1ShLYeXJ3Fwf3OwaNx0xPnm6jaIht9Rr0rWQscdOTn8uMe4d7IQBEdm5+uTY2TSDjJHZuMXlOi3O2WCcfBpV1Dqssf3GQZ1xTMuDpLsmtBxB16LmU0p/96savekrgF0ox6GpJjPXnhh6/LJjfXe0uTN29fKo/vuhpdqtq6P65qrmIFxinBwK7IjJ4CXFRgXk+VMxQCId154Uux7tg1xzv25FVKdaNYDf4Ik8PVd2so5cZE9wD/KKhqPLyhHcwbfsihle57q73hXLK/SoTYOlg3iXv3JZVC+nxnMAnystCrEnhmJBsmSuq8HbFdyD6MZVCO4QHIgdB3NVgMeQOrUewl6yEDCIIS25JsDf/t4uXBgAkIZY0sw1AX79Xnt3ag5iVfaOdzHTD4LH7ljiJa4I8GOX2LscATmsVfBC/Lr9iO8QPJTrKabEj4LNFQH+gAPTHe8PWHs0bcLBkwCB40RM8YK8B3gsGGSPvq3RvwrBhtjiggBvx3IEYDyxnFCq9SxBkIfgQmzJc4B38g5786rg3c0fORHDJCHYgl6Lz2uAd/IO+2U17uayaKkH3DHAS4Jei89bgHd6QgImdMoZ3CHEphxbxM7rFeHfAfCGIE9+ynsbvFOw2pycw1prrG1EYyO6hFkftO0DeEJeAjymE3tHSZixq/sXsDO7xWvuhSGNDeoQZmHEePCQoMYcxwP8r1dVOH6iuyftNBQ0fSUmeBUYf/WafgVNAT2kNf+eM7uH2Q2HFwRy8hh4Vz5iT745HuC/qnZ+xbcZQ4M7msTKgmOUGSiok0Lj4KweYXZku4MX0ada/NHG90f2KuDfAXC/fMSefHM8wGNoqvPMbnTyw25h9pujCtmZxtfrjBr6T7pHso6a2VqF5VnBO4IYexwN8HZuop1Jz2I0I8w5tYtGbenZUJv6dzqEWc+SUFPN/Ki2LZtlUtHwsze+xqJO4B0UeygGxY+CwdEAn48z+8hJ8SaKUYvKddpkuumbAfScEeR5Mi1qmmlvocVle43O9iO+g8cELQA4FuAvXpbfDo5641+fekKwZ3a2yzKEvVeJxjolGuBNWFrR2HROAbwm37HISY4F+L11zrfXDmzbHLDamGyH9rN9GWrcEeM0jepdwCIh8wH+xI6hbzpkATKhLEKVh+4uairNRyzKF0fO+nmLyvV8dHBgclOzX/67XM+UrX/cLczO6VVgKTPous7uW1fHNhxANR4yoz6wRDMpGV1Wrrth61Tqc3pphP/jgyM1+Hz3Xt/+bvDGvyY737jBZipTbSM0HDL7aJl0NE1jP+xm/e9BcJQWtgzuZN5wdwTVoIyosT3AT3LB/ogVAXokS0Uz+GjvAypVvY1HZVpmgNriaehkhwKjEBZp7ICFzlK6mLUxnW3Y38hmbawPXKcVmEP57YmTD+7zum6FewY6uCE22c32AL9hXyNPgdN+vbK5MH23Y4hNGljIfnt0EXvoW0VsyjFF7D7jdcfAoqYgb5rxG//wZQP7/ef1WMANMlqQoXn0qxr3ZJogxCbbA3yD4yPf49D+ztgWvkRyn1YaG9u3uROVvrYt0FhRWLPcxLKpKsZW72pk2NcYMskWVKhc9mutOdM2nEO+YpOTbD3PY5fkv+374iXBXGRoHP/cNNJldO8CViK5OliNUdl5aH0du/+zOra7nn8TIA1q+suGdht72SUVMDfEKDvZGuCrXdCTQTXNgiwzMv1o/LKonpiENLw0zKjGJKs4zNjpxu8KcHcG5NDKyCNUQ3/ylNzB++rlUX1QhxAb2inMftA1zL7dPpSXFUrdEKPsZNspvX1Npf5ZmjYuGl7HYkaU0GPGf/TVnhP86hm9tbtWfKl/tCfWlObfDoSL/7VN39Ogs7N7RJoKjyrv746xWZtaVt/p3km1hJhxGf1dVCAb6sB/ZHgvU+XsxiXb9OPahZvWPkqgesMr2xpYWUWj2pBgZFAtZORQzXgZX2n0V6oj2obZ5MGdfBkjbPtQyevO6EYwb9j5Favd+F/WWLmT6Q11TK+Pv1jMno6OjoUa21evMxpB0iaisSJbn1XchSol+4wP3kHxTKRq41JVpdR4qNZFK09SE47KcgneQ/ktVy2csg/lISqTqT9K+We3UWapsqBMKMy0gsL4K1LIwp26sqLDjmaRrocYwT4eFOh9ZOoU9jrbPtQv/rVDb6z4mtV+/h9W+8UnLLZ/D/8TAID8CrVpz4r6HcOK+h/Lwp27sVe+1x0B3qwbyrbq/33zT6xuy3rjlo3hFgDgUuEIK+wzgB19xtns4eH+a8pV/oGeWvhXfeEbi1hDTRX/DgCAu0WKW7FzfzSCXXbuT3wV5JV+mDsfmaWXrXqfHwEAeMvwId9hd11/iW+CvLIPctnE+/T1m7bxIwAAbxpwaC/21JTbfBHklYwtuWLSgwjuAOALFMsopvFDT5MO8BMfnKmv/XwTPwIA8D6KaRTb+KFnSQX4Oa/+TV/54Sf8CADAPyi2UYzjh54kFeDnvvo6i9FsVAAAn6HYRjHOy4QD/P1PzvNFGxUAQDZejnXCAX7Rivd4CgDAv7wc64QC/KRpT+nVtbX8CADAvyjWUczjh54iFOA/Wvc5TwEA+J9XY55QgK+uqeEpAAD/82rMEwrw9fVYQAwAgsOrMc9ygJ/82FyMngGAwPFi7LMc4KO7d/MUAEBweDH2WQ7wFZXYuAMAgseLsc96gN+NAA8AwePF2Gc5wFdVYwQNAASPF2Of5QAPAADegAAPAOBTCPAAAD6FAA8A4FMI8AAAPoUADwDgUwjwAAA+hQAPAOBTGv9q2umjrsrLgjutSoqtv1lDQ2OM1dbV8SN5BZEwKywo4EfWHVA8WaK1cV5E1dTWscZYrOnz0OcSUVVTy3RdXZYQvc70OejzqBIJh1lRofx1DodCrLiosCktwg35ha5uterrXGxcZ5ELbag2rnO+9oJ+Z/5jgu86PzwT4GVOrMr3PPacH7Mx55wl/F4uvnWK/sWWL/mRnH59erLZUycKv5fzr/2NviNawc7+wXB2/bhfCv2eKyY9oK/9fDM/ktO5Q3v2yuNThD/P90dfo6sq+LLX+XsXXG3EQ511L+3MXpx+t+fzyyXG+/hc0fvo0K4N++PM+4XPyZgb79a3fPU1P3KW1wK8Z5pops9ZIByk+xzSjafkFEQiUoWefG/oYJ6SJ/u7KLiT9Zu2Nn0VMeiYI3lK3tk/OJWnxBxxaG+ekkM1d5nr/OizLzcFd5I4x6Lckl++dWR/npJ32omDeErMzopdPAW5eCbAf7R2A09Z9z+nnMBTcqj5QNYFZ5+h0Y1CFv0O+l380LLfzZr/zQ3z0w2beMq6S887W0mNprAgwi782Y+kftfxRw/gKTm9unflKTGLVr7PU3HJ59oqt+SX6wSf8NKR+V3PvvJXXWVTnN95JsBv3b6Tp6yjwBERbGNOdvKgY3lKTutW8jcK2d/xyfqNPMWa2lanzX5ROAjJ9AMkyAZVcvmonykJQgP79+UpMfuqqngqLvlci3BDfiGHdCvlKXGH9+3FU2Je+0cZT4EZngnwdfX1bOYLf5QIQiU8JYYix82XX6gkgJxw3NE8JU72d2xNacMsW9Wy1mnFGcNP4ilxRxzWh6fkqLiR33jpBcLXefaCv+gNDY38KC71XFvlhvxCvjf0uzwlTvYpa+/+AzwFZnhqmOSf317MU9Z991sDeUpM317deUrexCvHSN8oZH7HjLkL9YbGlkHoQJX4aI1rxpyrhcNygfWW8WpunmeddjJPielW2omnxLxZtoKnmtG5pnPODy3Ld35JuHjkTzUaXSTjqgt/Ifw+Hnv+VeFzGFSeCvA0VEvUHVeP00SHZZHjjzqCp9To00O841fm75LX31nKU80oCD390p+EC1CPLp15yjoaPaPK9b86T6OhiaJOO0muA7C8Mv22bunOuRX5zC/JZPqhZIYXk3c//pSnwCxPBXhCIxR40rKe3cTbeVV2MpHjjxG/Ycj8XVJbV89TLb2xaDlPWdevzyE8ZZ3KkSKku+DNhm4M4yXa8e+aPjtj3sx0zs3KZ35JdtxA8dE0pw+Vu3lu2radp8AszwV4mbu4aPufinbdVDcYNU2etEzm7z48+6WMQWjXnn08Zd1d118q9J4oqF554TlKb579+/bkKWtkR0nlGm6a7dznkq/8kuqeCZcL/a6QcZ1vHX+R8Pu443dPCp+7IPNcgN+2o5ynrPv1JaOEMtiw736bp9QKhay/HZG/k2x1jhvknY88LVyQRGZslpQU8ZQ6ojebI/vJdfR+9XX2vJnr3OeSj/ySTvcu1vspunXuyFNiPly7nqfACs8FeHLjfTMcu5tTw/2d116svpQYThl8HE+ZJ/J3km3fGeWp9DZs3sZT1om0Xx+paPRMKpHa+IO3XSN8nX/76KzE3KaMcp37XPKRX9I5/mjrTT6H9RZvwiNV1eL9b0HmyQC/TmJq/NBB3+Ipc7p06sBT6t19w2XG/cN8TKGfpb/DDy379eTpOW+M23eKz7y85fILLX0e8tDEa225eQ6zGNhKO8pd57JVH/BUdmauQSZO55dM6DrzpGmTbxwv/D4eevoFZUtQBI0nA7zMAkxTLGa0vj3VDY9Mp7Sj+REkVn42nXUbt/BUZlQNnTTtKeEgVFJsvsmlU4d2PKXebVeOsXSvkR2fnbP6zpm5Btk4mV9Uke3DemvpuzwFVnkywFNhmvL4XOEgZKW29sCtVyuvASU7tFcPnsrNys+mU23yxrjsvY95yrreFmakfkfgUd+KkmLzzTS3XzVW+DpPfmyO6bxo9hpk4mR+yWbQsebXIJLtw1K5GmzQeDLAk3dWrOEp6/r2NDcuWGY8tVlWbiAyN5u7Zzyjx0zWMmUeh2dOvsX0e6S5CTxpi66SHXtmvfvxWp7Kja4BXQt+aJlT+SWX31loWpPpw7rJwf42P/JsgE+dDm6F2Xbfk44/hqfsFQ7nvgxmfiabZWs+4ilz7pEIQm1at+Kp/Hr2gTtMXedjj+jHU2J277U2vNTqtUjlRH4xw0wTm5Umu3Q2Yuy7FM8GeDJh8qPCQcjMlOt7JTqGrDjhW7nXCTHzM9lYnWjz3ifreMq640wsLTuwn9yCXmaZGU0z47e/Fr7Ol028z3IelJ305ER+MaPPIbn7p7p0knuKqti1h6dAhKcDvMzMtu/kmN0nswuPVffdfEXOAGPmZzKZcK/1G+Huvft5yjozIyaeuPdmR26eudYxb9+2DU+JEZ2XIXJNEuzOL2YNOe4onsps7kOThN/HlZMeFD5HEOfpAC8z8zJX+6SdwyPTyXZDkb3ZbNz2FU9ZQ7v48KRS7dq05in7DcpxI5fdDKamVmx8tug1SbAzv5h1/v/+UKMZqpnINs98+rn4PgUQ5+kAT2SCULaC8KMRQ3nKGdmCnmxAFK2N55qZmU22xcdU7bBlxsiz/ifrjVxmlVHqADTZb30QmSckYmd+sSJbc9wxAw7jKcgXzwd4mX0iMz2e06p3VDvhh474yfeG8dTBsv1ZLmNvukf4BkibG4ua/2jmfUhVbvNnxiFdM29UcdHPfyx8nd//72c8JUbm2tiVX6x6eNL1Gc+fyIzXhFvuf8yWp8eg8XyAJy/95Z9CmeGMEek3qjj68EN5yjkX/uzMtFuz0ffoz/ihZZu/3MFTYmTailuleUSn2Ufjzv2JozfPFx65K+2/d/Th4jXMua++rjc2ys2ulLk2duUXEbSHbToyWwTKbNEJzXwR4Fd/JLaI07hzzkrbhqhyeVUrjkpzY0n3PbPm/+kf0rWgDz4VX+SpV5p1yO1aeyaXdM1xj919o3AAWvWhmrXJZa6R6vwiqnWrg3dL69i+LU9ZN++1v2PfVUV8EeA/Wf8FT1mXrrY+RuKxXUa6mZ0ysz1lVy8k1Mg8e8GfhYLQt9KML3dq9Eyq3ik3G9nNJzZ/qWZ8tsw1Up1fRP1w2Ik81ewXZ57OU9b97Z1lPAWyfBHgaVzxrJfFglBqgWiTpjbilLG/OOug4Jfue2Z9rOgx992PzM/UTHb1mHNbvPfCgoObFJySWrNt01ruOsush5RM5hqpzC8v//Ut4SeJy0f9X4tF0Og6j5JonqnYvZenQJYvAjz5x+JVPGXNr0b+tEVG/PkZp/GUGJnVAknbpFmgyWmrnpz/R71R0Qp8m78Sbyvu3aN5bZpWkhuf04YZojfy1E0vRgz5Dk9Z94srb5O6xsnoGtG14oeWqcovr/79HZ4Sk7yWfurTkhULXn9bpw32QQ3fBPg9+8THxCfaEKmDSrYD8KN1G9jj88Q3B/7p95tHQCSnrRK94aVDe+HO/7NYW3HyTvynniC36BSd2w8kRq4khm5Sv8u1Y0e6poYpc61U5Zc9+/Y3dRzzQ8uSn4SP7C8+S/kfi1fyFKjgmwBfV9/AXvjTm0IZ9Cenn9L0tWf3Lk1fRdGm1bRGztvLxJc3vfS8s5t2rqcXpfm3Ldt3oIqn1HjpL//kKWuoySCxLMSEi8+Xunlu/eprtm3HTn5k3fdPOaHpaz+JzSdEnyCykblWKvLLy6+/ZdSaG9ia/4gvT3HZ+f/3zb9906UXCF9nmWHPcDDfBHjyZtkKnrJm/AU/axpyJjvC462lq5u+7pcMrnSjkbnZPPeHv+n1DQ38SA2ZIETrwfTrI7ZPasIDT85ranLas+8A/451F4/8aVMwzLVMRTZ27OxP14quGT+0TDa//KMs/gSxVmIjHdKquFhqBc+HnxHfsxbS81WA37pdvHbXo2tndusV4psCk8TsRKoNLTBqRU0HAvr37dX0EvVmmT2PuU++KNZWfPxRA4xHeLkNNd5YtJynGLv+7oeFzy3dbK4cLb7J97ov5DbsyETmmsnmly+2xmvNdKN56sXXhM/tD08dwk4fOpgfWffxus95ClTxVYAn9898XiiDnqhgaeDkzqE3JdpVJ109TqMXP7TsK8m9PzNZLTia5q4bLtWuvqjliBoZH0kEgsEWNqpINfWJ54SDXy4y10wmv8yYu7DFZ5JpXrxu3C+18aN+Jnydt0lU0CA93wX4TzeILVAkU6sjl90+tUVB+SJPbYn32RiEvtgiviG3jHtTdkwSXgDG8BuJzSeWv/8fnrKHndcuk9Ras9W17VWZMXeB8mZF8GGA3yrRCSdj/catPNXs98+1rB05QfQGZwbF1bunz3b8M63+8L881Yw2YuZJxxyoruYpe9h57TLZkjIElpoX8+HPby/hKVDJdwGetpt78ClnC/8T8/6Q9t/7eK3zbYrbbWqeSZAZaSFq7/6DO1Y/lFhCQQQNfZVdeyYXu69dKhp1Vptm85FLBTYxkSWzQxtk5rsAT5I75JyQab2WLdu/5iln3PfEXL2h0d6CcqDK3lpsqtE3/DZtsBHdaEOUE+Oz6drRNeSHtlv4+ts81dKGTc42xU2b/aLjN5Sg8GWAl2mjFUHjs9OhBZNeFJwgJOKd5e/xlH1oqOKjcxY49pkqdmfess3JNmuZ4ZlWOHENE/akeTJKePx58cl6Vtkx9BTifBngCY2b5klb0SSR6iy7+rz693/zlP2c6qR6Z7n4SAursq0quOqDT3jKXr95+GnHgp1T1/DZhX/N+pk+dHC53u07K3gKVPNtgBddQtiqXDM8s9VAVbJzCF8qp2qzl09sOTIp1YEaNQt+5bJ+08Ed6HZy4lqu+U/2Ia+pna92uU5iTgPk5tsAH921m6fsZWbrtTmviK/xYVauAqva7Q/NtP0zfZYjsNY7NOLj62glTznDiWu5bmP2CVv05CSzwqRZWJrAXr4N8OTKSQ/YmkHnvmpuerkTBTa6y5knhYQNm+3tiJs2a76pc3vVnQ/Zeo1vfeBx3ek+HbuvJbWvmxm18vLrb/GUfaoULbsM6fk6wG/O0PmpitnAvfYLuTU+chl/x/3ORiBDeaW9T0gff2ZuE5e1Nu+8v/qjg8fgO8HOa/rOSnMdubv22Dvp6e4Zzzh+8wwaXwd4WubWTmYnplBtaabEmt+5ZBrFYycqmBMmi+/XmovZaeuxmC68iqgZ9Pvzwc5rundf7mbFBJklhHNZ+u6HPAV28XWApyB0x7QnbcmgtCiTlTHnby2JrzRphyqbb2SZfPCJ+Nrs2Tzw5POWzq1dw+zufGRWfqK7wa5rShvUW5mt+u7H9k1sy9es2SDxdYAnqz6w5xHb6qJMqtdnT7jtgcfzFoTs+offWmrt3G6xqbYrs7mICnZc238usbYI3jqbmhcn3Gvf0x80832Ap3HFL/75n8ozk5nRM8ns2oZshUNjwTO543fqn5CsjgWvtGkPz3RLJDjJjmv7xdaveMocuhYyWwpmsnGbtfcBYnwf4MmKD9SuArjwb2L7Rl56m9o1Pua99kbea0HvK67l3vvYs0KfSfWwzTE33pP3c0tUXuPUpYHNkllCOBOrFSQQE4gAv0lxbeGfgu3pqocWrng/v7V3onqY2xrBNl/VS/nurHB27HsmKq/xx+vEZqfSfq0q/ermya64eQZBIAL83v1q279lZjY+9twryjL3pi+dmW2Yy3nX/UbZZxJdj1z1cLtsSyQ4SeU1Fu2roM7Qha+/rewEo3nGOYEI8CTTqoRW0bKxPClEZjeiVE6v7JjJ7j1q2sDH3Xyv1LmdrmgRtGvvmqYsmMlSdY3nvfb3tEsDm/UPi52zmcy3cUgrHCwwAf7Lr9UsL/vhp3KLMKla4+Pcqye6pqDIBI5kOyQXnVK1Rrzb9gZVca0X/u1fPCVGVfOiU2tEQVxgAjxRMWlDNkDH1/iQH9UTrXR2aYJcVMy8rKmTaxbZ9OV2nhL35HzxTaftouJaqxgR9Njz8s2Ln6zfyFPghEAF+FUfytUenv/DG7qKtlnZJYSfeCH9DlL5tO6L7ItX5TL+dvkbBM06ffgZuc0j3Lo2ucw1z7TjmFXvS05s+/1zr2DfVYdZ3oD49FFXuS64mKVpGmtVXMSPrKOmCFU7JrUqKbZ+8rnaeuN9uHCLs6LCQhYJi9UZDigajRMOhVhxUSE/soYyNi1v4cb1USKRMCsqKOBH1qjKL1R+SozyI5pvqXJEG8Z42TvzH5PanN9pgQrwAAAyvBbgA9VEAwAQJAjwAAA+hQAPAOBTCPAAAD6FAA8A4FMI8AAAPoUADwDgUwjwAAAmRMJhnvIOywGeZmACAARNpw7teMo7LAf4zh3a8xQAQHCUdurAU95hPcB3QoAHgODp3CEAAb7Ugx8SAEBWz26lPOUdQgvnYMExAAiSUCjE3p43w1MLjRGhUTQFBRGeAgDwvxLBJajzTSjAlxRjJA0ABEe30k485S1CAf64I/vzFACAv9FGJ7Pvv91zzTNEKMDfM+EyraRIfGckAACvGHBob57yHqEAT0acNIinAAD868nJt3iy9k6EA/wtl4/27IcGADCjk8cndgoHeDLmnLOahg8BAPhN+3Zt2auPT/F0RVYqOo8958faid8+hh8BAPhDSNPYazOner6VQrr6PeWm8drA/ofyIwAAb6NRMz8/83R+5G1K2leeuOcmbcChvfgRAIA3FRZE2JnDT2JXXXiOL/oYlX6IOx+ZpZetep8fAQB4yzvzH/PV4BHlH+aphX/VF76xiDXUVPHvAAC4W3Fpd/bG9Em+Cu7Elg90Q9lW/b9v/onVbVnPWGMD/y4AgLtohcWs5PhT2JEnj2DThnRGgDfrF//aoRfv2cmG7P6ULVnzESuv3M3/BAAgnzQW6dKDFR1+HCvsewQLte3IXjm9q++CO7HtQ438d7k+sK3GbjqiiP19Rz174b3NrHbjf1lj5U5Wotex6to61lhXx1issennI8Y7aVegHfSG6mKM7WuIr05cFGKsDf2ggOpGnVXF/6mc2hr/RmGG7ueY8Vb2G++n3mMLJtNZa2+c37DCK06XJXE56HTQeaHrlYr+zXbGD4aMr7XGn9PPpdPReH/0M8alavqZ5B+jf4byh+DlBx+g8kvlOJcSI8O14tunRiJhVhErYLFIIdMKiliklAL7sSzcoUvTaBlC/19wWhdf5izbPtTtayr1/q0Y+98eEfZ5VYw9sr6+qcDqus7Ceow1xmJMN17GN5p+ngp2rxKNXdGvoCkYkIo6nd2zto7V86BRbFy0O48q/ObPc9ljROH/7I2xz/bH2Id7Yt/8nlzaFzA2/rAC1qdVPMpTnlpv/I61xmvNrhjbbfxeCvReQmfslTN623a9yZi3t+r707TIUTka2CbExhvXdvWuRjZvy8E/RD9z2xGFrKeRBz7dF2PPbq5nB1J+rF9rjT04rJetnwHc7Zw3t+YseWcZMefH3eIRPmrUIaeub2A1ulGWQ6FvgnqyI9qG2eTBnXyZr2z9UNesqNCPaKOxSiNQU6A1o9i4Dl2K4m+rvFZnNSl/rZNRi+tarDHjmjDj1zYFAbqrUxAuNf4e1b7rjOj7VY3OthsvUVTrHNg2xHYb/8gO4/eYrPy7Fj2RvDDc3lrKFcuiepQuSgYdjRtna+P6bKtO/zM9jOs6smeEvbWzkX1iBPl06AMkalu/NJ4SX/ZpzQvSO9e45jyZ0eVG5ey49iG2rKKR/dPISzuNOJIJTWh6eUSpb/OQrR9s7JIK/UCDyWoz2GqhA4Hw5lVRfWOV+E1VJSc+LzjvvEXleq5WmhM6hthHxhM7NQfm0joSYnOG+a9zNSFDS7Mafj5xXtK7xJnL4JbgDv710ojcN+7Vu8wFd+L3GGVrgCeRNG1e4Aw681STnXai/Y+gYxfnfnR2SqYOcvCHRAeqrCDEJtuLwuHUWA554eTIgDmndtGo/8QN7O5rgPyaa+Q1npQShNjkSEEw0zECatGIpIcdqLlnc1FZuV7tcBcMDbB60cRjPHibipgShH4aR+pcKsdeQ250uvMd3MlzRk06WyGiPygtjBc0evUols+QHQp4AiCLoMQkRwK8mY4RUIfG8btJdz7sNRU1IT1xcnPemH5SF42GPcpkluTfB5BJUGKSY62m7dDz5ZjOhe7KuzOGljbV0M220VPgp5+nZqZMHWptIsYr5c8ObYXYDrkFKRY5WiLQFu+MbM0ibnDt8qg+3Qj6/FDa6LJyvavxlKBytNCNq6L6liq96UbyzDA8FbjJ9Sui+pcSkxjdXj5UcvRWhlJirwLjBHsh86oM7mTecPVDQamNlkLIPiyG6jo0S12U6wuHYo5/XlqEDNV4tegi+nWxpHyipRBoEFCJUQ2iDuP4dyGfZFoBglhOHG+MwogategCIrjbI7HOjdNDPSE9aprhSSFBjD2OB/hDqDoEymCxrWb0dKi6n4eavGiZavq9oxahDymfZNrdSRBjT16CAzpb1ehUwNiTpyDAJ9y6Oqp/fkBvqrWovvEl51mqCSZiBdXuSws19nvF/QrQ0iVLyvU9kv0hQepcTcjbB0aQl0O1Supc5IfAJfKVHYU5Nc8mXwP6Mzou5u0A7SKsaVTPNcujGWfzzjoFNwUzJqyM6lszLDFtVhCDO+H1EPAaBPf0EieFmmt4UpnkE05DqVOvAa1gSJvM0IsCEgX9HbXx43QvVHJyG7e4XDq4B1legwQyuJjW4fjiXvwQUiTyFS1b8LSDTVhXG7X1r7NsLpEJ7VR1/wmozaei4L5fwU47Qa29k7zW4BOPs2ANgnt21DxCdtfHvzqF2uETnbJWfHFAb2pj5odgoJu0iuAe9BiT90+PWrx1Qa6RmJWcr5yuyRMacVNvIWfTm8vXcFc6V/nMU5cvK9cT+++a3ajDrKCXlby3waMWbw2Cu3V7HK7JE9pE3gq6F1CTRPwojpZg4EmlqH+CbkAU2BM3Qjv6LJLRpDH6t8bwz0ifLfHvV9bFA7vq4I7Y4oIaPElkMsgNAd685Hzl9HlTladVv+9sTxZ2nKObVkX1TSlbOdICclUO7GKPsuKSUTS00z6YQxtb8yTkcFieVpekjaF50nWyNRtdZMO2i6nBnTgR3BFT4lwR4OcMK8XOrSZtwZAx0x4Y0jwyxak9Y6nmnmvX/3y4YWX0m+aYTKqNwJtoQvEyuugUU+JHweaKAE8GJIY+QFbYPMWaxA5PB4zgNS6gI1WovXubyYqBE7VruyGWNHNNgJ88qCMCFyjXJulRfX+DvUH+YhfeQKhz02rnpco+MWoHd7q1BLGkmWsCPEGnCKiWujctBfkbV6rvx6CguNdFa8dfszw+QkXxwBQhtAm6UwUbMaQlVwV4Ump1lghADlTok0v9ZsX9GBfZNJyRXCewRC4Nt9xRyw8UkF2ml9AYf7sjL2LHwVx3Rp4Y2llDj2t6GBggLnUSkewYc2qOoRoyvexcL97q7kX0flTMAE2gTlfZZXoT2trYNE4xg2IHPwTOlbe8BehITKsPNpVWRmZSjdPNMWZHtqicrJS4eansdJ1t4962iBnpufaZBrPQWqLaDxakktO/dcvTZ7UWf8vq3EMN7eCHkS12QqzIzLUB/vlTMTY+WZ0bess8bqpxg6T2+ESmN1uLp8llFNhpUTA3szPOqbqxqW4mp49MsSJ+BKlcG+AJ9hptpnqdjiCzstsTzUrdmGY2ptPMzI6NOfw2RYacFigu0YgR2bk6wBM8fjW7cpnzzQN+lW189q/5rE96uWVWKr2PW3IsU2F3HYC2ROTJJjTk9HzjxnP5UvP5UmVFBbEhN9cHeDTVNCuv4wlQgsZn35A0BDAxnd+ty0Hke2ejxJK+yRqMt1RZb379HStLKGdDMQFNM7l55gSpagP0g9YRWmsDj6aq0CiVGqNm6XQTh4hME3noM9jdGdulkLHHT47/+xeWxc9ZMlolcm6WzWiotk83BBUwockc19fgE9qrbrzzMKpJ0bKv/BAkXLciHhhTgzvlNuoQpECSeMX/JL/SDYW8Ypn9wZ0kx/PU4E7oPVBF7Krlze8x0dRFL1XBHbHAPM8EeNqBvsDqLgo+Ro+649EmL+3Rk7poPYq1pklkycGcOu/cuLF56gWndvGoQ013kaTG0mxLMSf6LezYhpBiAMUCfgg5eO5EjVwU1Q38CNxSswwCtzQTJm+67uR7Ss1r16+M6l+m6RegmyU9ESnsT21CU9wXjEBwt8KTJ8stBc0N6AJiqJgz3JTv6NFbdQDNpXuRxmYMbRlg83mDgdw800STrH2hJ9+2LXCncwaNsOFJV3A6uJMdtfpBAb09X2/fbijzYjx7Rxy9OKrXunHrnDxB7cZeeGpsRpuoPH1Ky/xGnb92naCisMbmYUikEM/eFnHBW6KNHXgSFMO5bWl3PU8ksbOZEGVdnKefe6jWillQcfTITrVM2WVwk01YGdVpvDM/DCRajz0fzSFepDqYUNnGk6kcz5+88csq9AqsxNUCXdRuaTrEcrlxVXxURLrxysVhmjkYvMKGppn0aHXTZ1Im21E/hdm9X83oXBhiM0/GGu8yfHHyrllRoe9IN/Mi4Gi4Gk3H54ds7OJynTafTqClPGjIHTGzvnnQalM3GTe8TS5YaMyNKO+k2wBe1Q2xe3GIzTgJwV2Wb07gqLKoXu+FueY+4+egj9p7dumC/AVl5brsAzVNZpo/HO3uKvhm7BFlCKwu5zy/ttGr3B3Jr2gQW+qSGW0kt+WjMozgro6vBpfS6nJYzcBZfmwZo5o7ors5tGQGnS/qv6FjWkJYFJVdrBCpli9PJh6tneWnZhoaEonenPzAiBn1fFWDT0BGcc5hKfucehlVDBDc8wNl1h6+PqmoydvPDwWTVj3cI9G0AHIQ3O3jyxp8wsB2kj0+4HuXLUVwzyeUUXv5OsDfM6ijNgAZCDKgWb+70ky7B2dQ2aQyyg/BBr4O8GSKkYF6015iAEmoM1XlBtBgDZVJKpv8EGzi+wBPpg3ppPUoCcRHBRNojDtie/5QWaQyyQ/BRoGJetNP7IwgbwOvdWTTxBz0vOcPlUEqi/wQbBaoiEcZC8016nlpOV2amAP5QWUPwd1ZgavS0qMhOl7VouYOL9TkL7ZhE2gwh8ocmmWcF8g2C+rcwfAs9dxekzezYiaoR2UNHar5EfiTjslQavVvrbGpJ7hzPRFca+dhElN+Bb7XERlQrc8PIIZCHMpW/mFYiYEyIlahBFCDyhKCuzsgwHMvj+iC9eQBJFEZorLEDyHPEOCT0FrUtJsM+FMr5HZbUdnBeu7ugiyfgnaTof0gwX/mDu9CG/WDDajMYCcm90EkS4M2+6Ud3RENxIxz8Xhz3LvVojJCZQUbZLsTLkoOGFonxq2dbLSHrB+3GcwXdKa6G+ozOVAGLkLnqyVuPl0NuF0rQWUCwd39EOBNmHdqqdbeeAwFc15y8SiKGAK8NCoLVCb4IbgYLpJFIxdFdQM/glRFxn1w3nD3BnhaTRILjonRNI0tGIHA7iWollpEGRxDKTNzc3AnaG0TQ3kewd17EOAF0HCwdgXI66m8kJnQv2od5XUMgfQmXDRJtDsQnvjjOkQYe3qYu2vwGBVlHl3IBehI9TTU4CVRAcASB3FtXf5U46WNSfKN8jSCu/fhAioU9Nq8m4fNjS7DJttm0AVEYPcP1OAVooJRgtq8q9CsWmqWQXDPjfIugru/4GLaZCRt7hyw6jxtkjXbRW3w5xvXABObcqPlBhZgBUhfQg3eJlRgSmlQeIC4aUs8qrUjuOdGeRTB3b9wYR0QtJEb+WyLv3p5VP+6FpHdDCw14H+owTuACtIR7SKBuZteuyKatwiL4J4d5UHKiwjuwYCL7LCxS6L6gQC0HeQzgGCse3qtIxqbMwwTloIEFztPLlwc1Wsa/RuHepdobNqJ+QkmCPAt0Zh27LQUTLjoeebXQF8SYuy5PK1Lc96ict3H907TENgBF98l/FbrDBuvl/LUTIMaPDpQIQ6ZwGX8FJzyFWSCHOAR2CEZRtG4DBXQPq3CLGIUU5RU625dnb8RPPlAeYTyCuUZBHdIhQzhcl5e38bpdvhLl5bru+v5QQDQicXSApANModHXLysQt9b570FVZyqVQapWaZdYYjNPrkzyi7khEziMeeXRfUGD20sigCvTiSksRex8QZYgMziUZPe26Vv2NfIGlzegONEgKd2988P+DO+RzSNHd42zO4Z1BFlFSxDpvGBsUsq9OpGncVcGOyLQ4w9b3M7vN/GvYeMoE5L984ZhmYYkIMM5CO3r6nU1xu1erfFOruDvF+aZ+gEDTBq65MHd0K5BCWQkXxqwqpK/euaGKtzSXu9XU01Xq+9F4Y01s24A04bgqAO6iFTBcCYxVG9Ks9RkDa6eknxuuMXGMG9zqPBvZVxQuZiGQGwGTJYwNz0bqW+eX9+mnFU1+K91DRDH7xvmzB78LuoqYNzkNkC7PpVFXplrc5qY9RBy79pI9rgap6itvgLy8r1GhdPCwgZn7LI+F+nIo09MgSdpZAfyHjwjWtXVujbq+2Nmqpq8W6tvfcoCbHpJyKggzsgI0JGt67ZpVcY1eS9DTFlNfxCI8e9INkW74aOVaqht4uEWOfiEJs6GGPUwZ2QMcG0iWsqmyZXycRW2Rr8KCO41+cpuNMbp0lHUzCMETwCGRWUGL+sQt9Vn7umL9MO78SoGaqZdywIsZlY6wV8AJkYbDPxvV36zppG1qhrrNGI/I26zmJGlqMZt0506iajwE0zREPG80fY+Bo2vhHWdNa12KiRYxkA8ClkbHCVW9dU6vWNOqN9yelV18gYrQDc0BhjiaaZAiPXRsIhVmCkC8Px9dDpVRDW2FQ0nwAAAAAAAAAAAAAAAAAAAAAAAAAAAAAAAAAAAAAAAAAAAAAAAHCM/T8o8gnWufAWoAAAAABJRU5ErkJggg==;" vertex="1" parent="4Rx-it21br4PG3s0Q3KG-79">
          <mxGeometry width="81.82" height="74.42" as="geometry" />
        </mxCell>
        <mxCell id="4Rx-it21br4PG3s0Q3KG-82" style="edgeStyle=orthogonalEdgeStyle;rounded=0;orthogonalLoop=1;jettySize=auto;html=1;entryX=0;entryY=0.5;entryDx=0;entryDy=0;endArrow=none;endFill=0;dashed=1;" edge="1" parent="1" source="4Rx-it21br4PG3s0Q3KG-81" target="4Rx-it21br4PG3s0Q3KG-60">
          <mxGeometry relative="1" as="geometry" />
        </mxCell>
        <mxCell id="4Rx-it21br4PG3s0Q3KG-83" value="" style="edgeStyle=orthogonalEdgeStyle;rounded=0;orthogonalLoop=1;jettySize=auto;html=1;entryX=0.5;entryY=0;entryDx=0;entryDy=0;endArrow=none;endFill=0;dashed=1;" edge="1" parent="1" source="4Rx-it21br4PG3s0Q3KG-60" target="4Rx-it21br4PG3s0Q3KG-84">
          <mxGeometry relative="1" as="geometry">
            <mxPoint x="520" y="852.94" as="sourcePoint" />
            <mxPoint x="520" y="925.94" as="targetPoint" />
          </mxGeometry>
        </mxCell>
        <mxCell id="4Rx-it21br4PG3s0Q3KG-84" value="https" style="text;html=1;align=center;verticalAlign=middle;resizable=0;points=[];autosize=1;strokeColor=none;fillColor=none;" vertex="1" parent="1">
          <mxGeometry x="495" y="874.75" width="50" height="30" as="geometry" />
        </mxCell>
        <mxCell id="4Rx-it21br4PG3s0Q3KG-85" value="" style="group" connectable="0" vertex="1" parent="1">
          <mxGeometry x="475" y="1037.98" width="90" height="77.96000000000004" as="geometry" />
        </mxCell>
        <mxCell id="4Rx-it21br4PG3s0Q3KG-86" value="" style="image;sketch=0;aspect=fixed;html=1;points=[];align=center;fontSize=12;image=img/lib/mscae/BlobBlock.svg;" vertex="1" parent="4Rx-it21br4PG3s0Q3KG-85">
          <mxGeometry x="20" width="50" height="42" as="geometry" />
        </mxCell>
        <mxCell id="4Rx-it21br4PG3s0Q3KG-87" value="Storage Blob" style="text;html=1;align=center;verticalAlign=middle;resizable=0;points=[];autosize=1;strokeColor=none;fillColor=none;" vertex="1" parent="4Rx-it21br4PG3s0Q3KG-85">
          <mxGeometry y="47.960000000000036" width="90" height="30" as="geometry" />
        </mxCell>
        <mxCell id="4Rx-it21br4PG3s0Q3KG-88" value="" style="edgeStyle=orthogonalEdgeStyle;rounded=0;orthogonalLoop=1;jettySize=auto;html=1;endArrow=none;endFill=0;dashed=1;" edge="1" parent="1" source="4Rx-it21br4PG3s0Q3KG-65" target="4Rx-it21br4PG3s0Q3KG-89">
          <mxGeometry relative="1" as="geometry">
            <mxPoint x="520" y="969.94" as="sourcePoint" />
            <mxPoint x="520" y="1037.94" as="targetPoint" />
          </mxGeometry>
        </mxCell>
        <mxCell id="4Rx-it21br4PG3s0Q3KG-89" value="https" style="text;html=1;align=center;verticalAlign=middle;resizable=0;points=[];autosize=1;strokeColor=none;fillColor=none;" vertex="1" parent="1">
          <mxGeometry x="495" y="988.94" width="50" height="30" as="geometry" />
        </mxCell>
        <mxCell id="4Rx-it21br4PG3s0Q3KG-90" value="«Front End»&lt;br&gt;&lt;b&gt;RoomUx&lt;/b&gt;" style="html=1;dropTarget=0;whiteSpace=wrap;" vertex="1" parent="1">
          <mxGeometry x="150" y="925.94" width="140" height="57" as="geometry" />
        </mxCell>
        <mxCell id="4Rx-it21br4PG3s0Q3KG-91" value="" style="shape=module;jettyWidth=8;jettyHeight=4;" vertex="1" parent="4Rx-it21br4PG3s0Q3KG-90">
          <mxGeometry x="1" width="20" height="20" relative="1" as="geometry">
            <mxPoint x="-27" y="7" as="offset" />
          </mxGeometry>
        </mxCell>
        <mxCell id="4Rx-it21br4PG3s0Q3KG-92" style="edgeStyle=orthogonalEdgeStyle;rounded=0;orthogonalLoop=1;jettySize=auto;html=1;entryX=1;entryY=0.5;entryDx=0;entryDy=0;endArrow=classic;endFill=1;" edge="1" parent="1" source="4Rx-it21br4PG3s0Q3KG-99" target="4Rx-it21br4PG3s0Q3KG-90">
          <mxGeometry relative="1" as="geometry">
            <Array as="points">
              <mxPoint x="390" y="954.94" />
            </Array>
          </mxGeometry>
        </mxCell>
        <mxCell id="4Rx-it21br4PG3s0Q3KG-93" value="" style="shape=image;verticalLabelPosition=bottom;labelBackgroundColor=default;verticalAlign=top;aspect=fixed;imageAspect=0;image=data:image/png,iVBORw0KGgoAAAANSUhEUgAAAMUAAAA+CAYAAACbbd8qAAAAAXNSR0IArs4c6QAAF2RJREFUeF7tXQdUVEcX/rYASy92wEYiCrGgAgrWqIhEE41GjaixUEQsNAURcClKEQFBpCsIVmJJjPlj8NffqMGOoIKJiiVYgoLS+7L/ee+xy9IXFALkzTmek7y9c+fON/PNvLlz74OhpaXFB11oBGgEhAgwaFLQs4FGoC4CNCnoGUEjUA8BmhT0lKARoElBzwEageYRoHcKeobQCNA7BT0HaATonYKeAzQCrUKAfn1qFVy08L8BgQ4nhYaGBjy9vDBi+HAcPXoUPj4+/wac6T52IQTajRQKCgro27cvJCQkoKmpiZUrV2LIkCENoAkKCkJsbCyqqqq6EGy0qd0ZgY9GCjabDXV1dYwaNQrS0tIYNmwYjIyMoKys3Cx+qWlpsLO1Q3b2390ZZ7pvXQiBDyIFh8PBxIkTMWXKFHJHUFVVxfDhw0E8F7e8ePESZmarkZWVJW4VWo5GoF0RaDMpZsyYARsbG3InIP4xGIw2GUqTok2w0ZXaEYE2kUJNTQ0JCQnkmeFDi4AUubm5OPff/0JZSalZlZmZmfDw8MDt27fB59MBvh+KP12/IQJtIsXgwYPx888/fxQ8W0sKQaNWVla4dOnSR7GBVkIjIIpAlyXFX3/9hVmzZtGjSSPw0RHosqQgkNDW1v7ogNAKaQQ6FSmSkpKgoqIi9qh8CCkIx4DgX3V1dbufTwRtEZ0jzkL0eUjsYe5wwU5DipZcssnJyVCqdwgXlxRsCUnIyclCVV0TMQeioMSRaBTorKd3YWu7Ba/f5qGwoAC86uo2DggDSsoq6K+hBWdnR+hof9qonpxXzxAS6IffbqYjNycX1WI6DtiSHCzcsBVuZt+QeiuK32GT4xacv/h7m8nGZElgxORF2B+wGdIcSfCrq+Cz3QtHEk80ioOEhCRs7eywauUK/BTpAafgY63GSkapL+ydPWH65UR8t3AObqU/qaNDQbkXdkYcwiQtZVhYWCH5+u1Wt8GRU8YW7wgsmqENa/PVuJh8s0Ud3Z4Uir364OsFi7F8qSn69VBoERBCIPtlFqJDdyPpynXk5L4Tq45ASE6pD8aOHgGutx/6KkqLV7e6Ci6bN+HBwwf4I7Pl+xrjxZZwc1gLFTkpoX5+ZRGmTZ6M7Pwy8dqsJ/WZnhF8vNzw6YCetb/wefhypjEyX75qoFPf0BDhMTEQ9NDgM23kt9IZqKuri/j4eKHu+otc3wEjcOFsDdn4xVixaDFu1iNOs51lsLFg2Xp4OVuSYm9vHMWUlZ4t4tOtSaE0YBwc7ZZhnvH0OkDweFUoLS5AXn4RqvlAj549Ic2RBpMpctfCr8TZs79iO5eLd0WlLQJJCAwZroP5i1Zi2fwZYDGZInX4KCwsREFeHqqqGVBUUoSCgjyY9e52/kxNhv+eKCRfvdFse1u3bsWyZcsayJwKd4fLnkSxbBUVYkpIw8raDuvXNNRpNdMIl168bKDT0NAQMTExwuffDNdGRis31pZI0Vt1CH48fQKKMmxqUj+8CTNLazx+UyxWHxcvNwPX2aFGlo8DIe7wi/i+xbrdlhQqwyZh17YtGK8zWAhCSVE+dnhtwZvcSlRWlKG0rALE4iYjKwsJNht91IbBg2sPlshkvX3zOtaYrUZJVfPLoLrGEGz19MOEUZqQYFGEKMp7gwOxsbj7IBNl5WUoKy0jSciR5oAjxUEv1QFYvtIMWoP7CQfuRdYzbN7shLS795scvKZIwSvJwwhdwxYHvb7A4KHaCNwbjqGqvRrUtTU2QlLWP0MKCUlJrLKwwnprK7AZAHH2O3MsHu7e/ijjNT8eRnO/BXerA1TkZck+nTn5PXz8d+F9fmGL+HRLUjAllREcHIRpU/QhWPtjfD0Qf/os3hXko6mjApPFhoK8HJyDDuLLcRpC8NJSU2FqakoSqLFC1FvnFQPLuXpCQv2Zfg9mZhYoLClBZRPBjkwWCzLSMnAPDMUXE/WEqt9l3obJt5YoLG58hxIlxfO3RXj5vgSGmr3J+nFe32HnkVstDryowNjxkxG/P4LCil8BPkNSiNs/SQrCHAkJKbi6bcPCb74mTSYCR3cHBWF/bGyTfeypMRoeXl6YOlqD7MfD1BtwdXTA/Re5YuHS7UjBYkvCeqMN1pqvIgGorKhAdFQU9oaFNTmp6yMlJd8LZhtcYLF4OqQkWKgqzUfC3h3Ytf9MozoGDDXA2VP7hGqeP3kAkzkLxBoAgdBGv31YPXs8JGte4aI81mL3sd8a1SFKipTr13AvLQ3LLdaAqJqenorFi0zJHUmswmDAKeI8VkyiohPO7LLEnE1Rwqr/NClIQ1gKiIyJxqRxIyi7qgthb2OPs+d/b9BFCUkZrDJbB9sN1PiXF71DENcG8b+If0jvEFIQ7sf8/PwG3iPCaHFjn8T1Pg0cqgPfoHCMGqRIgnL5h0RYu7ijhd22AbhKA0fC33cHJoz6hPzt5pULcHVzQ1b2+7qyEhxc/P0mesuxyOf3U25i2SpzVFRWijUnRYXcQ6KwaMZE4SPjSbrIyi1poEeUFLeTkxF/7Ec4ujpDrZcSXmc9h5Ptetx6kClW+9I91HH7chIpy6vIh+EkI1y/Xnum6RSkAKCoOR1HY3wwsKccaevbRzexYvU6PMstqtPPJcst4OZsRz3j83F4305sDzwgFhYCoXYnBbHdBQcH4/Xr1zA2NibDyUXLxyUFA+OmL0DsnloPwzKjSUh5Kd62WR+5iUYLEOznCmmOFKrLC0BMxtO/XKgjpvfFUhzY5UI9472H3TobJF26JfauJKps0BAt7NoTCe0aD9DpBH9s8Wn4mlCfFNZWG7E7OgIG43RJV2pCbAz8AkLEssE1KAqmxhQREw9Gwtt/L1LT7grN6iykIAyaNHsRAr25kJWgXoqv/nIS65xcUVaTijNz4Qr4cp3AqfFxHIiJgl/g7lYRghBud1JERUVhz5494PF4GDt2LLy8vDBo0CChoR+TFCw2G7uP/4Lpmmqk/tzUY5hk6tFqUIQVmFK4+Ptv6K1IuXJDvLnYd+Q4KkW2nbDYg5g6bgz5+7Vzp+Dm5YeXOQVtapO4f1i7nnj1W0HWf/woA1/Npe4iREsDUpibw8DUHrucV4PNYuJhyv/g7OqOB8/eNmsHg8XB3XspIPe46kpYW1vj4qXfkZGR0SlJwWQy8e3S5XBxdhKeeU4e/x6u27hQ/GQCDkfvxOC+VP7Oj4fj4RsUjPwmzmXNAdPupLC0tMSVK1dIGxQVFeHn54fJkye3CymInI47aWkQOEONJujj5fu622trZ6vl7kOwnTmarPY86RBWbgtEdkHtATgxMZHMISFKeFgY9oSGtraJOvLLzM2x2d4exPXiy6eZMF84F89L6vo6GyNFEZOFlNu3ICUlRV7g2dnZIinpXLO2zHEKw84VU0mZO2fi4OodgKd5vE5LCsJOBpMFm422sLQ0I+3m80oRuy8MaoN0YDyTcr0/TLkEV1cX3H/WtjeEdicFEU1LDGJlZSVMTEzA5XJBpKoKysfcKQhSpKWlCXXrjRmD4rK2XWYJlUiOREbqUep/+cUwnjUPWTUuSgmZgThyMBzawwYBvFKEhQYgNPLwB5FCa9xs+Hi6QLO/Ekry3iDY0wEJZ+seEhsjBeFotAk+gTVGWmT7pyN94Rl+CCUVvEbtYbJlcDAhDjqjhpOvXFGRYQjeE0HKdtadQtARplw/+AfswqxJo4U7huC30sIchPpsRewP1ELcltLupCCM2r59O0kKfX19zJ49u46d7UmKMWPGoOxDScHqiYx7tSHqxLlIEJLST3c2ov22QqOfMqqLXiN0FxcRiW0fDAKYHp+ORaCfF/S0BoFXVogDYTuxK+ZEHcyaIgVHrh9u3zhPThR+WSGmzvwCb3MaXy11J5jAx8sFan1VkP3qKba5OODy9T+6BCkIIzXGmSBylxfUesjUwSYiIgghIdFt4YKwToeQojkLOz0p6q2coqRQM5yPyB2O0OijgKqC1wjx4yLm1IeRgt1DA6FBfpis+xn4VeU4FhcOz8BaFymBZVOkIH5z9Y+G6ewJJOTxIc7wjfixIfwMNuw2bYb5quUkgW5du4zvVq8RynX2nUJgqLHlTgTZzqntH78M2p9R57sPKTQpxEBPdJKIkqKvzixE73LFJ6oq5E6xx5+LyO8/jBQy/YYiJMAXhjpDwSsvRnxEAPwja17famxtjhQ6ugY4HE/dmVSWvMMo3VoXr6CrA4eNhZdfIHSH9CLdlq7L5+FkyqMuRQqGXB+cTDyKoYP6iIwgD8cDHLFt3y9ijGrTIt2aFLpjxqDkA1+fmNIjcf+24ExRCeNZs5GV9YJEVFZ1OBKiAjFMQx2oJs4UgQiNOPRBAzLUcDZ83V0wVF0JJfk5CN7uiISfr9XR2RwplNU04RIUhy+GU2m9zkun4cc7db+UMm3adISG7iF/r+aVY/gIypEgKJ19pyAiAWL374eeHhUFQIbhE6kARGjN+2z4blmDk5cftnkcuh0pbqemkXEyRFk8ayLu/dW6KNf6SJp7H4L9PGrSZN04i+/s3ZH9rtblKup9iooIQ8ieUPFvkxsZtm9XmsPRwR4cFpD94hlsV5ki7WWe2KQAk43lq8yxxWEjOUn+epSKL+aaQuC/kuDIwH5HBFaY6JI6fwy2gHNk3ZvhzkwKWTl5ODhtwaIFX5NexqL3f+PCxXMYpmcMTXUq1CXl2hW4ubri6as3bSJGtyIFi8XGjrDj+GqSJgnGw/MHMW+Dd5uAEVT67+VkqPagVt2oAC+EHziG8qpaF2lIdAJmTBhL/n7rf6fh4umDrOz8NrXJkpTBmnW2WG9BRas+efwH5n81HxX1tDW3UxCiuhM+h5eHOwaq9sL7nGzYW6/E9fvPSS3KvdXw+0XKVcsrL4TO6HGo758ShxTjDQ0RGRNDuo6JsmSkNtJa+T07XV19xMfHCXvXUn4MEWO20HwjNq1dDVlJyvHu5+uDA/EJMPnqa2znukFamvq8UtLZ/4Dr4Yn8/NbfGXUrUgAMjJ86D/vDdgiBXjh5FNJzWh9yQSiY881SeLlshpSUJMCjbrR/+KnujbbW5IU4EUFdEFaX5WGd1Tr8duNOm0ihMWQYdu+JwKcDqBXvRLQH3IIaJu+0RAqCXEGBAZgxbQqqeZVIPBILT2/qZnelZzgcv5lC/vf3Ef7ghjS8MReHFOpa+vAMDMf4gVRGxbEQW3hEUOEiYhUGA/PNPbHdriZGjP8a2p/VDfGvr6fPwKlIOLwL6sqUxync1x2hCYnEsYgsRsZfITjIt6YaHxfOncZ6G2exzBEV6makADR09OAfvg9ailQM/vUrF7Ha0lqskAdRYFgK/REU4IcZE3TIx8nnz8LNzQ2v8+rF8rOkcD3tDuRrbgzfvn4II5NFqKiov763PDabA+Oxahb1WkMUQz0d5BU31NMSKYi6c5ZuhrvDcshw2Mi4ch4uLi74820hbt69D1ny/ZKHlcuW4UZK7b2OoF1xSMGUlIWN3WZYrFhEVrt39yYWf0vdxItTiNvpi1dT0FNekhSPc1yNnWfqnp3qjIdsDySd+Qn9+lC7dvKZOGxwDURphcj2xGBi/uqt2O5gSsrw+Tz8ut8L9gGtyzHpdqQgdgszc0vY2GwgQx7Ar8bxxCPw8t5J3pWIU9hSsrBaaw1rSyrSkldVgkNxwfANTGi0upyqAZKTYsCuiXDNvnEcX67zQZGYIQZsKQ705m3APi7VHsDHfyIcsSmk8c8IiUMKMDi4cDEJfXv1BKorwOVuQ2ZVXxz0sSVbuPtTNDb77EVWXkPSiUMKQofFmrXYsH4diTNxs3zwwF74B8Whitd8thGTLYkvnQ7DZyn14Qk+rxITxhsir7jx5CGOtDSOHD2KoTXfIi599xgW1g5IuVvrMRMMjGLPvti2OwaziLBxBlBWXAiPjUtx+tpj4Y7S0hzohqQAFPsNxXY/X0zTHVqTI1CN6Ogo/HzqBB4+b5gwIwrSWP1xGKFvAkdragUkytnTJ7HZ2bXJSFsi5spzdyTmTjMQhpj8cesC3HYE43HmE5RXNX6rTIQsDBw0GMZL1sJmqYmwvQfpKVi+wgIlJS3nUxBRstbm5mgsdWZjQBSsTCiX7JHYfZhqPAv9VNXISejv74+4+IONzg9xScHpOQwRe/2hP4KKJC54kYHofXFIOPlrk1HCav0HYOz0JfB1rN1VUn49AHOnAJSJrvo1limp9MAWN3fMmTmdDI3Pe/8ePt7e+KmZ747p6BmQF8Ya/ankrT/T78JlixMeZD4X642hW5KCAGL053PAdfeAZq/aPOk/bl5G0tU7yH3zChnp6SgqqyK/6KGgpIzPho+Aorws6blRlqutc/H0Mbjv8MWbwvJmFxi1/v3B9doBQ31dITGePczA/367hJx3ebhxLRkFpeVkCipLQgr648ajh4oyDAwnYvTI4eSqRq7gqXdIz8mjJ0+bbE+snQIAR1ENKVepQ3VVeQnZLkHE54/+gNtWJ9xKb7jSErLikoKQnfP11/Dx8hKm31ZXVSD2QDze57xF+r1U/J1LJHXx0bvfQIweqQ09AwMY6OtRuziAtDspcHFxxZNnzxr0V0JKGoss7WBrtgSykizwqqoQ5r8dUQcTW0wFmGFkAk8PLpSUqJCiq1cuw8XNDX9nt+yR6rakIIDQGmuIVWb2mDNV5PtQfD6KCvPw+tVrlFXySFJwpGWgqqYGGU7thwCI+odjo7E/JhqvxAwqHDBwEDZxvTF9nI5wkhN6KivK8fRJJrkSEpOf+HLGoMEakJWu296TxxlwsHPCwyeZzW714pKCaNttbyKWfE4FLFKFj9/O/4L1GzY18DoJJFpDCqIOEeAZEUHFTQlKVUUZXr54gYLiUvIeQV6xBwao9wOrhgyE3JPMx9hkb4s/Hz1pdAXvOXAUjh6KgaoKlVJ684f92Oi5G/mCWPEGNKp9wGCwMXXmQuwNchP2+/LxGKzZFtRMLeqnbk0KooMyckpYtmwpNm5YR26/4pTSghxEhezEgRNJKCtv3YGZ8KP3GToOZxJCxGlKKBPlbY/Yn5LFciGKkuJGcjIszc0buG0FijU0tXDmh9rYqfKSYnCtl+D0jcdN2peakQHq+AusNjLCtZfNv3IScoM/1cZ6h20wmTJSrH6/TDmNhet8yOSzppIE1SevRVLEBlIfv+ABxn9uisLS5nds0cYZTDbW7EjAxrmjyMdVuX9i5CQqrbW50iQpiI+ShYeHY8SImhTAljS18fcPiX1qqkkiYM/e3h7p6elCEUkpaZjZOWPBDENydyBuRQVf0yAS4qureeSKdny/P6KOnBP7G0xN2cBiS8Hkq8WwWL0EshwJEHcogq+FEO0QrwJEm+d+Po6ImAQUFIsfzdvzE13sdN8M9d6KOBXlifATyU2iz2RL4Mv532KDJfUOf/1EGFzCTzY7WkNGjEd40HbwyvPw3SorZL/JEXt0dQ0+x7atDpCR5oBFYEx+1YRPfnSAx6vGw/up2Onnj2evs1vU2atXLyQcPgI2g4+1a6zwKFO8bEJRxXLyCtgdcwiDekjDz80B56429LbVN6RJUhBboru7+0f5snhzvW8PUhDtmZubg0hhbawQH/KSV1QAR5JaD8vLSlFQUIDKJg7ELY5eiwIMqKj0IO87iDlC5I2/y81FldiJ1C020OkEGEwmeVaTkZICk1GNouISsXbBztCRfyUpOgPwtA2dF4EmSWFgYECmjhJ/nag9yz+xU7Rnf2jdXR+BJklBvAsSfwNi2rRpbf4rReLA8+TpUzJFNedt8/nEcXFxkJeXb1El8b5+6tQp8i+vEnnhdKERaC0CbfI+tbYRWp5GoCshQJOiK40WbWuHIECTokNgphvpSgjQpOhKo0Xb2iEI0KToEJjpRroSAjQputJo0bZ2CAI0KToEZrqRroQATYquNFq0rR2CAE2KDoGZbqQrIUCToiuNFm1rhyBAk6JDYKYb6UoI0KToSqNF29ohCNCk6BCY6Ua6EgI0KbrSaNG2dggC/wdp1MdhM3V86gAAAABJRU5ErkJggg==;" vertex="1" parent="1">
          <mxGeometry x="150" y="981.9099999999999" width="140" height="44.06" as="geometry" />
        </mxCell>
        <mxCell id="4Rx-it21br4PG3s0Q3KG-94" style="edgeStyle=orthogonalEdgeStyle;rounded=0;orthogonalLoop=1;jettySize=auto;html=1;entryX=0;entryY=0.5;entryDx=0;entryDy=0;dashed=1;" edge="1" parent="1" source="4Rx-it21br4PG3s0Q3KG-86" target="4Rx-it21br4PG3s0Q3KG-74">
          <mxGeometry relative="1" as="geometry" />
        </mxCell>
        <mxCell id="4Rx-it21br4PG3s0Q3KG-95" value="https" style="text;html=1;align=center;verticalAlign=middle;resizable=0;points=[];autosize=1;strokeColor=none;fillColor=none;" vertex="1" parent="1">
          <mxGeometry x="639" y="1028.94" width="50" height="30" as="geometry" />
        </mxCell>
        <mxCell id="4Rx-it21br4PG3s0Q3KG-96" value="" style="edgeStyle=orthogonalEdgeStyle;rounded=0;orthogonalLoop=1;jettySize=auto;html=1;entryX=0.5;entryY=0;entryDx=0;entryDy=0;dashed=1;endArrow=none;endFill=0;" edge="1" parent="1" source="4Rx-it21br4PG3s0Q3KG-68" target="4Rx-it21br4PG3s0Q3KG-97">
          <mxGeometry relative="1" as="geometry">
            <mxPoint x="875" y="852.94" as="sourcePoint" />
            <mxPoint x="875" y="1013.94" as="targetPoint" />
          </mxGeometry>
        </mxCell>
        <mxCell id="4Rx-it21br4PG3s0Q3KG-97" value="https" style="text;html=1;align=center;verticalAlign=middle;resizable=0;points=[];autosize=1;strokeColor=none;fillColor=none;" vertex="1" parent="1">
          <mxGeometry x="850" y="915.94" width="50" height="30" as="geometry" />
        </mxCell>
        <mxCell id="4Rx-it21br4PG3s0Q3KG-98" value="" style="edgeStyle=orthogonalEdgeStyle;rounded=0;orthogonalLoop=1;jettySize=auto;html=1;endArrow=none;endFill=0;" edge="1" parent="1" source="4Rx-it21br4PG3s0Q3KG-86" target="4Rx-it21br4PG3s0Q3KG-99">
          <mxGeometry relative="1" as="geometry">
            <mxPoint x="495" y="1058.94" as="sourcePoint" />
            <mxPoint x="290" y="954.94" as="targetPoint" />
            <Array as="points">
              <mxPoint x="390" y="1058.94" />
            </Array>
          </mxGeometry>
        </mxCell>
        <mxCell id="4Rx-it21br4PG3s0Q3KG-99" value="" style="sketch=0;html=1;aspect=fixed;strokeColor=none;shadow=0;align=center;fillColor=#333333;verticalAlign=top;labelPosition=center;verticalLabelPosition=bottom;shape=mxgraph.gcp2.search" vertex="1" parent="1">
          <mxGeometry x="380" y="998.94" width="29.7" height="30" as="geometry" />
        </mxCell>
        <mxCell id="4Rx-it21br4PG3s0Q3KG-100" value="https/Oauth 2.0" style="edgeLabel;html=1;align=center;verticalAlign=middle;resizable=0;points=[];" connectable="0" vertex="1" parent="1">
          <mxGeometry x="440" y="1175.94" as="geometry" />
        </mxCell>
        <mxCell id="4Rx-it21br4PG3s0Q3KG-102" value="https" style="text;html=1;align=center;verticalAlign=middle;resizable=0;points=[];autosize=1;strokeColor=none;fillColor=none;" vertex="1" parent="1">
          <mxGeometry x="990" y="778.92" width="50" height="30" as="geometry" />
        </mxCell>
        <mxCell id="4Rx-it21br4PG3s0Q3KG-104" style="edgeStyle=orthogonalEdgeStyle;rounded=0;orthogonalLoop=1;jettySize=auto;html=1;entryX=0;entryY=0.4;entryDx=0;entryDy=0;entryPerimeter=0;endArrow=none;endFill=0;" edge="1" parent="1" source="4Rx-it21br4PG3s0Q3KG-57" target="GPZW-LEuCJG_7yV0mtUQ-43">
          <mxGeometry relative="1" as="geometry">
            <Array as="points">
              <mxPoint x="1196" y="808" />
            </Array>
          </mxGeometry>
        </mxCell>
        <mxCell id="4Rx-it21br4PG3s0Q3KG-106" value="«Container Management»&lt;br style=&quot;border-color: var(--border-color);&quot;&gt;" style="text;html=1;align=center;verticalAlign=middle;resizable=0;points=[];autosize=1;strokeColor=none;fillColor=none;" vertex="1" parent="1">
          <mxGeometry x="1263.13" y="517" width="160" height="30" as="geometry" />
        </mxCell>
        <mxCell id="4Rx-it21br4PG3s0Q3KG-107" style="edgeStyle=orthogonalEdgeStyle;rounded=0;orthogonalLoop=1;jettySize=auto;html=1;entryX=1;entryY=0.5;entryDx=0;entryDy=0;entryPerimeter=0;" edge="1" parent="1" source="GPZW-LEuCJG_7yV0mtUQ-55" target="GPZW-LEuCJG_7yV0mtUQ-73">
          <mxGeometry relative="1" as="geometry" />
        </mxCell>
        <mxCell id="4Rx-it21br4PG3s0Q3KG-108" style="edgeStyle=orthogonalEdgeStyle;rounded=0;orthogonalLoop=1;jettySize=auto;html=1;entryX=1;entryY=0.5;entryDx=0;entryDy=0;entryPerimeter=0;" edge="1" parent="1" source="GPZW-LEuCJG_7yV0mtUQ-64" target="GPZW-LEuCJG_7yV0mtUQ-72">
          <mxGeometry relative="1" as="geometry" />
        </mxCell>
        <mxCell id="4Rx-it21br4PG3s0Q3KG-109" value="TCP/IP" style="text;html=1;align=center;verticalAlign=middle;resizable=0;points=[];autosize=1;strokeColor=none;fillColor=none;" vertex="1" parent="1">
          <mxGeometry x="1120" y="620" width="60" height="30" as="geometry" />
        </mxCell>
        <mxCell id="4Rx-it21br4PG3s0Q3KG-112" value="TCP/IP" style="text;html=1;align=center;verticalAlign=middle;resizable=0;points=[];autosize=1;strokeColor=none;fillColor=none;" vertex="1" parent="1">
          <mxGeometry x="1120" y="951.91" width="60" height="30" as="geometry" />
        </mxCell>
        <mxCell id="4Rx-it21br4PG3s0Q3KG-113" style="edgeStyle=orthogonalEdgeStyle;rounded=0;orthogonalLoop=1;jettySize=auto;html=1;exitX=1;exitY=0.5;exitDx=0;exitDy=0;entryX=0;entryY=0.5;entryDx=0;entryDy=0;endArrow=none;endFill=0;" edge="1" parent="1" source="4Rx-it21br4PG3s0Q3KG-114">
          <mxGeometry relative="1" as="geometry">
            <mxPoint x="1974" y="616.12" as="targetPoint" />
          </mxGeometry>
        </mxCell>
        <mxCell id="4Rx-it21br4PG3s0Q3KG-114" value="" style="ellipse;whiteSpace=wrap;html=1;aspect=fixed;" vertex="1" parent="1">
          <mxGeometry x="1864" y="600.85" width="30" height="30" as="geometry" />
        </mxCell>
        <mxCell id="4Rx-it21br4PG3s0Q3KG-115" style="edgeStyle=orthogonalEdgeStyle;rounded=0;orthogonalLoop=1;jettySize=auto;html=1;exitX=1;exitY=0.5;exitDx=0;exitDy=0;entryX=0;entryY=0.5;entryDx=0;entryDy=0;endArrow=none;endFill=0;" edge="1" parent="1" source="4Rx-it21br4PG3s0Q3KG-116">
          <mxGeometry relative="1" as="geometry">
            <mxPoint x="1974" y="746.12" as="targetPoint" />
          </mxGeometry>
        </mxCell>
        <mxCell id="4Rx-it21br4PG3s0Q3KG-116" value="" style="ellipse;whiteSpace=wrap;html=1;aspect=fixed;" vertex="1" parent="1">
          <mxGeometry x="1864" y="730.85" width="30" height="30" as="geometry" />
        </mxCell>
        <mxCell id="4Rx-it21br4PG3s0Q3KG-117" style="edgeStyle=orthogonalEdgeStyle;rounded=0;orthogonalLoop=1;jettySize=auto;html=1;exitX=1;exitY=0.5;exitDx=0;exitDy=0;entryX=0;entryY=0.5;entryDx=0;entryDy=0;endArrow=none;endFill=0;" edge="1" parent="1" source="4Rx-it21br4PG3s0Q3KG-118">
          <mxGeometry relative="1" as="geometry">
            <mxPoint x="1974" y="866.12" as="targetPoint" />
          </mxGeometry>
        </mxCell>
        <mxCell id="4Rx-it21br4PG3s0Q3KG-118" value="" style="ellipse;whiteSpace=wrap;html=1;aspect=fixed;" vertex="1" parent="1">
          <mxGeometry x="1865" y="850.85" width="30" height="30" as="geometry" />
        </mxCell>
        <mxCell id="4Rx-it21br4PG3s0Q3KG-119" value="API" style="text;html=1;align=center;verticalAlign=middle;resizable=0;points=[];autosize=1;strokeColor=none;fillColor=none;" vertex="1" parent="1">
          <mxGeometry x="1854" y="634.12" width="40" height="30" as="geometry" />
        </mxCell>
        <mxCell id="4Rx-it21br4PG3s0Q3KG-120" value="API" style="text;html=1;align=center;verticalAlign=middle;resizable=0;points=[];autosize=1;strokeColor=none;fillColor=none;" vertex="1" parent="1">
          <mxGeometry x="1860" y="760.85" width="40" height="30" as="geometry" />
        </mxCell>
        <mxCell id="4Rx-it21br4PG3s0Q3KG-121" value="API" style="text;html=1;align=center;verticalAlign=middle;resizable=0;points=[];autosize=1;strokeColor=none;fillColor=none;" vertex="1" parent="1">
          <mxGeometry x="1859" y="875.2099999999999" width="40" height="30" as="geometry" />
        </mxCell>
        <mxCell id="4Rx-it21br4PG3s0Q3KG-122" value="https" style="edgeLabel;html=1;align=center;verticalAlign=middle;resizable=0;points=[];" connectable="0" vertex="1" parent="1">
          <mxGeometry x="1804" y="856.12" as="geometry" />
        </mxCell>
        <mxCell id="4Rx-it21br4PG3s0Q3KG-123" value="https" style="edgeLabel;html=1;align=center;verticalAlign=middle;resizable=0;points=[];" connectable="0" vertex="1" parent="1">
          <mxGeometry x="1804" y="736.12" as="geometry" />
        </mxCell>
        <mxCell id="4Rx-it21br4PG3s0Q3KG-124" value="https" style="edgeLabel;html=1;align=center;verticalAlign=middle;resizable=0;points=[];" connectable="0" vertex="1" parent="1">
          <mxGeometry x="1794" y="606.12" as="geometry">
            <mxPoint x="9" y="-5" as="offset" />
          </mxGeometry>
        </mxCell>
        <mxCell id="4Rx-it21br4PG3s0Q3KG-125" value="«Messages»&lt;br&gt;&lt;b&gt;Mensajes&lt;/b&gt;" style="html=1;dropTarget=0;whiteSpace=wrap;" vertex="1" parent="1">
          <mxGeometry x="1974" y="571.12" width="170" height="99.45833333333334" as="geometry" />
        </mxCell>
        <mxCell id="4Rx-it21br4PG3s0Q3KG-126" value="" style="shape=module;jettyWidth=8;jettyHeight=4;" vertex="1" parent="4Rx-it21br4PG3s0Q3KG-125">
          <mxGeometry x="1" width="20" height="20" relative="1" as="geometry">
            <mxPoint x="-27" y="7" as="offset" />
          </mxGeometry>
        </mxCell>
        <mxCell id="4Rx-it21br4PG3s0Q3KG-127" value="«Parameters»&lt;br&gt;&lt;b&gt;Parametros&lt;/b&gt;" style="html=1;dropTarget=0;whiteSpace=wrap;" vertex="1" parent="1">
          <mxGeometry x="1974" y="701.12" width="170" height="99.45833333333334" as="geometry" />
        </mxCell>
        <mxCell id="4Rx-it21br4PG3s0Q3KG-128" value="" style="shape=module;jettyWidth=8;jettyHeight=4;" vertex="1" parent="4Rx-it21br4PG3s0Q3KG-127">
          <mxGeometry x="1" width="20" height="20" relative="1" as="geometry">
            <mxPoint x="-27" y="7" as="offset" />
          </mxGeometry>
        </mxCell>
        <mxCell id="4Rx-it21br4PG3s0Q3KG-129" value="«Notificaciones»&lt;br&gt;&lt;b&gt;Componente Notificaciones&lt;/b&gt;" style="html=1;dropTarget=0;whiteSpace=wrap;" vertex="1" parent="1">
          <mxGeometry x="1974" y="821.12" width="170" height="99.45833333333334" as="geometry" />
        </mxCell>
        <mxCell id="4Rx-it21br4PG3s0Q3KG-130" value="" style="shape=module;jettyWidth=8;jettyHeight=4;" vertex="1" parent="4Rx-it21br4PG3s0Q3KG-129">
          <mxGeometry x="1" width="20" height="20" relative="1" as="geometry">
            <mxPoint x="-27" y="7" as="offset" />
          </mxGeometry>
        </mxCell>
        <mxCell id="4Rx-it21br4PG3s0Q3KG-131" value="«Bot»&lt;br&gt;&lt;b&gt;ChatBot de soporte&lt;/b&gt;" style="html=1;dropTarget=0;whiteSpace=wrap;" vertex="1" parent="1">
          <mxGeometry x="1974" y="945.39" width="170" height="99.45833333333334" as="geometry" />
        </mxCell>
        <mxCell id="4Rx-it21br4PG3s0Q3KG-132" value="" style="shape=module;jettyWidth=8;jettyHeight=4;" vertex="1" parent="4Rx-it21br4PG3s0Q3KG-131">
          <mxGeometry x="1" width="20" height="20" relative="1" as="geometry">
            <mxPoint x="-27" y="7" as="offset" />
          </mxGeometry>
        </mxCell>
        <mxCell id="4Rx-it21br4PG3s0Q3KG-133" style="edgeStyle=orthogonalEdgeStyle;rounded=0;orthogonalLoop=1;jettySize=auto;html=1;exitX=1;exitY=0.5;exitDx=0;exitDy=0;entryX=0;entryY=0.5;entryDx=0;entryDy=0;endArrow=none;endFill=0;" edge="1" parent="1" source="4Rx-it21br4PG3s0Q3KG-134">
          <mxGeometry relative="1" as="geometry">
            <mxPoint x="1974" y="995.12" as="targetPoint" />
          </mxGeometry>
        </mxCell>
        <mxCell id="4Rx-it21br4PG3s0Q3KG-134" value="" style="ellipse;whiteSpace=wrap;html=1;aspect=fixed;" vertex="1" parent="1">
          <mxGeometry x="1865" y="979.85" width="30" height="30" as="geometry" />
        </mxCell>
        <mxCell id="4Rx-it21br4PG3s0Q3KG-135" value="API" style="text;html=1;align=center;verticalAlign=middle;resizable=0;points=[];autosize=1;strokeColor=none;fillColor=none;" vertex="1" parent="1">
          <mxGeometry x="1860" y="1014.85" width="40" height="30" as="geometry" />
        </mxCell>
        <mxCell id="4Rx-it21br4PG3s0Q3KG-136" value="https" style="text;html=1;align=center;verticalAlign=middle;resizable=0;points=[];autosize=1;strokeColor=none;fillColor=none;" vertex="1" parent="1">
          <mxGeometry x="1780" y="968.12" width="50" height="30" as="geometry" />
        </mxCell>
        <mxCell id="4Rx-it21br4PG3s0Q3KG-165" style="edgeStyle=orthogonalEdgeStyle;rounded=0;orthogonalLoop=1;jettySize=auto;html=1;entryX=0.5;entryY=1;entryDx=0;entryDy=0;endArrow=none;endFill=0;startArrow=classic;startFill=1;dashed=1;" edge="1" parent="1" source="4Rx-it21br4PG3s0Q3KG-161" target="GPZW-LEuCJG_7yV0mtUQ-43">
          <mxGeometry relative="1" as="geometry">
            <Array as="points">
              <mxPoint x="1232" y="1140" />
              <mxPoint x="1343" y="1140" />
            </Array>
          </mxGeometry>
        </mxCell>
        <mxCell id="4Rx-it21br4PG3s0Q3KG-161" value="" style="shape=image;verticalLabelPosition=bottom;labelBackgroundColor=default;verticalAlign=top;aspect=fixed;imageAspect=0;image=data:image/png,iVBORw0KGgoAAAANSUhEUgAAAdEAAAF/CAYAAAAW1fMFAAAAAXNSR0IArs4c6QAAAARnQU1BAACxjwv8YQUAAAAJcEhZcwAADsMAAA7DAcdvqGQAAFtcSURBVHhe7d0HnBzFlT/wNzObc86rjcphJYREEgJFEAIBd/b9bYwxwWBMssEYMBgbg8EGY4xNMjkH2/hMtEgS8QADQjlvzjnn3Zn61+utAQGbd3q6e+b35dPX3SUfYbq7XldX1SsCAAAAAAAAAAAAAAAAAAAAAAAAAAAAAAAAAAAAAAAAAAAAAAAAAAAAAAAAAAAAAAAAAAAAAAAAAAAAAAAAMDub2gOAl5Xee7/oKS2l7mK5yX1PaZn6k8kJTkmmsJwcCs3Okvtsyr3iJ3i+AXSGhwxAZ2UPPCTat26n9m3bqetgoSr1ruC0VIo5fDHFLDmcsn58AZ57AA/BwwTgYft/9RvRvn0HdWzfSYOdnarUfALnzKLkpUtozu23oh4AmCQ8PAAesPvyn4vmd96lnopKVWItjogISlhxHMXLLeOsM1EvAIwTHhaASdp2wUWi5d33aaCpSZX4BltAgBZME1avomnnnY06AmAUeEAAJqDojjtF/QsvU8eevarEtwUlJVHKaRto1i03oq4AGAYeDIBx2HnxZaLuXy+Rq79flfif+JUraPHfn0adAXAIPBAAIyi9735R9+LL1PbZ56oEWGhWFqWcvoGm//IXqD/A7+EhAPiaPVdeLWpfeIkGW9tUCYwk6eSTaOFjD6EeAb+Fmx9AqnjsCS1wtnzwoSqBiYiYPYuSTz2F8q68HHUK+BXc8ODX9l9/gxY8+2pqVQlMhS0wgFJOO5Xm33cX6hbwC7jRwS99/t3vi8Y3N6kz0EP0YYu01mn2xReingGfhZsb/EbhLbdqrc7u4hJVAt4QEBWptU7n3HEb6hvwObipwedtP/cCUffSK+oMjBR79FHavNPMc3+Augd8Am5k8EnFf/qzqOOkCLv3qBIwk+BkTuJwKs28+Teog8DScAODT9l1yU9ELSdF6OtTJWB2CatW0mF/ewp1EVgSblywvLK/PqAlRWj9dIsqASsKy86iZNk6nf7La1AvgWXgZgXL2vvza7SBQgMtraoEfEXSyetp4WMPon4C08NNCpZS8fiTok4Gzub3/0+VgC/TkjictoHyfvZT1FVgSrgxwRJ4oWsOnr3VNaoE/IktKHAoicO9f0GdBaaCGxJM7fMzzhKNb7ylzgCIIhcVUOIpJ1P+ZRej/gLD4SYE0zl4y63aQKHuomJVYj6BsTEUlpNNbZ9vUyXgbQHRUUNJHP54K+oxMAxuPjCN7ef9SAuelmCz0dqGKu352XPFVaLmH/8kZ0+P9kfgfbHHcBKHUynznLNQp4FX4YYDQxXd8WctcHZaMCnC2sbqrzw/FY8+IcofeoS69h9QJeBtwSnJQ0kcfnsD6jbwCtxoYIhdl/xUm57i6u1VJdaTed7ZNPvWW4Z9hrT/vv99gVz9/aoEvC1h9Uo67DkkcQB94QYDrym7/0Etm1DbZ76RFCE8P4+O+fj9UZ+hsgceEhUPPkLdJaWqBLyN+66TT92AJA6gC9xUoLu9V/1iKClCc4sq8R1f/6Q7mh0/uljUvfQyiYFBVWI9gTHRFLVoEUUtXEDRixZS46bNVPn4U+pPzS/5lPVU8CiSOIDn4GYCXVQ+8ZQWOJvf+0CV+KaJBFG3krvuFRWPPEa9FZWqxJwc4eFfBMsZN1z/jf/O/b++UZTd81d1Zi2Rc2ZrSRxyr/gJ6kCYEtxA4FEHZMXKwbO3qlqV+LbUb/0Xzf/r3ZN+jradfb5o2PgaCadTlRjDHhxMUQvmy6BZQLN+d9OY/z1WDqCHsgcFUcrpG2jePUjiAJODGwc8Yuv3fiAaXn9TnfmPoIQEOn7fjik/R8V3/FlUPPo49dXUqhL92AIDKHLuXK2VOef2ic+x3HvNdaLioUfVme+IXrxIS4Cf/eMLUC/CuOFmgUkr/N1t2vSUrsIiVeKfJvNJdzT8QtL45iYSLpcqmTyb3U7hM2don2S5lTnVxbB3X/5zUfXk0+rMN3G/L3/qncwLBvgf3CQwYTt+eKH2yRaGzLz5N5T1o/M9/iwV/v4PovKJp6m/vl6VjMFmo/C8XC1YRi0q8Pi/086LLxM1f3tenfmH2GVHDyVxOPv7qCthWLgxYFyK77xL1MtWZ/vOXaoE3BLXrqZFzzyh67O05dtniKZ33iUSQpUQhU6bpn2SjZKtzJxLL9L1n7/j/B+L2n+9qM78T3BqigymG2jmTUjiAF+FGwJGtevSy7XVU5DSbmQ8inVV2UGvPEul9z0gvN1nt/3cC0TdS6+oM0hYs4oOe/ZJ1J2gwY0A38AJArSkCJ9+pkpgLJ7uFzWLz7/7fa1/Fr4pLDeHkk89haZfhyQO/gwXH76w9+prteA50NysSmC88q76GW8+9Txt+dZ3RNM776kzGE3yhpOp4JEHUJ/6IVx0P1f55NNDSRHefV+VwGTEHLGUlr76gs88TwigkxM5dw4ln3YK5V6OJA7+AhfaT/FkeZ6e0ltZpUpgKmwBAbSmttwnnqdPT/1v0fJ/H6kzmAxOXqElcbj7z6hjfRwusJ/ZeubZouG1N9QZeJIv9It+sm6DaEVfuEdFH36YNrI360IkcfBFuKh+gOcbakkRDhaqEvAER2goRS89nOKOOdoncrB+vOYk0b51mzoDTwuMjaGkDSfT3D/ehnrXh+Bi+jBtbh8nRThkbiFMnq8FzUN9dPwa0bFrtzoDvXESh9TTT6WMHyCJg9XhAvoYTorArc4OJEWYMl8Omof6cNkK0blvvzoDbwpJS9WmySCJg3XhwvmIHRf/RDS8/Co5u7tVCUwUB82YI5ZQ7DFH+dXoyg+PXSk69+5TZ2AUb2S+As/DBbOw8gcf1uZ1tn7yqSqBifCXluZ4fbRircAXDONx/uMkTuJw7dWony0AF8mC9l1znRY8+5uaVAmMB4Lm+PznxJNF22efqzMwEn/qLXj4ftyrJoaLYxEf/e5W0ffOe9S/ZasqgbEgaE7NZ6d/WzS//3/qDIzkyM2hkOOX0zG3/Q73scnggpjc/htu0lZP6amoVCUwEgRNfWz5n++Jps1vqzMwkj0kRJtzOu/uO3F/mwQuhElt/f45omHj6+oMRhIQEUFJJ5+ESsULeLHwhtffVGdgtOgli4eSOOiwli2MH358Eym89fahpAgHDqoSmAhuiQYlJ1Fwktzk3n2MVqlnaUujvfwq5h+bRGBcrBZMZ+NTryHwo5vAjgsuGkqK4HKpEtCTzW6nwPh4GWATKegrATcRb/UTsPPCS0Tt/75AAvetacQtX6YF1IyzzsR97CX4oQ1S8pd7tMDZsWOnKgEzOrR1qwXcFPdxImWceQaeH2n3ZVeI6r8/T2JwUJWA0ULS04aSONz4a9yjOsMP7GW7f/IzLXg6u7pUCfiKoMTEoVYtB1sZZEMy0in/mp/7zTO258qrReVjT6ozMIvEE9bQoqcfR12vE/ywXlD+4CNa4Gz9zyeqBPyFL6zsMlH7fnG9qHziKXL19akSMIPw/DytdZr/i6tQ73sQfkwd7b36Om2gUH9joyoBfxO37Gg6/IXnvfacld59n3BERFDm2cYnNj9w482i4qFHkYrShLjfdMFDf0X97wH4EXWw5dvfFU1vv6vOwN95ozW654qrtNbfeDnCwoiDbUBEODnCw7WpQg55PLRX5byXfzbVoHzw5t+LigcfocHOTlUCZhE5b64WUHN+eiliwSThh/OQA7/5rdbq7CmvUCUAQ5I3nEwFjzyg27P28ep1on3bdnVmDHcQ/iIg8z7yy4AsXILqXnqZBtva1f8HmAkPoONgOveuPyEmTBB+sCnadta5ov7fr6kzgG/iKTVr6it1edbenjFXDDS3qDOAqYtZcjgln76Bsi74IeLDOOBHmoSi2/6oDRRCUgQYr8wfnkOzf3+zx563kjvvEoW33Io5mjrolVuFfPFJEy4K9+N8EkFxcZR02ik0B0kcRoUfZwJ2/uhiLXgKp1OVAIwP5zxdXVnskedt6xlniYY33lJn4CmtMnBW2olq5VUKkeeJLkEhMojGCEHRfp6cKXb5Mko4+STKOfdsxIyvwQ8yhpK77hV1MnC2b9+hSgAmJ+/qKynv51dM6Zl7//CjRE9pmToDT6hTwbPlkCvjDqJuAVowlRsJcvhxQA1WSRxmIYnDF/BDjGD3T6/UgidGFIKnBMZE04rCvZN+5t7KyBWuXv7YCFPFH8HLZeCscTioSwbGr/t6ED2UFkzlFuznuYMTT1xLi556zO9jCILoIcofelQUPf0sDWB1fw1n4AnLzaHA2Bht9B5/knSEhVJQfDyJcVYgA83N5OzuIa78B1pa5NZKPWVlNNDapv4X/mX2H35PmeecNaHnbt91vxbl9z+ozmAqeMZqhd1G1XJzjnIVRguibhHyj6Pk/yZSnfursPw8bWSvP2XnOhSCqLT3ml8OJUVoaFAl/iMsJ1tLU8fBMjQzg/Ku+plX7wl+cemtrKTeqmrqra4h97GvCs3MpGO3/mfcv/GnJ58uWj7+jzqDyTq0v3M8xhNE3UJkNRrtcmmtU79msw0lcXjwPr+KK34dRLd8+wzR9PY76sy32YODtYAZnJJMYXm5FJKRQTmXXmTa68990Tz6ua+mRrZcy7XNV0aijjf5wrtzF4q+unp1BpMxXH/neEwkiLpxX+nQp15BAarMX0XOnzeUxOEnl/h8jPG7IMqpyOpe4KQI5arEN3H/W3BKihY0445bbuqAOV4HbrhJtH66hfrr66mvvsGySfyjFhbQkW9tHPF6lD3wkDjwqxuxKsok8atWmdbfadc+307GZILooXg0LwfUED/vN+XMWFoSh7/c4bOxxm+C6LYfnCfqX92oznyTu7WZsHolzbjhep+/trsuvVy0fvwf6qmotFzAGak1uuOHF2rTqGDi3P2dtQF2Gphi8JpqEHXjeaYcTCP8PJiymKVLKOX0DTTt/PN8qm7y6Yq26A93DCVF2H9AlfgezoYTnJpCccuPpXl+nLKLU9917t1nmZVDhlue6sNlK0Tnvv3qDMarRbY6K2x2qpd7T/FUEHULPqTf1G8fUoUHJiafdgrNvvUWn/gpfPJ6aivuc1IEH/8cxq3O9LPO9IlPtZ6y9+prRd2Lr5h/5RybjdY2VH1x3TbnzBSDHR3qDMajRvV3tulw93s6iLrZ5d/S3W8aqMr8Wfzxy2VA3WDpBe59pvLlJaA4cBqdiNsbogoW0JGbXkPgHAUPTKp64inqLilVJeaT9p3/0fqtS+78iyqBsXB/Z0WAnfj1Q88F1vQKooeKUsE0VN9/jCXwzABO4mDFbijLV8RaUoQXXyZ/eIuPOWIpLX31BQTPCcJnUuvjIWScHKHO4aDBYZIjeJo3gqgb95vyQKRI9JtqktadQAuffNQy9ZwlK+SKhx/TWp0tH32sSnxbSHoaLd/+GYLnFPCiAaX3/NWyI3r9VZMMnJU2OzV4sL9zPLwZRN2C5cafeqPlPxcPu3y5mJ6vferNv/pKU/8clrpW+35xvdbq7Kv3n7lzad/9f349YMjTtnzrO6LpnffUGZiVnv2d42FEEHVzyGo5Sg1CClJl/owHT3IwXfDAvaasBy1ROX/+P98TjZvfVmf+ISghgY7ftwPBUweFt94uiv9whzoDs+BhgJUOO1XJ4NkzVGQYI4PooSLlvwL3m4YZ/69iCpEL5g8lcbjsYtPUjaatpA/cdIuo+9dLPp8UYTgYOOQdm7KmC3zeNR4v8VAhA2etw0FOL/R3jodZgqgbDz7ilmkU+k01jvBwbSDSPBMkcTBdRb3t7B+K+lf+rc78Dw/5Xvz8cwigXvLOrAXC9NNhfJRR/Z3jYbYg6safd939pib82QzBAy65dTrt/HMNqTdNUVmXP/iIqHrmOerw89VTEECN8V7B4cKXk96bTZV96JNtu4nvdLMGUTe7rLq1xcLlvyP6TYcEJydR+hnfofzrrvHqnWXobVzyl3u04NldWKRK/BcnTlj26YcIoAZ5Kz1HWCXbkRX1y437O6tl8LTCiqhmD6KHQr/pVwVERWrBdOZvf+OV+tSQSpunG1Q9/axPL3k1ETz6bE19JQKogXhJtn3XXKfOwFPa5VYTIIOnzWaa/s7xsFIQdeN+U55vGo1+U40tMEALpnP+eJuudavXK+49V1wlKp94Sp0ByzzvbJ/JI2llHyw5Wpg5w5GVNGr9nTa5t+ZtbcUg6sbpBIdSC3KaQQRUnm96zEfv6XYjevUOf3/REaKnokKdAbMFBNCa2nIEUJN4IyENtc4UVMqgWSW3Dovf0VYOom42+Ze735QTOfi7qCt/Skdec5XH70yvDfDiygkB9Jt42TIwDx46DxPTL2uRIoedPgi00z6H9QOorxDyL16MvFReE36x6fLz69J++51U8fiTHn8z8koQ3Zw3C2/3w+BWaPzxx6kzMIOYJYvVEYyF+zv3BtjpfYeDSiwyYMhfdcoAyl8JyuRmVBYoM9j7s6vVkefoHkS3nXWuGGzjxw2+LiAinKb98By8t5tI5Ly56ghGwvM6t8rWzSey5cmrqXCLB6yhV16vWhlIi+T1a5J7px/WPh+vOtGjN6zuQbT+36+pI/g6fDo0n5CMDFyXEXBWoY9ly3O7w65VwGBdnGKxUV7CQnkd6+TWZ/Of69m+fQft++WvPRZIdQ2in11wEV5RwVKcPT0+v5j7ZLTb7drGnwXBt/TIa9rtZ98T2rd8ro6mTtcg2vT+B+oIhoO8reYz0NREYmBAnYEbryoyd9BFywZclOUkCsDrseXxOqbpLqJsp6BYeexP70etn25RR1OnaxAVskKCkQ12dmmT/NUpmAA/XEIGDBgeT/2YLn+f42VAneF0yYoYt6/VcEKGLHmLZ7gEReD6TZmuQTQwK0sdwXD4s2Htv15UZ2AG7du2qyMYyzRZER81KGi+DKjxqItNzSGvT5y8Xrmy1Zkig2eInwdPW4BDHU2drkE0ID1NHcFI2jz4bR6mhr8KIH/uxCXL+niRDKRLnUSpCKamEkw2SpJBM09uiTJwcjYjIAqZPl0dTZ2uQbSxslIdwUi4Nbrr0stR9ZhA8e1/UkcwGe5+0+VOF2XLgBqEu9owX/Z3uvyuv3M8+oI89zqhbxBtaaaQxYepMxhJzT/+qY7AKLwoAtYV9YwgWXnny4C6XAbUmbISj0Aw9RrOl5uN/s5RRR93LO3ZuVOdTZ2uQZTffw5UlFNIbo46h+Fwa5TXtFSnYAC0QvWRKSv0I2UwRb+pfnikdLz8nfOcgpJl8AxG8BxVuYdnRegeRLvl232pcJEjOlqVwXB4WbhP1p+Gu98Ab+fPFhiRqy93v+kRTiKk+PeMYPk7ctDk/s4EGTgDVDmMzH7SCVTzuWfHoegaRO2OoRFQrWVlVB0fQ1GrV2jnMLzW/3zi8ZRUMLpNWdPFQGubOgO9RcqXlTmH9puqchg//jyeLgNnttz48y2MLSQ9nZoWzKM9r72uSjxH35boIb3ZLaVltOW99yl87RpVAsPhlFQfLluBR0NnB264SbyVniOQ8MIYX/SbDqDfdLzc/Z0cQPF7jV/kUUdQeUgQNezapUo8S9dBWw/Pmie6mpvV2ZdyZs+mGLuDenbq8x/lC4ISEijr4gsp59KLMLDOw7aeebZofOMtJFUwGU5sX+VwUKMJEtCZZT1R/kQbI2/TGPmb8FxPGL+w3FwaSEuhvZ9tocH+b05du6y+2iN1q64V9CNzFojOUUY85s+bR1EDTureu1eVwKF4qbTkU9bTggfvQyD1EG7ld+7br87AjPjjelWAnTxTxU2O0UE0RP6jtQW1ETgnLCglhfqTEqjowEEaGCZ4ulkiiD48t0B0NTSos5HNXLCAwrq6qedgoSqBQ4XlZFP6WWeiVToF3PpsevtdQjIF6+DFvitsdqqS+35V5i1GBVH+TMvBk+d5wsQ4YqKpLz6eikuKaTzfmKzREp23UHTW16uzseXPnUuR/Jl3+w5VAm42u53ili+jxc8/h0A6ATz/s+rpZ7XRz2BdvKB0ldw6vHT3ezOI2uRfWqtT/vOCVRmMX0BGOrUPDlJVfR05Vdl4WCKIPrrgMNFRW6vOxi85I4NSkpLJVlODym8YUQsLKO07/4MFvUeB4OmbuN+00ja0oLSevBFEOWcOf67lAIr+zomxhYSSSEmi2oZ6au3pUaUTY4kg+tiCxaK9tkadTVxAYBDlzppFES4XdWMQ0jcEJSZS2v/7Fs244XoEU4VTKNa99AqWmfNx7XIb6je16bISpp5BNFT+bTl4RsvgCRMTkJZKXXY7VVZV0cAUaz1rtEQLFosO2Zr0hLTsbEqKiyNRXkF99WP3s/oTHoCUsHolLXrqMb8MpiV33SvqXnwZK7D4oUFZoZbLu75atlB7VZkn6BFEI+XfjludYYidExPgIFtmJjU0N1NjB78+eYY1WqILDxft1Z79nBYaEU5ZeXkU1j9A3bsxqnc4PBAp5sgjaN5df/LZoLrj/B+L5g8+pP5xDFwD/+DJflNPBVH7If2dSCwxMYEpydQVFESVlRW6DCyzRhBdtES0y2a3XjLz8ikhOooGCotoEFlnhsUDkkKzplk6qPISZU3vvEsdO3dRX00t5nfCqBpVv2njFPpNpxpEOWBqn2zl38NzK1f6B3t2tmxxtlF9S4sq0Yclgujji48QbRUV6kw/kTGxlJmTRcGd3dSz/4Aqha/jz742h4NC0lK1oBpVsMCUg5P48yynQOSg2d/YRGJgAIETJow//NWoflPnBPtNJxtEub+TMwtFob9zQgISEqgvPJwqKso8+ll+NJYIok8uOUq0lJWpM+/ImjGD4sLCqX/vPnJOctSWv7AHB5MjNIQc8ua1Bw19bApKSqLA2BgKSU+jkIwMj89N5VblQHMz9VRUylZlDXHe2sG2NnL198tNBsuBfhrs7NJWtgHwBP4UWOmQwXQC/aYTDaLo75ycgOwsau7upprGBq/nqbJEEH1i6VGitdS7QdQtNjGR0jMyKbC1lXqKilUpTFRgTLQWZJk70HLw1fYhIV8EYjd3MndX71B15U5ucGiQRMJ3MEqVfSh5Q/sYNd94gqhDVp+8EDm3PNHfOX4O+ZI+KLfKiirqcg6oUu+zRkt06dGipbRUnRknl3P1BgVrSRzwWRAAxuo3HS2I8iuku79T/m1gnAKzMqltYIAqa2vHlVFIb5YIok8duUw0F5unFZiYmkYpqSnkaGik3rJyVQoA/qpTbhUyEtY6HF/pNx0uiPKnWm51RqK/c9wcERHkSk6kGhk4J5sUQS/WCKJHHSuai4rUmXnY7XbKnTOHomx26kaKQQC/xz3w3G/Kn3q5qj80iEZpwVNog4ZgfAIzM6hTRpeKykrttzUjSwTRZ445TjQePKjOzCk5cxolJyYSVVVTv4cSQwBYkbt/2xYYRAER4do593tzv3hwaiqFyorR2d1NFY8+4dMZobjftEYG0ywnL3ottPR8MDZ7sHz1yEilek6K0Gb+cQ/WCKLLjheNB6wx5SRIVha5M2aSraODBAYigY9xT2/ivT0w4IsR2QHRMkCmJGujsQPj4ij/6ivHrBPeSEhDmwy+ECTvnU55X1VWlHt9tZ2psEQQffbYFaJhv/XWbkzPyaGE2FhylZbTwCjroQKYBQdHbX9IoAyU9zBPWQrLzaGQjHQKio+f8rzgT9afps3hBf/GSVzsOdnU0NaqtTytyBJB9LnjVor6vfvUmfWER0TStLw8Cu3tpW4L/3eA9XGlRbzxsQyUAVFRMijGUWh2ltaKDJ8+XffEGZwE4+BvfqvOwB9xKr7esFAqLymlPl3vNv1ZI4iuWC3qd+9RZ9aWmT+d4iMjaeDgQXK2d6hSAM/S3vBDQ7V+SE52wa1I7ovMu+pnhldZ7xUcLrC0nH8KyMulps5OqmkY//rQZmeRILpGBtHd6sw3RMXFUWZWFgV1dFDPgUJVCjA+/KmVB+2EyntI+8yqMkOZfW1YTvhf+68X1Rn4A07FNyhf5sorKqh7wEq9neNjiSD6t1UniLqdO9WZ78meOYtiw0Kpf9cecqrMPODfeEQr5yYOnzljQoN1zG5T1nSBNVr9Q0BODrUN9lFlVbXXU/F5kyWC6D/WrBM1231/jcfYpCTKkK2JgKYW6ikpUaXga7gVGZ6fp41m5UE7VmlFTtXHq04U7ZhP7dMCZItzMCGRamtrqLXbP16WEERNKm/OHIoJDKSurVgg2mp4HVb3lA9tZGt8HAXGx3s8Cb+VFN32R1F8+5+QLtNHBWZnUbsQVFleTk4/u8stEUSfP+EkUb11mzrzL4lpaZSakkq2ujrqq6hUpWCUoMREreXIn1t5lRp3kPSHluRUYDCR73FEhJNIS6G6hiZqamtVpf7HGkF03cmiesvn6sw/ORwBWgL8SHncvcN3+4eNwqNZubXIg3W4Ffn1IOnvLcmp2Hrm2aLhtTfUGVhdUFYmdTgcVFFaatpUfN5kjc+5MojW+HkQPVTKtGmUnJBAorKK+mvrVCmMhfsi3UGRAyVakt7xZso0gXVdrY1TODpysqi+pYXqm5A45lCWCKL/XL9BVH36mToDt0D5Npg46KQIeWxHArUxRRUsoLTv/j8ESy/CYCJrc8qty07UIPfGrdhpbp4KokMpUHRiw2p7wxpwOokv3wG51dltls/8oTeuzMvvf5AKb70drxxecOCGmxBALYpnc9bL+uSgrHq5JxsBVH/6BtERFryFL7WQoBL5M5XK34rzIGEM5PC6S0qp+A930FvpOWLXpZcjmOqo/MFH1BFYAdcZXbIOKZNbsazRm1HtepW+TUUbruZ49cpgymsZHpAbf4LhN0pEim9y9fVR9bN/01YS4WToqhg8hDMT8W8M5setzCZZxXKrs0Lue1DdGkLXIBoQEqyOYCKa5FXhN8oK2TrllfeFvl3XlsWriXAw/WDJ0YKTo6timAKk9jM5WRVwq7NK1g1F/MItj3HjT1wgr33qIboG0eDoaHUEk9EtH49KeYX224V847TJN08E0+Hwp15eXeSdWQvE3quvRZ0ySR8uW4HfzqQG5aPPn2l5HAW3OjsQOqckJMZzsUnXIBoaG6eOYKoabEK+eQ4F1W4ZUPEIfVN/YyNVPPwYvZ0/W/AcR1UM48CDtjr3WW/tX1/XI7dqh40KZeDkAUMYM+EZnmzg6RpE42bPUEfgKfx5t1wG1P3yyrXYuXUKXzfQ2kacJICTpvNUDVUMo6h48GF1BEZzko1a5Ysy93WWyY3T8oFnJRcsUEdTJ99t9PXy/3xXlLzzrjoDPUTJyxgrn7MQ+bDpfkEtyJ04PvX/fRvZi4aBZc7MoU8+vc3yBbkNd6iuolLT6Oztn3nsV/bK5bo3PVsM+uB6dGbjkJczSQbTcBlMA1QZfBUnmU9av45m3HA9qiqFB2epQ/AyLSmCbHVqSRFkAAX9Hffr66ng4h977PnX9XOu24JzzlJHoCcnCaqRD2KhvKq18sHERIVv4kFIpXffR+/MLsB8UwmDiYzRz4FTfbKtls8sAqh35K5a6dEAyrz2Nr71L3eL9397izoDbwmSlzhetkw5xaADz+mw4o9fTouff87vWqY8mIgTWIB38KAgHhTYKO80nhcO3pW2ZjV96+knPP6ce73ieCBvlujtaFdn4E08VjpGPrtBeH6HFTFrpl/1m/KUIB7RDPriwX9tdhk8ETgNs/SSi+nIX12ny3NtSGXxzLLjReOBA+oMvI2nGcfL5zlcbl75nm8xjvBwSvvOt2n2rbf4bDDd8q3viKZ33lNn4GkcLrvl1iSDJ8/3BmOEx8fTkp/+hBb86Ie6PcuGVRLb7r5X7Hnu74RgaiwOptFyC1Ln8CUe1Ru37Gif/NTLOYiR3s/zeOE4/s7WIN9OETqNw8Fz5n+fTst+e6Puz67hlcPWu+4Re//2DwRTg4XZbBTvFBQmj30uYkwRL/wdPmM6ZZx9lk8sx/ZeweGit4rX+ABP4GDJSRFaZODkRSTAOFrw/C8ZPG/WP3i6maZC+OzPfxHFr2yk2u3bVQkYJVHYKEoIClTn8KXAmGjKPP88yr/6SksGU06LyFmdYOo4FV+X3NfJPTIJGSs6M5Ny1q6h5b/7rdefS1NWBK//8EJRsmkT9XfxLQpGiZCv2PHyFkESh2/iftPkDSfTvLv+ZKmfhrM4OfFcTRq3OnvlFW+VW9tQERgo85ijKf+Uk2n+uWcb9hyaugL4z+9uE8UbN1IDcnoayib/4iQOkUji8A3cMo058gha9NRjpg+mvHQcr3wDE8dJETrtRI3yWRhAb6ehIlNSZatzFR1/+22meOZM/+C7bTzrHFG8aTM5B5At1kicYjBO1iHBaJ1+hT04mKIWFlDK6aeatt/0zaQMIVz48DgRvXLj6Sm8eD4YK2PJUsrfsJ4W/Oh8Uz1flqoH9//5brH36WeovrQMk5UNFiBvnUS5D3ehdfp1PN80YfVKU6UWxJzQ8ePXDE7F1yT3vcgkZKhAfmmPi6Ppp6ynw/7we1PGK0sE0cLf3SZqX3iJuouKVQmPgrNRh52Hk+MmN1qssFGMbJliCfavCklPo7jlxxreb4rBRGPjWkRLisDBE4HTcBFkpwjhokh57M60xl0nyaeeQnP+aI7PuG6mDqLbz/uRqHvxZXU2PF75oF3+V3TKGx+z3owVJINpggym4fLYMVQEEg9Cijv2GMP6Td9MmSbEIM9ghK+Tt6w2wrZZBk8kRTAWL6ARKS9BlLwOYWNcCp6/nXzqBso85yzDY5jpgmjJnXdprc6OXbtVyfjwb94hHwRumXaa7r/K/8TL2ilaBlQkcfiqqIIFdOSm17x2hyIz0fB4egqPrm1AXWG4MC14Ci2ATrRrKDglmVJO20Azf/sbw66kaW6hPZf/XNQ8/7/k7OFpy1PT6w6mdhv1y4sDxgmV1yLONdQ6teNSfCEoIYEyzjlL9/mmWObsS/xD9Mj7sdlO1Il6wVB2GXqi5D5CXgeeSucJiWtX06JnPJ9gfiyGB9GdF16iBU898ACBDvlfyGm4ukzzuuC/EuTDEi33gai/vsDZkLifZ8GD93n8Dv1gydGCl37zd05ZzXE9UG8TSIpgsBB38JQv1np9peKuk8P/9Q+v1fiGhZZtPzhP1L+6UZ3pjydIczDlT76Y52UsbpXGydoMKQa/xME0esnhtPTVFzzyk/j7YCJ+wnvl3dXCzz0GChmOp8ZFOAVFefGBjz78MEo74zuUedaZuv5TvV6HlT/4iNj3i1+qM+9z8kMl9xxMMZDAeMnyEkymL8SXheVkU/pZZ05pSTZ/zUykJUWQzzb3dQ7i+TYUj9aPEjJ4CmNH7ieftoEKHvqrbrHOq0F0z1W/EJWPPK7OjNfDAVU+cBxUnXjgDDWUYpAoRO69elOaWFBiojbfdKJTZPxxMFGf/IVa5J3Tilan4SLldeAXY56iwn2fZhCWlUXLtnyky7+M1/4L3545Xww08fRl8+H5Ydxnwq3THgRTQ/FDl6QGG6B1OmQiqQVL7rpXHPzNb9WZb3PJX4Pb2o3yue3Dc2uoIHkNuJ8zWj6/nM3MrNY2Vns85nkliH50/Box0SkrRuHpMRxMeUkjFx5MQ/EDGcufguRl8MqNanI83zRy3txR+019fTARP5H80ttqJ2rWSsBIvLA/DxTilqe8JJbg6UCq+3/3/ut+bZkAyrgFlCrfqLLllshvVai+DdMmq8xS+fMX2zmhhk3rz/Zn3MfJCeR5Qe2PV50ouNWp/kiz69LLfTaAaqn45FYha6xiBFBDcSq+WHlBsuTdlyk3XtTfKgGU7b7siq88N1Ole7XkC/PUeKACZ0VCikHjxWgPMFIMunFqQU56z/Orq556llx9vpW3q19uPGah0Uq1tI/ipAg8SIinqblT8VlV7s+v8NgcbV2D6PZrrxd1DzyszqyPV3QYCqhCe7jBOPyFIEEGUy2Jw1AR+AiunznlSpPdJlufeHE1EqfiG/pcO3YqPiuJX3E8Lf7HM+YPov9ccpSILClTZ76D7yX+vNghj5Bi0HgJQj7o8iFHikFr41R83OqsxzNluFB3q1NWdr44wC8gMpJWluw3fxC9JyVDTB/07Rwh7hSDHfKteUDedGAcfvDjtTdmm2yd4lpYgqyBuNXZop4jMA6PjOdVU7jV6alUfGbmqQFGun4JS4iLU0e+K0TecEnyhst2Ckrhm0/f9xIYBU9PqpQ//wG7oEa5H5AVM5gTrynTKl88D8prVCYvEwKocULkNUiS9RYPpuRBlf4QQDkph6foGkTjZ89WR76Pl/6KkS2gDHkTTpM3YazceOFqMAYH0SKbDKryDucFllFFG4+vAY8rqJXBs1Bel1pZgiQnxuFUfBmyzuIGAC8S4U/dIQF5Oepo6nQNos11derIv3AHPKezy5EtU97zqDYwRqfcKmQw3S/v9BZZeWNVTe/jt34eQ8BTlUrldWhF4DQMB8pEYZetTqI0rdXpn9fCFc/50TxD3yBaXU20YJ468z88DJxbpNPkzZoh9zw9wyxpsPxRnay8uQVUIytzTvmIqlxfPIK9QQbPg/I3r5YvMlj4wTj8iTZNBs8cGTzjhYtCVLk/Cp41kyqLi9XZ1OkaRO3yAWqWFywgmgdJ+ze+iVNkMM2RG/c/8CAYMAYnceB+uEIZTFvl3pP9I/6OhxHyiPVS+dtyUoQm5LI1TKCsf+Pkz5/D3UxyHyXrYtQ6RF0ZadTV7Ll0HboGUZvNTvW791C7jPwwJFBu3P+QJbd0WeNwv4TOg6RhBNwfVyt/em4p1coKh/vrUOVPTr/8HZvkdkD+ljy4qxe/pGF4cGOq/Pm5r5MHPZo5l623RXz7v6lw89vqzDN0DaIyimq78k8/pb5lR5MjNUU7hyE8nJz7JXLllijfFpFi0Di8+gf31w2lGJQBFpdiTFw1d8tnvNIhW53y9+Llx8AYWio+eUF4UCMPbuT5nTzYEb7UufRw+uyf/1RnnqNvEJUVklvJhx9Sudzbly4ZKoAvcGc/z2/kT73pMphimoxxuN+OZ48dlFu9fDp4iS28x38VD85qls82D9Yqly8fnWjpGIYHLfLgxSz3IEZcim8Izs2h3qOPpMrPPlMlnqVrbf3QrHmie5hvz4mZmRTZ2UVBTUgjPRL+tKitJiMrqn5UUoYKkY9JgrwGXEHp+9ZpbjwYq5nvSbxWGMqdio9H1vIqKjA8W2AABR6xlKqbGqlx/wFV+qXL6j2TbEHXIPrw7Pmia5Q1RFPz87Vgaq+uUSXwdfyMIMWgecTLC8KfyvxlTt3Q9BSiRllVODFIyFD8MsfZhKLkZeCxFTA8R1QkiflzqVE20uoPfDN4ulkiiD4yt0B0NjSos5FlzJ1LUd095Cry3LBjX/RFikG5x3QBY4XLRyfGJVun8tjX+p54hK37XuPRy2Acm/xLa3XKe43HUMDI7IkJNJiTTfW1NdRaWaVKR2aNIDpvoeisr1dnY0ufN4+i7HYS23aoEhgOD3rhRcM7bXbq1Ko8MBJPV+JBHWGylWDVZN18T/XI/4Z2HliFFzTD8SBDXugaCyuMzT5rJnWHhVJdSQn1tLWp0rFZI4jOXyQ6J5G1KDYzkxKSkyiospqc+NQ7qm55BdvlZeyQe6RQMx5XftGy4gsVNln5CdO2UvleGZT/rtzi7ODBQaocjMVT3jh48mdbGJktLIxcs2dSa1cX1Y3yyXY0lgiijy5YLDpk03qyAoNDKGXmDIocdJFr1y5VCsPhEZMcSPlTbzeCqalEyseMB4CEyooxUF4ju5cvD3+rcMr7okf+83lKCn/FQP+meQTLaxIhLxIHTn/OJDQetrxc6ouNofrycupsbFSlk2OJIPpYwWLRXuOZlmRCTg7FxcZSQGk5uab44/k6HoCkLR4uj10IqKbE8/q4P5UrzSCXDK5y75DXyiav29fj20gPqfY/k/9HyP8fPnDK/+Wg/H/ul/teWcQJD3iZMTAnfrHilid/stW1IrY4m91OtoULqKW/j2r27FWlU2eNILpQBlEPf44NiYyiFPk2Et7TS869+1QpDIdzl3ZqfVzIIANgBpyKL1IbJGTTvkzAyOzTMqk/OYnqq6vJU42xQ1kjiC5aItqrxh4lNVnJM2ZQTEQEOfYdIFcnenVG0y6f104HBo0AGIFHc2vTU+TejuA5KlvBfOqU9VTV7r3kcumX2doSQfTxxUeItooKdaafiIQESsycRmHt7eQ8WKhKYTjcOuV+03aboL6hIgDQASdFGAqcyCQ0Fk4J25+eTk2NDdRczrnt9GeJIPrE4UeKVi/9IG6ps2dTTHAIiR07iQaxeuRI+JnWMiLJOwAZaAA8h1PxcfDkUbZWnfLkLY75c6gjIJBqDhyggR7v9uBbIog+ufQo0VJaps68Kyo5hZIy0imooYFcpd4N5FbTJ4MpLw/G/adIMQgwcVqrU+55kBBanaNzxMbSYF4ONbW1UWNRkSr1PmsE0SOOFi0lperMIDJAcEakSJudxHYkcRgNT4XglikPROrS9c4A8A2cim8ooxCngkT0HI2WFCE8lOqKS6mnrVWVGscSQfSpI44RzSUl6sx4cdOmUXxSIpI4jAMnG+f5hEgxCPBVXGny6NqhUbYwGk6KQLNnUvMUkiLoxRpB9KhjRbOBzfWRBIaEUOrMmRQxMEiuXbtVKQyH08FxyxRJHMDfBcstipcqFEI7hpE5cnOpJy6G6isqaDz5041giSD6zDHHicaDB9WZOSXIix0fE0OOkjJyjbLiDAylGNRG9spjpBgEf+FOxcfBU9cK0+pk3WBfVEAt/f1Us2ePKjQvawTRZceLRpM14UcSEhVFKTKgOlpaKdDoflyT4zHPbfLO4axIPQim4IOC5L0diVR842LLzKSBlCRqqK6mNh2SIujFGkH02BWicf9+dWYdSdOnU2xkJDn27idXV5cqheFwikFtqow8RopBsDpOxRct9xFy788LsI+HvWC+Nj2uas8+cjmtN53QEkH0ueNWinoLp+aLiE+gxKxMCmttJ2eh+fp2zYQTN2gpBuUd1YdpMmAhnMdYm9cpj0Nx647KnpKsJUVobmr0WlIEvVijJbpctkT3Wa8lOpyUWbMoJjiYaMcuIqd+qah8gTaqF+tSgslxKj7u5+QpKg7cqqOyzZ1FHYGBVH+wiPp7ulWptVmkJbpKtkQ9l3XfDCKTkykxLY2CGxpJlOuf0tDKtNapzUZt2soiAMZzkF0GTaEFT/50CyOzx8RQf242tba3U2NxsSr1HZYIon9fdYKo3blTnfkWu92upRiMknux3Tf/Gz2F66oOm122TF1aHyqAt4XJ4BkhXBQlb0ak4hudfcYM6ooIo/rSUuppNT4pgl6sEURXnyhqd/h+liBO4hCXmEDBVZzEoVaVwnDcKQb5c+8A+k5BRzZhoyhZw3F/Jw8UgpHZQ0NJzJlFzd1dVLffGjMqpsoSQfQfa9aJmu3b1ZnvCwwNobQZMykcSRzGxL3K7pG9vOwRgKdwKj4eJMQZhYKGimAEjtwc6omLpYbKSuqor1el/sEaQXStDKLb/CeIHuqLJA7FpeRqblalMBwtiYPcc/8pUgzCZHEqviik4hsX+2EF1No/QNUWSIqgF0sE0edPXC+qP9+qzvxTaHQ0JefkUFh3D7l8ZKSyXgZVMEWKQRgvTr8XKYamqCAV3+jsmZnUz0kRamqorbpalfovSwTRf550iqj6bIs6g+QZMyg2Ipxse/aT6PaNYeJ64VVkuGWKFIMwnKGkCEPBU9dKzAfYC+ZpL6dVe/eRC2ssf8EaLVEZRKsRRL8hNCyMIgacFN7Xh5RiYxiQlWW7fah12otg6tcC5T3A/ZwcPIMxKG1UHCo77HbqDg+jjq7OoUL4Ck8FUV0zW9lsSJw1nB7ZCm0Y6KNS+fNU2W1agOC1POGbAuVtHi/ry2xZeabLH4krUP4L/EeEvN4pfA84BSXJPQLoyHh8QZ2sU0rkVidrFQRQ/ekcRFHZjUXLPWkTVCZv+ib5eyEpwch4wEiqDKY5cksQsjWCYOqzAuS1jZWxMktuGfJ6x8i9Q/0ZfBUvV9gqtwpZh5TLfYusU9AF4j0IoibRJ2/6BhlM+Q2yRm7chwHD42kLCbI1wsE0g+cCIpj6DE7Flyzr/xx5fXmPXLYj65X1a7289UvlvlbuuxA4DaFrELUHBaojGC8h/+JkBFXyynDrtFk+HAPqz+CbOH1bmgym2S7+7Ctbp3hxsxwHtzrlliljQKa8ltwCRS7b4fHP0ibv8QoteApVP+DHmihHgOfyVukaREOieFEhmCxeq1N705TBlPs5uL8DhscDtBJlQOV+s1QZTJEX1fxCVauT+7uT5YZrNrIeuTXI4Fkia+waGTx59DpMXki052KTrkE0KBZB1BO4f4P7Obi/o1wG0xa5534Q+Cb+WaJlMOVWTZYMpnFyz6M6wRx4UBgPDuNBYlmq1YnvVSPjaV7V8pkvkzV1ExZy8JjgKF67xzN0DaKhsXHqCDyFkxDUyZjA/SDcSu1BfBhRqAymPJozR1bYPLqT+9vAGDwILFFuuTJw8uAwZBUaGXffNMnAyeMjKmXgxJKCnheZnqaOpk73WuXZY1eIhv3I1KMn/gzGg2t44rmub0U+gD+JcwIHnlaEEYz6G7ovOasQfuuxuHNJ86BCF+5N3dgdAXRJDX/X8wzd69xFP/6ROgK9cP8I95OUOmxav0mvKodvCpN1E7dKc2Wlzv1xYfq/R/odTr/HU5B4sBcP+kIAHRknReDBQdxNUyn3PKgQAVRfC8/+vjryDK/UIK+fe4HY/8or6gy8QUvGLZ9FVGBj45eQdrQApoyXG+P7Dl9ExoYvIsaIy8+nMz98z6NxzytBlL3xox+Lff96UZ2Bt3BflDuYYlmo0fGgjU7ZIuDKDSkGx2coFR9/tiUKwQvbqFzyt+L+zXZZ6yJztvdFz5hBP/jgHY/HPK8FUfbBL38lPn/gIXUG3sSjIrmii8CgjnHRVpORAZUzSiE0fBMP0uIXM+7vRCah0XFSBA6eWIjeOHlrVtP6p5/QJd55NYiybXffK9678bfqDIzA8/O4AuQWquemHPumPrlpq8nYhHbszzgVHye34Jcx7luGkfHPM9RFILQBQ2Cc+d/7Lq340x91uwqGXd43zr9Q7HvxJXUGRuBMMVwhckBFpTg6/nk4mHbIJ8bfphzw4CsOnjzrG5mERseD+twvXZjTaazMo4+i01/4p+4xzvB3JARTc+DPc+5WBirK0XFFyQNCOn24dcovWPzZn1+wkElobO7P/5jTaTxvBU83w4OoGwfTotfeoIE+TNAwUiBXnrLi5AoUyb9Hxz8PLzTVpfWd+sbi4UMjbPmliigA139U3NIc6jfHQDQz8HbwdDNNEHX7+KZbROHG16i5sFCVgFGQxGH8OA1jl9wPTZa3VoXKfeT8FYIHCWEE99i4j1P7ZCuPMSXKWOEJCZS7djWtuPMOw2KZ6YLooV757vdFyebNJOQDDsbhlVEieBqDvA48kR5GNyifKv6e0id/N/7cy6kZzTIqkz/T8lQUDpy8uDVfTwTOsXFSBO4P55ckTr0Jxko7bBHln3wSLbzkYsNjmKmDqBtPjeFPvW3l5aoEjII0bpMzIH+uXg6ushLmVisHVac85jypnv4MzIHSIf+e/Gmep58EqGAZIv8xeAmaGCRFMI+QqCjKWb2K1vz1HlPFLUsEUbdtt98h9v3tH1RfVqZKwChaEge5j3QhicNUyUa+1tIZsHElbSP5k8qd3Gt/NjRPVchzZpMBkY/48zrP/dXOZQGf84AwTn5gxwvOlLiTInDgxELXxouJi6fsE1bT8j//yZTxyjJBdOeFl4jaF14iMTj45TByWXP0o8IwlDuJA7dMeVAKgFUhKYJ5uEeHc1+9u16JO345pZy2gTLOPMNUccvUQbTk7vtE/YsvU9vWbarkq/hNnd8W+cbHIrXGQxIHsBqun911CJIiGM89yI3rkJHWmQ3JzNCC6Yxf/9IUV8yUt83uy38u6mSrc7CDB4+PD/c3ufsuBvAJxlBI4gBmxwO+tOCJpAgm8GXX0ERTkiauO4EWPfmooXHMNEG04rEnRO3/vkgtH36kSibHaZcPh6y40Z9hDl/kWJXHSOIARkNSBPPw5OIY4TOmU/Kpp1D+1Vd6PaYZHkRL77tfVD/zHHXu9fzC3e6Rddx/OoiHxlDuJA48uherfYA3ISmCuUTIOiBaBU9PC4qLo7Tvfcern3oNC6JFd9wpqp9+jnrK9J+2gjle5uJO4sDzTg1/iwOfhaQI5uGea86BM0SV6ckRGqoF09m/v1n3KsaQOuyDI5aJ7qJideZd/GB1yQvaJo/xYBmLP+FEiqEWqjceLPB9PAfXPTYCL8zGM0PWs/zrrqHcyy/TLdZ5PYi+kZBmijsbn3jMBUkcYCrQdWMeX3TdyGsRok16Nl7S+nW08PGHdYl3Xguiuy75qah+7u/qzFww2MA8kMQBxsspN+6m4cDZiWfXcGZfCcqeEE+r9+30eMzzShDdedFloubvz6sz8+qTP0e79lBiAWaj2eW14BG9/EaLJA5wKCRFMA8tKYK8BFHyelhhOltUwQI6ctNrHo17un+mLv3rA5YIoCxY3giJ8qHMdhGlcV+dd94xYBjcX90mt0p5CcplZdks9zxADPwTJ1Zpl8GT74dS+ZLL9wMCqHF4ofZk+fPnuASlyOtglfng7dt3UMmdd3n031b3KLE5b5YYbOPeCmvilTi4Mu+UFTlSDBpr6K136HMRkjj4B3dShA58HTIcfx3iZ+/QVHxWtbax2mOxT9eW6IE/32XpAMp4uagkecPkOAWlyj1W+TcOr6LRKm/9crlVyJcaPubRmOB7eJxCtbzGJbKGakQANVQItzrli0w2tzrl5gvdK9vPvcBj/xW6VkEvLV8lQvbsVWe+g9eHdA+jx0hAY/GqJTwICUkcrI9HzPMXH362MGLeeNqIeflsTTQVnxUEp6XScTu2eCT+6RpE703JEPmD3JvhmzAnzVz4DZn7sZHEwVp48Qh+hvhZwtxtY/F6s1Fq7ravj4731CddXT/nxkZEqCPfxMO4Y+U2Tb6tTeNjWXVzvwEYgxNp1NiE+gRo05bMA3PiF9AWufGgsQq5b5XBEwHUOPzyyYMpeVBlvB8EUE/eaboG0dTDFqkj38cDXZJlMOXRatyHykv6gDH4syD3o5XKu5v71XgeIZgDJ0WolVuJvCZ1co8vOMbhVHxx8ufPkcEznbtE/OgLji0tVR1Nna5BtKWlRR35D14Dj2/MLHlTZsg99yvwX2AMnk9YqbVObdQkNyx75X2cFKFNPgKV8vfnQWE8IAxjCYzDgyN5kGSWc+iFnwdP+puArGnqaOp0DaJ1hUVky8lWZ/6H++jSVOs0UQZSzsYDxuiTlXaD3EplRV6rtU7VH4BueHpYvfydSx02qpF7ZBUyDqfi017u5ZYpN15FRdfK38T4pa6yqmroxAN0/x3rQ7mr2r9x/0K8CqYZgudaoQY3Cve7cf+bO4kD98shiYPncJh0J0UosSEpgtHcSRGy5TXQuplwKahjYQG1Vlaqs6nTNYja7Q5q2refXMuXqRLgicrcOuUO/AQZUJEf1jjcH8f9cvypl/vpuL8OJofncfJgLq0fWgZPtPSNw0lJeJAjD3bkQY88+BEL4g9xHH0k1e7Yrs48Q9cgarMP/e0PfPAB2dau0o5hCC/9lSADao47xSBucsMMn8QBUWA8kBTBPLjVmSjrEf7ixYMckdXrq9pzs2n3xx+rM8/ROYh+WRHtfWsTdS4+jOzZnuvQ9QX8C/GouHR5w2fLYMr9FpxAAIzRJQMqt0q5RcX9eZzsHL5qQG7N8tnm/uUq+Tth9SPj8JS6aLnxIEZudcbLfYD6M/jSwGGLqLq0VJ15lq41xIMz54melmZ1NiQoLJzSUlIosKgInxhGwB3f/DmMJ6BjMIbxkMRhiDspArc+ufUOxnEvGRghAydGnYwsZPYsaomKoLJPP1MlX7qs3jPJFnStEx6ePV90NTWps6+KiIujhPh4Ctp/UP/RTRbG/XTaeqey8sK0AGNx/7U7m4u/VFzIymUuvpyKz5MC582l7ogIqtq3l3rb+Q7+JksE0UfmFojOhgZ1Nrxo2SpNSkgg+45dfv2WPxZUZubClRm3UMPltfC1Lyr8n8Otzi65x8ub8XjuebR8eeNBiTyWAkbmmD+fOoIcVL51myoZmTWC6LyForO+Xp2NLm7aNIpPSKSgykpy1tapUhgOf+rtkpUbB1V8VjMWj4QMl/twWcHxQA6u8KyIM1xz0Oy227QAimX/jMcvaVrL08+7EcZiCwoimj+XWnp6qHbfPlU6NmsE0fmLRGfdxAKi1mc6YzqF9feRa5fvrQDjSTzAo11eQU5r14NgajjOTMXBNFQec4shRF4Sh/Yn5sSDpni1lB7t6wbfT7iHjIZVicYvICebehLiqK6iksbbWDuUJYLoowsWi47aGnU2cUn5eRQbFUOOoiJytbSqUhiO1m8qWxFDX//x8JkBB1UtmPImK0QOqkb1pXJCiR7e5BPfK7c++e+GrxjmESGvB7c4ufVp5hcvU1i4gNqdTqrevVsVTI5fBFG30JgYSpZvHeGd3eTcf0CVwnA4Nyz3Y3ELlVPdgbnwlAT+5MuDlAJlpantteOhsqngQDkgr3u//GfwV4p+ecx73tCvaT6cio/7OXmULTIJjc6RnkZ9aanUWFfnsWxDlgiijy1cLNqrpx5ED5U8cybFhoWRbfdeEr1Y7Go0HEw58TemyVgH97HyQ6lNsZYVLJ/x6HXeuN+SryRv2rJh8vq65G7onPERmB0nReBWJwdPTPMbnW3+POp02Kl67z5yDnh2+QhLBNHHFy0RbR5M9HuoiMRESsrMpNDmFnIWl6hSGA6/anC/aYesifvkwwsA3sUvR9q8Tvn88SoqMDJ7UiINTptGTc1N1KRTggRmjZboYUtFuwcT/Y4kbc4cig4MIjGOYc3+jFsr2qde2WLhEZgAoC9eV1j7ZCsfvkA8c6NyzJlNnSFBVFtYRH2dnapUP9ZoiR5+pGgrL1dn+otOS6fE1BQKrq0jZ4X+wdvKenkQkny4OahiVCaA5/An+Gi5D0dShDHZIiPINXMGtXR0UP3Bg6rUOywRRJ9cepRoKS1TZ97jCAigtNmztTdAsWOXKoXhuJM48OdezhsLAJOjpeKTjxD3d051kJivs8/Ip57IKKovK6Wu5q+mhvUWBNFxisvKovj4BAqqqCBn3cTnEvkTTjHYLm+JDrnH9AeA8eE5nRw8+aUdRhEUqA0UmmhSBL1YIog+dcQxornEHIN+OIlDyvR8iujvJ9duJHEYDU+JcCfAR4pBgG8Kls9GhGuo1YlUfKNz5GRRb0I8NVRWUfsEk+/oyRpB9Mhlorm4WJ2ZR1J+PsVGRZGjsIhcrW2qFIbDwZQ/9fInX21aBYAf01b0ETzSFqn4xlRQQB2uQaqaYlIEvVgiiD599HLRVFiozswnLDaWkrKzKLyri5z7vNupbTU8Q6vLYaM2WYlwqjgAf+FOxcfL4YXik+2oOClCf1oqNXgwKYJeLBFEn1l2vGg8YI0MQykzZ1JMWJg2EMk2wB80YSRfphhEhQK+K1xWj0NJEWxkR/AclX3+POrgpAj79pOzv0+VmhuCqE5C4uIoPSebQhqbyVmi30RfX/BlikFB1nhsAEbHSRHc2YR4VR4YmT0xgQazsqippZmaTDL2ZSIsEUSfW75C1Ms3E6tKmzuHohyBRNu2qxIYDtc1HEx5VG8HWqdgQUjFN3722bOoOzRES4rQ28nfpazJGkH0+FWifo/1R8JGp6dTYkoKBdfUkrNSnzSGvqJPDULqRIpBMDludUbIfZS8T5GKb3S2iHByzphOrZ2dVG/icS4TYZEguloG0T3qzPocgYGUNmsWkjiMw1CKwaFEDkgxCGYSIqs9LY+tC0kRxhIwYwZ1RUYYmhRBL5YIon9buVbU7fLNYBOfnU3xcXEUUF5BrvoGVQrD4TUstcFIspWKFINgFB4gNDTKFkYVGEC2+fOptbeHakyQFEEvlgiif191gqjduVOd+aag8HBK5SQOff3kRBKHUblTDCKJA3gLL4IeJYaSwBu1ILpVmDUpgl6sEUTXrBO12/1nUE7S9OkUGxlJjoOF5GrjcAEj4RSD2sheeYwUg+BpPKczUt5WPFhI10rOFyxcQJ0uJ1XuMmdSBL1YIoj+Y+06UeOHI1vD4mIpKSubwrs6kcRhDINy44XDu9A6hSkKkvdQJFLxjYuWFCE9lRrr6qmlokKV+hdLBNHnT1wvqj/fqs78EydxiA0LI9q5m0S/Z1dm9zU8AKldVoTcf4oUgzBenIpvaMFrIvtQEYzAPm8edQTYqWbffhq0SFIEvVgjiK47WVRv+Vyd+beIpCRKzsyg0MZmGkQSh1FpSRy0jEhEfQimMIxA7XPt0CChUNwio7InJNBg9jRqbmmhRgsmRdCLJYLoP086RVR9tkWdgVva3LkU5XAQbduhSmAkSDEIh3Kn4uPgiaQIo/siKUJREfV2WDcpgl6sEUTXnyqqPv1UncHXxWRkUGJyMgVV15CzqlqVwnB65aatJmMTWksV/AcnReDPtRw8kYpvdLbwcHLNnkktnBTBYilXvc0iQfQ0GUQ/UWcwEi2Jw+zZFOF0kdiJJA6j4Tp0aFSv0JZpA9/Fqfh4akq0vOgOVQbDC5gxnboiI6mhvIw6m5pUKYzGEkH0X6ecLir+8x91BuMxlMQhngLKy5HEYQy9Kpjy594BWdmC9dlllcSfarnVyQOFYBQBAWRbMJ9a+nqodq/vJkXQizWC6Kn/JSo++lidwUQER0RQSn4eRfT2k9MH8g/rySk3bpVyC7UTfaeWFMqtTrnnjEJIxTc6R/Y06ktMpHotKUKtKoWJskQQ/fdZ54jC115XZzBZ7iQO9v0HSHR0qlIYDidx4FG93H86iIBqekjFN362ggXUIVxUuXs3Eb68TElIVDRdULjXI/FP12lVITEx6gimov7gQdr/+edUHhxEfYsPI8fMfPUn8HU88CRFbjmykkmWe+5XA3Ph9HsJwkY5LqI0BNBROdJSybl0MdVlZdLenTuoknORI4BOWXBMtDqaOl2DaGhcrDoCT+BVFEq2fk67DxZS65xZZFu8iCgwUP0pHIqnP8TKbZqspDP5WAZTHuUJxuHlxtJk8MyWwTNBBgLksh2Zfd5c6l5UQAdaWujgZ1v8NquQXkI92MDTvVZ5aOZc0S1vBNBHZFISJWVkUHBjI7lKy1UpDGdAVuId8rWR+0578KnXKzgVHy85Fi2rmmC0oEZlj48nZ04WNbW2UmNxsSoFPay543aafeYZHol/ugfRT2+7XXx0+x3qDPSUOnsORQcEEG1HEoex8NTzLruN2uReIKB6HLc6h0bZYnrKWByzZ1GXlhShmHo7sHCF3masO5FOfPwRj8U+r3zfQuYi70ISh/HTUgzyVBn5JCDF4NQEyOqEp6Zwb1MIfspRfZEUoaNDG/MA3hESFUUXFO7zaNzzShBlf1uxRtTxqDLwGkdgEKXJt9xIp4tcSOIwpqGMSDy6FxFgIr5IiiCPkYpvdPb8POqKiqSmikrqbGpUpeANgWHh9OPSgx6PeV4Louzlb39XlLz7rjoDb4rPyaH42DgKKCsjVwMe3tFwikFunXYgxeCIkIpv/ITDQfaC+dTS20u1+5AUwQix2dmUc+lFtOz7Z1o7iLK3LrpU7Hn+n+oMvC0kIpKS5NtwZG8fkjiMgWNDu3xEOJgixeCQEA6eMnByNiEkRRidPTuL+hMTqL6qitprkRTBKOmHH07//e+XdHuCDakatt51j9j7t39QIxIkGyopP59io6LIvm8/ic4uVQrD8ecUgzYOnHLPo2wxp3McZKuzw+Wi6j17SPjZvWIm4fHxNPO/TqdlN9+oa5wz9P360zv/Ivb//XlqLixUJWCEsLg4Spw2jSI6Osl5ENdiNEIG0zYOpnLf5eN9p8EqeCIV39jsKcnUm55KzQ2N1FpZqUrBCFyfTT/tVDru9zd7Jb4ZGkTdEEzNI3nmTIoJCSHbrt1EA4OqFIbTK5+eDvkI8adeXxnZy4tdh8s9DxRCAvhxmDObOoMCqO7AQRro5d50MIq3g6ebKYKo254nnxYHX3yJyt57X5WAUaKSkykxPZ1CmprIWVKmSmEkHEi7ZOuUMxsPWCyg8uda/kzLczu55WnDJ8hR2WVl7czNRlIEk0iZP59yTzqRDv/Z5YbEM1MF0UO9f9W1ouj116m9pkaVgFEy5s2lCLuDaBuSOIyFV5Tpllu/DKjcUu2Rx2ZLhM/LjYXKPWcQ4k+2IdoexuJOilAnA2dPO5IiGCkoNIxy1qyiEx663/AYZtog6rbjgYdF0cuvENYlNV5sZiYlJCdRYGUNuaqRxGG8eJoMD0zqlsGUg6tTPnX9Mq56I1MSf54NkHvu0+RgGcbH8h9r+gffJGxhYSTmcFKETqpDUgTDJcyYQfknraOl115tmlvYUs/S5ssuF6VvbaLORsxzNFJAUDClzppJkYMucvGqEjApHEw5n++g3HMLdlA+ji655+DKexsHXLl3yeDH4ZbPebSnXe555Qht9Qh5zp9j+dgh/1cB8n8YKP88QJZz8ITJ4aQIvTHRVF9ejvrGYPaAAMpZuZLWP/WYKeOVpYKo29a77hZFr26k6s+3qhIwSkJODsXFxlJAaTm5UNmAlbmTIvT1Uc1ezKE2GidIyFt3Ih39m1+ZOk5ZMoge6s0LLxIlb26i3g5OKQ5G4SQOKfLtPRxJHMBi7FnTqD8pkeqrqzEGwwSyjzuOpp92Cs3+nmdWWdGb5YOo26d/+KMo+vdGqt+9R5WAUZKmT6fYyEiy791PogtJHMCkZKuzSwiq2rOHXC7+gA5GiUpLpbwTTqBjb73FcjHJZ4LooV47+zxRsultGujDvC0jccaQpGlZFN7RQYMHMCgDjGdPTaGBjHRqamig5nKsv2u0zCOPpPwNp9D8H55j2Vjkk0HU7eObbhFFG1+jJiRxMFzK7FkUExxKtp27SAwMqFIA73DMn0sdAQFUc2A/DfTg5dpI4QkJlLt2Na248w6fiD8+HUQP9cp3vy9K334bn20MFpWcQkmyJRAsWwLOUrQEQD/22Fhy5udQUwuSIphB2mGLKP/kk2jhJRf7VNzxmyDq9sEvfyWKXnuD2vApx3Dp8+ZRFE/b2L5TlQBMnX3WTOoOD6W64hLqaWtTpWCEkMgo2epcRavvu8dnY43fBVG3PY8/KQ6+9DKVvf+BKgGjxGRmUmJSEgVVVZOzGqMjYeI4KYJr9kxq7eqiOqwOZbjkuXMpb/06OvzKK3w+xvhtED3Uuz+/WrZO36TOOqz5Z6TA4BBKmTWDIgeQxAHGx5GXSz2xMVRfXkGdjQ2qFIwQGBJCuatW0QmPPuhXcQVB9BA77n9QbHv2b9S6B9NkjMZJHOJjY8lRUkaupiZVCiArLbudxIJ51DowQLVIimC4hOnTKffEE+jI66/1y3iCIDqCzZf+VBS98Rb1tDSrEjAC96mkyNZGeE8vOffuU6Xgj+zTMqk/KWkoKUItPvsbyW53UPbKFXTyM0/4fQxBEB3D1j/fLQpfeZVqtm9XJWAUJHHwT7aC+dRJgqp27yWXi7MJg1Fipk2Trc61tOy3NyJ2KPghJuD18y8UJZs2U38nrxoJRomIT6BE+TCHtbeT8yDmAPsie2oyDaRnUFMjkiKYwbRjl1HuSetowXnWTYqgF/wgk/DJrX8QxZxiEJ8XDZc6ezbFBAeT2LGLaHBQlYJVOebPoY6AIKo9sJ/6e3g1VjBKVEqqbHWuoeW3/R5xYhT4caZo4w/OFSVvbabBAV41EowSlZJCSenpFNTQQC4kcbAULSlCXg61tLVRfVGRKgWjpC9ZStNPPZkWXPBDxIdxwI/kIR/deJMo+vfr1IzMKIbiNTfT586lCLknJHEwtS+TIpRST1urKgUjhMXFUe6a1bTyrjsREyYIP5iH7XvmWVH40itUvPltVQJGiZs2jeISEyi4spqcNZgDbAacFEHMnkktSIpgCqkLCyhv/Xo67CeXIBZMEn44HX1w7S9F4cbXqb2qSpWAEXgSeOrMmRQxMEiuXbtVKXiTIzeXeuJiqL6ykjrr61UpGCE4MoJyVq2ktQ/8FfW/B+BH9ILdjz4mDr74CpV/+KEqAaMkyMo8PiaGHMWl5GrGHGBd2WxkW7SA2voHqBoJTAyXNGc25a5bR0uvvhL1vgfhx/Syt6+4UpS88Rbexg0WEhVFKTKgIomD59kyM2kgJYkaamqorbpalYIRHIFBlLdmFZ342MOo63WCH9Yg2+/9q5bEoeqzLaoEjJKsJXGIIPveA+RCEodJsxfMpw5OirBnH7mcmG5kpDj5gpi/fh0def11qON1hh/YBN66+FJR8uZm6mltUSVghIiEBEqaNo1CWtvIVYipFuPhSEmm/gwkRTCL3JUrKH/DKTTrjO+gbvcS/NAmsuWOO0XRqxupdiemZhiNkzjEBgeTi6fJOJFq7usc8+ZQRyAnRThA/T3dqhSMECVfYvLXnUjLbkYqPiPgRzep13/4I9k63YQKymBRqamUlJZGQfUN5Crz75aWPSaGnPm5SIpgEtOOOZqmy1bn3HN+gHrcQPjxTe6TW24Vhf/eSI2YU2cou91OaXPmUKTNTmL7DlXqHxyzZlBXeBjVlZRSTyuSIhgpMjmZcteuoeP+eBvqbpPAhbCQV888W5Ru3kxO5Ig1FCdxiE9IoMCaWnJV+eboUwen4svNppbuLqrbjxc4o6UvOZzyT15PBT/+Eepsk8EFsaAPf32jKNr4GrWUlqoSMEpiXh7FREdTYGMzuSx+PXiQkDMjjTr7+6m+uJT6ZQAF44TJF5mc1ato1T1/QT1tYrg4Frbv6WfFgRdeotJ331UlYCRO5BAjK76g9nZyySBEAwPqT8wrICebBhLiqK27mxoKi8hpgX9nX5daUEC5606kxVf8BPWzBeAi+Yi3f3a1KH3rLeqowYr/ZhAUGk4xqckUGh5OoS5B9oZGctUam7+XV0uhaRnUFxRIXZ1d1CLvlT4Z8MF4QWHhlLtmFa19EKn4rAYXzMfsePARUfTyK1Tx8ceqBMwiNCqaolJTKDQ0lILsDgoY6CNbWwe5qmtI9HtuKT1HWiqJuFhyhoRQvyDq6+ul9sZGZMkyocSZMynvpHW09BdXoS62KFw4H/b2T6/Qpsl0NjSoEjCr8Ph4CouNIbvDIbcACrDbySaPeWk3u81O8lTjchEJ4SKXECRcTnI65bHTKctd1CtblXyt+RjMyxEYQNkrVtL6px5D/esDcBH9wNa779GSOFRv+VyVAIC3xWZnU/YJa+nYm25AvetDcDH9zFs/vlgUv7GJejvQFwbgDTnHH6el4pt95hmob30QLqqf+vT2O0SxbJ3W7cb6mgCeFpWWRnknylbn729BHevjcIGBXj/nfFG8aRMN9PaqEgCYjMyjjtRS8c077xzUrX4CFxq+8PFNt4ji116nxoMHVQkAjCU8MZFy166mFX/6I+pTP4SLDsN69XtniZJNb5PLhRVMAIaTtvgwms6p+C7+MepRP4aLD6P6v+t/LVunb1BLWZkqAfBfIVHRlLNmJa257x7UnaDBjQDjsueJp8TBl16msvfeVyUA/iN53jzKW38iHf6zK1BnwlfghoAJe++qa2Tr9E1qr0WKQfBdgaGhlLtqFZ3wyAOoJ2FEuDlg0nbc/6A48NIrVP3pp6oEwPoSZsyg3BPX0pG/vBb1I4wJNwl4xJsXXSbKNm+i7uYWVQJgHTa7g3JWHk85J6+nuWd8B/UijBtuFvCoT/54pyh57TWq275DlQCYV0xWFuWsXUPH3nwj6kKYFNw4oJvXz79QlG7eTH0dnaoEwByylx+rpeKbc9aZqANhSnADge4+ufV2UbxxI9Xv2atKALwvMiVVS8W3/Lbfod4Dj8HNBF712tnniaI3N5FzwHPrZwKMJvOIIyj/lJNp/gXnob4Dj8NNBYb4+MabReHG16i5qEiVAHgOr8+as2Y1rfzLn1DHga5wg4Gh9j79rCh86WUqefsdVQIweWmLFlLe+pNo0WWXoG4Dr8CNBqbxwXW/0lqn7ZWVqgRgbCGRkZS9eiWtvf8+1GfgdbjpwHR2P/q4lmKw/P8+VCUA35Q0dw7lrTuRllx1JeoxMAxuPjC1d352lSh+403qrKtTJeDPAoKCKWvl8bT+iUdRd4Ep4EYES9h+3/2i8JVXqerTz1QJ+JO4vDyaftI6OuJ6pOIDc8ENCZaz6eLLRMlbm6i7BSkGfZnNZqOclSvo5GefQj0FpoWbEyxryx1/FsUbX6Oa7dtVCfiC6MxMyjvxBFqGVHxgAbhJwSe8cf6FovjNTdTf3aVKwGqmLTuGpm84heaefRbqJbAM3KzgUz753W2i6N8bqWH/flUCZhaZkkK5a1fTcbffhroILAk3Lvisf3//bFGyeTM5BwZVCZhF+pIlNP2U9bTgwgtQB4Gl4QYGn/fhDTeK4o2vU3NJiSoBI4TGxlIep+K7+8+od8Bn4GYGv7H3qWeGUgy+864qAW9IKSigvJPW0eLLL0N9Az4HNzX4pfevuVYUvfYGtVdXqxLwpKDwcK3VueYBpOID34YbHPzarocf1VIMVnz0sSqBqUicNVO2Ok+ipdf8HHUL+AXc6ADK25f/TBS/8RZ1NTSoEhgPR2Ag5a5aSeuQig/8EG56gK/Zfs994uArr1L1ls9VCQwnLidHtjpPpKN+fT3qEfBbuPkBRvHWRZfI1ukm6m1vUyWQc/zxlH/qKTT7e99F/QF+Dw8BwDhsueNPovCVjVS3a5cq8S/R6emUd+JaWva7m1FnABwCDwTABL1+7gWieNMmGujpUSW+K/Poo2j6hpNp3rnnoK4AGAYeDIBJ+vh3t4ryze9QrY8lwOe+zqwVx9Gxv78F9QPAGPCQAHjAB9deL0rffoeai4pUibVEJCbStOXLaPV996BOAJgAPDAAHvbOFVeKpn37qWHPPlOvKhOVm0NpBQso4+ijac4Pvo+6AGAS8OAA6Gz7vX8VtVs+p/qdO6mltEyVele4bGkmz5tLyYcdRkuuvhLPPYCH4GECMMi+p58RHVXV1FVbR1119dTdUE/Ovj4a7OuXWx+5BgbkeT85++W53JgjKJACgoK1vT0oSB4HyWO5DwmhkNgYCk9KorDkZIpIT8VgIAAAAAAAAAAAAAAAAAAAAAAAAAAAAAAAAAAAAAAAAAAAAAAAAAATIPr/zMpQfrtrLsAAAAAASUVORK5CYII=;" vertex="1" parent="1">
          <mxGeometry x="1180" y="1191.21" width="103.92" height="85.59" as="geometry" />
        </mxCell>
        <mxCell id="4Rx-it21br4PG3s0Q3KG-166" style="edgeStyle=orthogonalEdgeStyle;rounded=0;orthogonalLoop=1;jettySize=auto;html=1;entryX=0.5;entryY=1;entryDx=0;entryDy=0;endArrow=none;endFill=0;startArrow=classic;startFill=1;dashed=1;" edge="1" parent="1" source="4Rx-it21br4PG3s0Q3KG-162" target="GPZW-LEuCJG_7yV0mtUQ-43">
          <mxGeometry relative="1" as="geometry" />
        </mxCell>
        <mxCell id="j8VDznVo-cLh9V_5Xs2e-3" value="https" style="edgeLabel;html=1;align=center;verticalAlign=middle;resizable=0;points=[];" connectable="0" vertex="1" parent="4Rx-it21br4PG3s0Q3KG-166">
          <mxGeometry x="0.721" relative="1" as="geometry">
            <mxPoint as="offset" />
          </mxGeometry>
        </mxCell>
        <mxCell id="4Rx-it21br4PG3s0Q3KG-162" value="" style="image;aspect=fixed;html=1;points=[];align=center;fontSize=12;image=img/lib/azure2/security/Key_Vaults.svg;" vertex="1" parent="1">
          <mxGeometry x="1391" y="1190" width="89" height="89" as="geometry" />
        </mxCell>
        <mxCell id="4Rx-it21br4PG3s0Q3KG-163" value="Cache" style="text;html=1;align=center;verticalAlign=middle;resizable=0;points=[];autosize=1;strokeColor=none;fillColor=none;" vertex="1" parent="1">
          <mxGeometry x="1201.96" y="1276.8" width="60" height="30" as="geometry" />
        </mxCell>
        <mxCell id="4Rx-it21br4PG3s0Q3KG-164" value="Key Vault" style="text;html=1;align=center;verticalAlign=middle;resizable=0;points=[];autosize=1;strokeColor=none;fillColor=none;" vertex="1" parent="1">
          <mxGeometry x="1402.35" y="1276.8" width="70" height="30" as="geometry" />
        </mxCell>
        <mxCell id="4Rx-it21br4PG3s0Q3KG-171" value="" style="endArrow=classic;html=1;rounded=0;entryX=0;entryY=0.5;entryDx=0;entryDy=0;endFill=1;dashed=1;" edge="1" parent="1" target="4Rx-it21br4PG3s0Q3KG-114">
          <mxGeometry width="50" height="50" relative="1" as="geometry">
            <mxPoint x="1630" y="800" as="sourcePoint" />
            <mxPoint x="1690" y="790" as="targetPoint" />
            <Array as="points">
              <mxPoint x="1720" y="800" />
              <mxPoint x="1720" y="616" />
            </Array>
          </mxGeometry>
        </mxCell>
        <mxCell id="4Rx-it21br4PG3s0Q3KG-172" value="" style="endArrow=classic;html=1;rounded=0;entryX=0;entryY=0.5;entryDx=0;entryDy=0;endFill=1;dashed=1;" edge="1" parent="1">
          <mxGeometry width="50" height="50" relative="1" as="geometry">
            <mxPoint x="1630" y="800" as="sourcePoint" />
            <mxPoint x="1864" y="745.35" as="targetPoint" />
            <Array as="points">
              <mxPoint x="1720" y="800" />
              <mxPoint x="1720" y="745" />
            </Array>
          </mxGeometry>
        </mxCell>
        <mxCell id="4Rx-it21br4PG3s0Q3KG-173" value="" style="endArrow=classic;html=1;rounded=0;entryX=0;entryY=0.5;entryDx=0;entryDy=0;endFill=1;exitX=1;exitY=0.5;exitDx=0;exitDy=0;dashed=1;" edge="1" parent="1" source="GPZW-LEuCJG_7yV0mtUQ-64">
          <mxGeometry width="50" height="50" relative="1" as="geometry">
            <mxPoint x="1610" y="890" as="sourcePoint" />
            <mxPoint x="1865" y="865.35" as="targetPoint" />
            <Array as="points">
              <mxPoint x="1550" y="980" />
              <mxPoint x="1550" y="800" />
              <mxPoint x="1720" y="800" />
              <mxPoint x="1720" y="865" />
            </Array>
          </mxGeometry>
        </mxCell>
        <mxCell id="4Rx-it21br4PG3s0Q3KG-174" value="" style="endArrow=classic;html=1;rounded=0;entryX=0;entryY=0.5;entryDx=0;entryDy=0;endFill=1;exitX=1;exitY=0.5;exitDx=0;exitDy=0;dashed=1;" edge="1" parent="1" source="GPZW-LEuCJG_7yV0mtUQ-55">
          <mxGeometry width="50" height="50" relative="1" as="geometry">
            <mxPoint x="1630" y="800" as="sourcePoint" />
            <mxPoint x="1864" y="994.62" as="targetPoint" />
            <Array as="points">
              <mxPoint x="1550" y="650" />
              <mxPoint x="1550" y="800" />
              <mxPoint x="1720" y="800" />
              <mxPoint x="1720" y="995" />
            </Array>
          </mxGeometry>
        </mxCell>
        <mxCell id="4Rx-it21br4PG3s0Q3KG-182" style="edgeStyle=orthogonalEdgeStyle;rounded=0;orthogonalLoop=1;jettySize=auto;html=1;entryX=0.5;entryY=1;entryDx=0;entryDy=0;dashed=1;" edge="1" parent="1" source="4Rx-it21br4PG3s0Q3KG-183" target="GPZW-LEuCJG_7yV0mtUQ-78">
          <mxGeometry relative="1" as="geometry" />
        </mxCell>
        <mxCell id="4Rx-it21br4PG3s0Q3KG-184" value="" style="edgeStyle=orthogonalEdgeStyle;rounded=0;orthogonalLoop=1;jettySize=auto;html=1;entryX=0.5;entryY=1;entryDx=0;entryDy=0;dashed=1;endArrow=none;endFill=0;" edge="1" parent="1" source="GPZW-LEuCJG_7yV0mtUQ-55" target="4Rx-it21br4PG3s0Q3KG-183">
          <mxGeometry relative="1" as="geometry">
            <mxPoint x="1346" y="601" as="sourcePoint" />
            <mxPoint x="1346" y="379" as="targetPoint" />
          </mxGeometry>
        </mxCell>
        <mxCell id="4Rx-it21br4PG3s0Q3KG-183" value="https" style="text;html=1;align=center;verticalAlign=middle;resizable=0;points=[];autosize=1;strokeColor=none;fillColor=none;" vertex="1" parent="1">
          <mxGeometry x="1322.25" y="420" width="50" height="30" as="geometry" />
        </mxCell>
        <mxCell id="4Rx-it21br4PG3s0Q3KG-186" style="edgeStyle=orthogonalEdgeStyle;rounded=0;orthogonalLoop=1;jettySize=auto;html=1;entryX=0;entryY=0.5;entryDx=0;entryDy=0;dashed=1;" edge="1" parent="1" source="GPZW-LEuCJG_7yV0mtUQ-64" target="GPZW-LEuCJG_7yV0mtUQ-78">
          <mxGeometry relative="1" as="geometry">
            <Array as="points">
              <mxPoint x="1220" y="960" />
              <mxPoint x="1220" y="330" />
            </Array>
          </mxGeometry>
        </mxCell>
        <mxCell id="4Rx-it21br4PG3s0Q3KG-188" value="https" style="text;html=1;align=center;verticalAlign=middle;resizable=0;points=[];autosize=1;strokeColor=none;fillColor=none;" vertex="1" parent="1">
          <mxGeometry x="1196.25" y="430" width="50" height="30" as="geometry" />
        </mxCell>
      </root>
    </mxGraphModel>
  </diagram>
</mxfile>
